<svg xmlns="http://www.w3.org/2000/svg" viewBox="0 0 174 168"><defs><style>.cls-1{isolation:isolate;}.cls-2{fill:#fde036;}.cls-3{fill:#fdba01;opacity:0.2;}.cls-3,.cls-7{mix-blend-mode:multiply;}.cls-4{fill:#414042;}.cls-5{fill:none;stroke:#414042;stroke-miterlimit:10;stroke-width:11px;}.cls-6{fill:#e6401f;}.cls-7{fill:#231f20;opacity:0.3;}</style></defs><title>min-lft</title><g class="cls-1"><g id="Layer_3" data-name="Layer 3"><circle class="cls-2" cx="79.76" cy="93.09" r="71"/><path class="cls-3" d="M15.06,123.25A71,71,0,1,0,142.37,60.47a18.82,18.82,0,0,0-32-1.8l-24,34.43A18.83,18.83,0,0,1,68.7,101l-34.2-4C20.06,95.3,9.05,110,15.06,123.25Z"/><circle class="cls-4" cx="65.78" cy="72.2" r="7.4"/><circle class="cls-4" cx="44.71" cy="72.2" r="7.4"/><path class="cls-4" d="M73.49,57h.4a15.3,15.3,0,0,1,15.3,15.3V88a0,0,0,0,1,0,0h-31a0,0,0,0,1,0,0V72.33A15.3,15.3,0,0,1,73.49,57Z" transform="translate(147.38 145.06) rotate(-180)"/><path class="cls-4" d="M36.63,57H37a15.3,15.3,0,0,1,15.3,15.3V88a0,0,0,0,1,0,0h-31a0,0,0,0,1,0,0V72.33A15.3,15.3,0,0,1,36.63,57Z" transform="translate(73.65 145.06) rotate(-180)"/><line class="cls-5" x1="47.56" y1="67.92" x2="62.96" y2="67.92"/><ellipse class="cls-6" cx="146.59" cy="49.29" rx="10.95" ry="19.46" transform="translate(19.37 137.23) rotate(-53.24)"/><ellipse class="cls-7" cx="146.59" cy="49.29" rx="10.95" ry="19.46" transform="translate(19.37 137.23) rotate(-53.24)"/><ellipse class="cls-6" cx="148.68" cy="39.72" rx="19.46" ry="10.95" transform="matrix(0.99, -0.14, 0.14, 0.99, -4.16, 21.72)"/><ellipse class="cls-6" cx="114.09" cy="25.65" rx="10.95" ry="19.46" transform="translate(25.27 101.7) rotate(-53.24)"/><ellipse class="cls-7" cx="114.09" cy="25.65" rx="10.95" ry="19.46" transform="translate(25.27 101.7) rotate(-53.24)"/><ellipse class="cls-6" cx="122.34" cy="20.36" rx="10.95" ry="19.46" transform="translate(-1.65 17.74) rotate(-8.24)"/><circle class="cls-6" cx="129.08" cy="39.81" r="9.73"/></g></g></svg>