<?xml version="1.0" encoding="utf-8"?>
<!-- Generator: Adobe Illustrator 21.0.0, SVG Export Plug-In . SVG Version: 6.00 Build 0)  -->
<svg version="1.1" id="Layer_1" xmlns="http://www.w3.org/2000/svg" xmlns:xlink="http://www.w3.org/1999/xlink" x="0px" y="0px"
	 viewBox="0 0 1235.6 935.5" style="enable-background:new 0 0 1235.6 935.5;" xml:space="preserve">
<style type="text/css">
	.st0{fill:#57565C;}
	.st1{fill:#797882;}
	.st2{opacity:0.88;enable-background:new    ;}
</style>
<title>brick-Bkgd</title>
<g id="Layer_3">
	<rect y="637.8" class="st0" width="77.2" height="42.5"/>
	<polygon class="st1" points="73.5,675.6 66.9,675.6 66.9,648.9 7.5,648.9 7.5,642.3 73.5,642.3 	"/>
	<rect y="595.3" class="st0" width="77.2" height="42.5"/>
	<polygon class="st1" points="73.5,633 66.9,633 66.9,606.4 7.5,606.4 7.5,599.8 73.5,599.8 	"/>
	<rect y="552.8" class="st0" width="77.2" height="42.5"/>
	<polygon class="st1" points="73.5,590.5 66.9,590.5 66.9,563.9 7.5,563.9 7.5,557.3 73.5,557.3 	"/>
	<rect y="510.2" class="st0" width="77.2" height="42.5"/>
	<polygon class="st1" points="73.5,548 66.9,548 66.9,521.3 7.5,521.3 7.5,514.8 73.5,514.8 	"/>
	<rect x="77.2" y="637.8" class="st0" width="77.2" height="42.5"/>
	<polygon class="st1" points="150.7,675.6 144.1,675.6 144.1,648.9 84.7,648.9 84.7,642.3 150.7,642.3 	"/>
	<rect x="77.2" y="595.3" class="st0" width="77.2" height="42.5"/>
	<polygon class="st1" points="150.7,633 144.1,633 144.1,606.4 84.7,606.4 84.7,599.8 150.7,599.8 	"/>
	<rect x="77.2" y="552.8" class="st0" width="77.2" height="42.5"/>
	<polygon class="st1" points="150.7,590.5 144.1,590.5 144.1,563.9 84.7,563.9 84.7,557.3 150.7,557.3 	"/>
	<rect x="77.2" y="510.2" class="st0" width="77.2" height="42.5"/>
	<polygon class="st1" points="150.7,548 144.1,548 144.1,521.3 84.7,521.3 84.7,514.8 150.7,514.8 	"/>
	<rect x="154.4" y="637.8" class="st0" width="77.2" height="42.5"/>
	<polygon class="st1" points="227.9,675.6 221.4,675.6 221.4,648.9 161.9,648.9 161.9,642.3 227.9,642.3 	"/>
	<rect x="154.4" y="595.3" class="st0" width="77.2" height="42.5"/>
	<polygon class="st1" points="227.9,633 221.4,633 221.4,606.4 161.9,606.4 161.9,599.8 227.9,599.8 	"/>
	<rect x="154.4" y="552.8" class="st0" width="77.2" height="42.5"/>
	<polygon class="st1" points="227.9,590.5 221.4,590.5 221.4,563.9 161.9,563.9 161.9,557.3 227.9,557.3 	"/>
	<rect x="154.4" y="510.2" class="st0" width="77.2" height="42.5"/>
	<polygon class="st1" points="227.9,548 221.4,548 221.4,521.3 161.9,521.3 161.9,514.8 227.9,514.8 	"/>
	<rect x="231.7" y="637.8" class="st0" width="77.2" height="42.5"/>
	<polygon class="st1" points="305.1,675.6 298.6,675.6 298.6,648.9 239.2,648.9 239.2,642.3 305.1,642.3 	"/>
	<rect x="231.7" y="595.3" class="st0" width="77.2" height="42.5"/>
	<polygon class="st1" points="305.1,633 298.6,633 298.6,606.4 239.2,606.4 239.2,599.8 305.1,599.8 	"/>
	<rect x="231.7" y="552.8" class="st0" width="77.2" height="42.5"/>
	<polygon class="st1" points="305.1,590.5 298.6,590.5 298.6,563.9 239.2,563.9 239.2,557.3 305.1,557.3 	"/>
	<rect x="231.7" y="510.2" class="st0" width="77.2" height="42.5"/>
	<polygon class="st1" points="305.1,548 298.6,548 298.6,521.3 239.2,521.3 239.2,514.8 305.1,514.8 	"/>
	<rect y="467.7" class="st0" width="77.2" height="42.5"/>
	<polygon class="st1" points="73.5,505.5 66.9,505.5 66.9,478.8 7.5,478.8 7.5,472.3 73.5,472.3 	"/>
	<rect y="425.2" class="st0" width="77.2" height="42.5"/>
	<polygon class="st1" points="73.5,463 66.9,463 66.9,436.3 7.5,436.3 7.5,429.7 73.5,429.7 	"/>
	<rect y="382.7" class="st0" width="77.2" height="42.5"/>
	<polygon class="st1" points="73.5,420.5 66.9,420.5 66.9,393.8 7.5,393.8 7.5,387.2 73.5,387.2 	"/>
	<rect y="340.2" class="st0" width="77.2" height="42.5"/>
	<polygon class="st1" points="73.5,377.9 66.9,377.9 66.9,351.2 7.5,351.2 7.5,344.7 73.5,344.7 	"/>
	<rect x="77.2" y="467.7" class="st0" width="77.2" height="42.5"/>
	<polygon class="st1" points="150.7,505.5 144.1,505.5 144.1,478.8 84.7,478.8 84.7,472.3 150.7,472.3 	"/>
	<rect x="77.2" y="425.2" class="st0" width="77.2" height="42.5"/>
	<polygon class="st1" points="150.7,463 144.1,463 144.1,436.3 84.7,436.3 84.7,429.7 150.7,429.7 	"/>
	<rect x="77.2" y="382.7" class="st0" width="77.2" height="42.5"/>
	<polygon class="st1" points="150.7,420.5 144.1,420.5 144.1,393.8 84.7,393.8 84.7,387.2 150.7,387.2 	"/>
	<rect x="77.2" y="340.2" class="st0" width="77.2" height="42.5"/>
	<polygon class="st1" points="150.7,377.9 144.1,377.9 144.1,351.2 84.7,351.2 84.7,344.7 150.7,344.7 	"/>
	<rect x="154.4" y="467.7" class="st0" width="77.2" height="42.5"/>
	<polygon class="st1" points="227.9,505.5 221.4,505.5 221.4,478.8 161.9,478.8 161.9,472.3 227.9,472.3 	"/>
	<rect x="154.4" y="425.2" class="st0" width="77.2" height="42.5"/>
	<polygon class="st1" points="227.9,463 221.4,463 221.4,436.3 161.9,436.3 161.9,429.7 227.9,429.7 	"/>
	<rect x="154.4" y="382.7" class="st0" width="77.2" height="42.5"/>
	<polygon class="st1" points="227.9,420.5 221.4,420.5 221.4,393.8 161.9,393.8 161.9,387.2 227.9,387.2 	"/>
	<rect x="154.4" y="340.2" class="st0" width="77.2" height="42.5"/>
	<polygon class="st1" points="227.9,377.9 221.4,377.9 221.4,351.2 161.9,351.2 161.9,344.7 227.9,344.7 	"/>
	<rect x="231.7" y="467.7" class="st0" width="77.2" height="42.5"/>
	<polygon class="st1" points="305.1,505.5 298.6,505.5 298.6,478.8 239.2,478.8 239.2,472.3 305.1,472.3 	"/>
	<rect x="231.7" y="425.2" class="st0" width="77.2" height="42.5"/>
	<polygon class="st1" points="305.1,463 298.6,463 298.6,436.3 239.2,436.3 239.2,429.7 305.1,429.7 	"/>
	<rect x="231.7" y="382.7" class="st0" width="77.2" height="42.5"/>
	<polygon class="st1" points="305.1,420.5 298.6,420.5 298.6,393.8 239.2,393.8 239.2,387.2 305.1,387.2 	"/>
	<rect x="231.7" y="340.2" class="st0" width="77.2" height="42.5"/>
	<polygon class="st1" points="305.1,377.9 298.6,377.9 298.6,351.2 239.2,351.2 239.2,344.7 305.1,344.7 	"/>
	<rect x="308.9" y="637.8" class="st0" width="77.2" height="42.5"/>
	<polygon class="st1" points="382.4,675.6 375.8,675.6 375.8,648.9 316.4,648.9 316.4,642.3 382.4,642.3 	"/>
	<rect x="308.9" y="595.3" class="st0" width="77.2" height="42.5"/>
	<polygon class="st1" points="382.4,633 375.8,633 375.8,606.4 316.4,606.4 316.4,599.8 382.4,599.8 	"/>
	<rect x="308.9" y="552.8" class="st0" width="77.2" height="42.5"/>
	<polygon class="st1" points="382.4,590.5 375.8,590.5 375.8,563.9 316.4,563.9 316.4,557.3 382.4,557.3 	"/>
	<rect x="308.9" y="510.2" class="st0" width="77.2" height="42.5"/>
	<polygon class="st1" points="382.4,548 375.8,548 375.8,521.3 316.4,521.3 316.4,514.8 382.4,514.8 	"/>
	<rect x="386.1" y="637.8" class="st0" width="77.2" height="42.5"/>
	<polygon class="st1" points="459.6,675.6 453,675.6 453,648.9 393.6,648.9 393.6,642.3 459.6,642.3 	"/>
	<rect x="386.1" y="595.3" class="st0" width="77.2" height="42.5"/>
	<polygon class="st1" points="459.6,633 453,633 453,606.4 393.6,606.4 393.6,599.8 459.6,599.8 	"/>
	<rect x="386.1" y="552.8" class="st0" width="77.2" height="42.5"/>
	<polygon class="st1" points="459.6,590.5 453,590.5 453,563.9 393.6,563.9 393.6,557.3 459.6,557.3 	"/>
	<rect x="386.1" y="510.2" class="st0" width="77.2" height="42.5"/>
	<polygon class="st1" points="459.6,548 453,548 453,521.3 393.6,521.3 393.6,514.8 459.6,514.8 	"/>
	<rect x="463.3" y="637.8" class="st0" width="77.2" height="42.5"/>
	<polygon class="st1" points="536.8,675.6 530.3,675.6 530.3,648.9 470.8,648.9 470.8,642.3 536.8,642.3 	"/>
	<rect x="463.3" y="595.3" class="st0" width="77.2" height="42.5"/>
	<polygon class="st1" points="536.8,633 530.3,633 530.3,606.4 470.8,606.4 470.8,599.8 536.8,599.8 	"/>
	<rect x="463.3" y="552.8" class="st0" width="77.2" height="42.5"/>
	<polygon class="st1" points="536.8,590.5 530.3,590.5 530.3,563.9 470.8,563.9 470.8,557.3 536.8,557.3 	"/>
	<rect x="463.3" y="510.2" class="st0" width="77.2" height="42.5"/>
	<polygon class="st1" points="536.8,548 530.3,548 530.3,521.3 470.8,521.3 470.8,514.8 536.8,514.8 	"/>
	<rect x="540.6" y="637.8" class="st0" width="77.2" height="42.5"/>
	<polygon class="st1" points="614,675.6 607.5,675.6 607.5,648.9 548.1,648.9 548.1,642.3 614,642.3 	"/>
	<rect x="540.6" y="595.3" class="st0" width="77.2" height="42.5"/>
	<polygon class="st1" points="614,633 607.5,633 607.5,606.4 548.1,606.4 548.1,599.8 614,599.8 	"/>
	<rect x="540.6" y="552.8" class="st0" width="77.2" height="42.5"/>
	<polygon class="st1" points="614,590.5 607.5,590.5 607.5,563.9 548.1,563.9 548.1,557.3 614,557.3 	"/>
	<rect x="540.6" y="510.2" class="st0" width="77.2" height="42.5"/>
	<polygon class="st1" points="614,548 607.5,548 607.5,521.3 548.1,521.3 548.1,514.8 614,514.8 	"/>
	<rect x="308.9" y="467.7" class="st0" width="77.2" height="42.5"/>
	<polygon class="st1" points="382.4,505.5 375.8,505.5 375.8,478.8 316.4,478.8 316.4,472.3 382.4,472.3 	"/>
	<rect x="308.9" y="425.2" class="st0" width="77.2" height="42.5"/>
	<polygon class="st1" points="382.4,463 375.8,463 375.8,436.3 316.4,436.3 316.4,429.7 382.4,429.7 	"/>
	<rect x="308.9" y="382.7" class="st0" width="77.2" height="42.5"/>
	<polygon class="st1" points="382.4,420.5 375.8,420.5 375.8,393.8 316.4,393.8 316.4,387.2 382.4,387.2 	"/>
	<rect x="308.9" y="340.2" class="st0" width="77.2" height="42.5"/>
	<polygon class="st1" points="382.4,377.9 375.8,377.9 375.8,351.2 316.4,351.2 316.4,344.7 382.4,344.7 	"/>
	<rect x="386.1" y="467.7" class="st0" width="77.2" height="42.5"/>
	<polygon class="st1" points="459.6,505.5 453,505.5 453,478.8 393.6,478.8 393.6,472.3 459.6,472.3 	"/>
	<rect x="386.1" y="425.2" class="st0" width="77.2" height="42.5"/>
	<polygon class="st1" points="459.6,463 453,463 453,436.3 393.6,436.3 393.6,429.7 459.6,429.7 	"/>
	<rect x="386.1" y="382.7" class="st0" width="77.2" height="42.5"/>
	<polygon class="st1" points="459.6,420.5 453,420.5 453,393.8 393.6,393.8 393.6,387.2 459.6,387.2 	"/>
	<rect x="386.1" y="340.2" class="st0" width="77.2" height="42.5"/>
	<polygon class="st1" points="459.6,377.9 453,377.9 453,351.2 393.6,351.2 393.6,344.7 459.6,344.7 	"/>
	<rect x="463.3" y="467.7" class="st0" width="77.2" height="42.5"/>
	<polygon class="st1" points="536.8,505.5 530.3,505.5 530.3,478.8 470.8,478.8 470.8,472.3 536.8,472.3 	"/>
	<rect x="463.3" y="425.2" class="st0" width="77.2" height="42.5"/>
	<polygon class="st1" points="536.8,463 530.3,463 530.3,436.3 470.8,436.3 470.8,429.7 536.8,429.7 	"/>
	<rect x="463.3" y="382.7" class="st0" width="77.2" height="42.5"/>
	<polygon class="st1" points="536.8,420.5 530.3,420.5 530.3,393.8 470.8,393.8 470.8,387.2 536.8,387.2 	"/>
	<rect x="463.3" y="340.2" class="st0" width="77.2" height="42.5"/>
	<polygon class="st1" points="536.8,377.9 530.3,377.9 530.3,351.2 470.8,351.2 470.8,344.7 536.8,344.7 	"/>
	<rect x="540.6" y="467.7" class="st0" width="77.2" height="42.5"/>
	<polygon class="st1" points="614,505.5 607.5,505.5 607.5,478.8 548.1,478.8 548.1,472.3 614,472.3 	"/>
	<rect x="540.6" y="425.2" class="st0" width="77.2" height="42.5"/>
	<polygon class="st1" points="614,463 607.5,463 607.5,436.3 548.1,436.3 548.1,429.7 614,429.7 	"/>
	<rect x="540.6" y="382.7" class="st0" width="77.2" height="42.5"/>
	<polygon class="st1" points="614,420.5 607.5,420.5 607.5,393.8 548.1,393.8 548.1,387.2 614,387.2 	"/>
	<rect x="540.6" y="340.2" class="st0" width="77.2" height="42.5"/>
	<polygon class="st1" points="614,377.9 607.5,377.9 607.5,351.2 548.1,351.2 548.1,344.7 614,344.7 	"/>
	<rect y="297.6" class="st0" width="77.2" height="42.5"/>
	<polygon class="st1" points="73.5,335.4 66.9,335.4 66.9,308.7 7.5,308.7 7.5,302.2 73.5,302.2 	"/>
	<rect y="255.1" class="st0" width="77.2" height="42.5"/>
	<polygon class="st1" points="73.5,292.9 66.9,292.9 66.9,266.2 7.5,266.2 7.5,259.7 73.5,259.7 	"/>
	<rect y="212.6" class="st0" width="77.2" height="42.5"/>
	<polygon class="st1" points="73.5,250.4 66.9,250.4 66.9,223.7 7.5,223.7 7.5,217.1 73.5,217.1 	"/>
	<rect y="170.1" class="st0" width="77.2" height="42.5"/>
	<polygon class="st1" points="73.5,207.8 66.9,207.8 66.9,181.2 7.5,181.2 7.5,174.6 73.5,174.6 	"/>
	<rect x="77.2" y="297.6" class="st0" width="77.2" height="42.5"/>
	<polygon class="st1" points="150.7,335.4 144.1,335.4 144.1,308.7 84.7,308.7 84.7,302.2 150.7,302.2 	"/>
	<rect x="77.2" y="255.1" class="st0" width="77.2" height="42.5"/>
	<polygon class="st1" points="150.7,292.9 144.1,292.9 144.1,266.2 84.7,266.2 84.7,259.7 150.7,259.7 	"/>
	<rect x="77.2" y="212.6" class="st0" width="77.2" height="42.5"/>
	<polygon class="st1" points="150.7,250.4 144.1,250.4 144.1,223.7 84.7,223.7 84.7,217.1 150.7,217.1 	"/>
	<rect x="77.2" y="170.1" class="st0" width="77.2" height="42.5"/>
	<polygon class="st1" points="150.7,207.8 144.1,207.8 144.1,181.2 84.7,181.2 84.7,174.6 150.7,174.6 	"/>
	<rect x="154.4" y="297.6" class="st0" width="77.2" height="42.5"/>
	<polygon class="st1" points="227.9,335.4 221.4,335.4 221.4,308.7 161.9,308.7 161.9,302.2 227.9,302.2 	"/>
	<rect x="154.4" y="255.1" class="st0" width="77.2" height="42.5"/>
	<polygon class="st1" points="227.9,292.9 221.4,292.9 221.4,266.2 161.9,266.2 161.9,259.7 227.9,259.7 	"/>
	<rect x="154.4" y="212.6" class="st0" width="77.2" height="42.5"/>
	<polygon class="st1" points="227.9,250.4 221.4,250.4 221.4,223.7 161.9,223.7 161.9,217.1 227.9,217.1 	"/>
	<rect x="154.4" y="170.1" class="st0" width="77.2" height="42.5"/>
	<polygon class="st1" points="227.9,207.8 221.4,207.8 221.4,181.2 161.9,181.2 161.9,174.6 227.9,174.6 	"/>
	<rect x="231.7" y="297.6" class="st0" width="77.2" height="42.5"/>
	<polygon class="st1" points="305.1,335.4 298.6,335.4 298.6,308.7 239.2,308.7 239.2,302.2 305.1,302.2 	"/>
	<rect x="231.7" y="255.1" class="st0" width="77.2" height="42.5"/>
	<polygon class="st1" points="305.1,292.9 298.6,292.9 298.6,266.2 239.2,266.2 239.2,259.7 305.1,259.7 	"/>
	<rect x="231.7" y="212.6" class="st0" width="77.2" height="42.5"/>
	<polygon class="st1" points="305.1,250.4 298.6,250.4 298.6,223.7 239.2,223.7 239.2,217.1 305.1,217.1 	"/>
	<rect x="231.7" y="170.1" class="st0" width="77.2" height="42.5"/>
	<polygon class="st1" points="305.1,207.8 298.6,207.8 298.6,181.2 239.2,181.2 239.2,174.6 305.1,174.6 	"/>
	<rect y="127.6" class="st0" width="77.2" height="42.5"/>
	<polygon class="st1" points="73.5,165.3 66.9,165.3 66.9,138.6 7.5,138.6 7.5,132.1 73.5,132.1 	"/>
	<rect y="85" class="st0" width="77.2" height="42.5"/>
	<polygon class="st1" points="73.5,122.8 66.9,122.8 66.9,96.1 7.5,96.1 7.5,89.6 73.5,89.6 	"/>
	<rect y="42.5" class="st0" width="77.2" height="42.5"/>
	<polygon class="st1" points="73.5,80.3 66.9,80.3 66.9,53.6 7.5,53.6 7.5,47 73.5,47 	"/>
	<rect class="st0" width="77.2" height="42.5"/>
	<polygon class="st1" points="73.5,37.8 66.9,37.8 66.9,11.1 7.5,11.1 7.5,4.5 73.5,4.5 	"/>
	<rect x="77.2" y="127.6" class="st0" width="77.2" height="42.5"/>
	<polygon class="st1" points="150.7,165.3 144.1,165.3 144.1,138.6 84.7,138.6 84.7,132.1 150.7,132.1 	"/>
	<rect x="77.2" y="85" class="st0" width="77.2" height="42.5"/>
	<polygon class="st1" points="150.7,122.8 144.1,122.8 144.1,96.1 84.7,96.1 84.7,89.6 150.7,89.6 	"/>
	<rect x="77.2" y="42.5" class="st0" width="77.2" height="42.5"/>
	<polygon class="st1" points="150.7,80.3 144.1,80.3 144.1,53.6 84.7,53.6 84.7,47 150.7,47 	"/>
	<rect x="77.2" class="st0" width="77.2" height="42.5"/>
	<polygon class="st1" points="150.7,37.8 144.1,37.8 144.1,11.1 84.7,11.1 84.7,4.5 150.7,4.5 	"/>
	<rect x="154.4" y="127.6" class="st0" width="77.2" height="42.5"/>
	<polygon class="st1" points="227.9,165.3 221.4,165.3 221.4,138.6 161.9,138.6 161.9,132.1 227.9,132.1 	"/>
	<rect x="154.4" y="85" class="st0" width="77.2" height="42.5"/>
	<polygon class="st1" points="227.9,122.8 221.4,122.8 221.4,96.1 161.9,96.1 161.9,89.6 227.9,89.6 	"/>
	<rect x="154.4" y="42.5" class="st0" width="77.2" height="42.5"/>
	<polygon class="st1" points="227.9,80.3 221.4,80.3 221.4,53.6 161.9,53.6 161.9,47 227.9,47 	"/>
	<rect x="154.4" class="st0" width="77.2" height="42.5"/>
	<polygon class="st1" points="227.9,37.8 221.4,37.8 221.4,11.1 161.9,11.1 161.9,4.5 227.9,4.5 	"/>
	<rect x="231.7" y="127.6" class="st0" width="77.2" height="42.5"/>
	<polygon class="st1" points="305.1,165.3 298.6,165.3 298.6,138.6 239.2,138.6 239.2,132.1 305.1,132.1 	"/>
	<rect x="231.7" y="85" class="st0" width="77.2" height="42.5"/>
	<polygon class="st1" points="305.1,122.8 298.6,122.8 298.6,96.1 239.2,96.1 239.2,89.6 305.1,89.6 	"/>
	<rect x="231.7" y="42.5" class="st0" width="77.2" height="42.5"/>
	<polygon class="st1" points="305.1,80.3 298.6,80.3 298.6,53.6 239.2,53.6 239.2,47 305.1,47 	"/>
	<rect x="231.7" class="st0" width="77.2" height="42.5"/>
	<polygon class="st1" points="305.1,37.8 298.6,37.8 298.6,11.1 239.2,11.1 239.2,4.5 305.1,4.5 	"/>
	<rect x="308.9" y="297.6" class="st0" width="77.2" height="42.5"/>
	<polygon class="st1" points="382.4,335.4 375.8,335.4 375.8,308.7 316.4,308.7 316.4,302.2 382.4,302.2 	"/>
	<rect x="308.9" y="255.1" class="st0" width="77.2" height="42.5"/>
	<polygon class="st1" points="382.4,292.9 375.8,292.9 375.8,266.2 316.4,266.2 316.4,259.7 382.4,259.7 	"/>
	<rect x="308.9" y="212.6" class="st0" width="77.2" height="42.5"/>
	<polygon class="st1" points="382.4,250.4 375.8,250.4 375.8,223.7 316.4,223.7 316.4,217.1 382.4,217.1 	"/>
	<rect x="308.9" y="170.1" class="st0" width="77.2" height="42.5"/>
	<polygon class="st1" points="382.4,207.8 375.8,207.8 375.8,181.2 316.4,181.2 316.4,174.6 382.4,174.6 	"/>
	<rect x="386.1" y="297.6" class="st0" width="77.2" height="42.5"/>
	<polygon class="st1" points="459.6,335.4 453,335.4 453,308.7 393.6,308.7 393.6,302.2 459.6,302.2 	"/>
	<rect x="386.1" y="255.1" class="st0" width="77.2" height="42.5"/>
	<polygon class="st1" points="459.6,292.9 453,292.9 453,266.2 393.6,266.2 393.6,259.7 459.6,259.7 	"/>
	<rect x="386.1" y="212.6" class="st0" width="77.2" height="42.5"/>
	<polygon class="st1" points="459.6,250.4 453,250.4 453,223.7 393.6,223.7 393.6,217.1 459.6,217.1 	"/>
	<rect x="386.1" y="170.1" class="st0" width="77.2" height="42.5"/>
	<polygon class="st1" points="459.6,207.8 453,207.8 453,181.2 393.6,181.2 393.6,174.6 459.6,174.6 	"/>
	<rect x="463.3" y="297.6" class="st0" width="77.2" height="42.5"/>
	<polygon class="st1" points="536.8,335.4 530.3,335.4 530.3,308.7 470.8,308.7 470.8,302.2 536.8,302.2 	"/>
	<rect x="463.3" y="255.1" class="st0" width="77.2" height="42.5"/>
	<polygon class="st1" points="536.8,292.9 530.3,292.9 530.3,266.2 470.8,266.2 470.8,259.7 536.8,259.7 	"/>
	<rect x="463.3" y="212.6" class="st0" width="77.2" height="42.5"/>
	<polygon class="st1" points="536.8,250.4 530.3,250.4 530.3,223.7 470.8,223.7 470.8,217.1 536.8,217.1 	"/>
	<rect x="463.3" y="170.1" class="st0" width="77.2" height="42.5"/>
	<polygon class="st1" points="536.8,207.8 530.3,207.8 530.3,181.2 470.8,181.2 470.8,174.6 536.8,174.6 	"/>
	<rect x="540.6" y="297.6" class="st0" width="77.2" height="42.5"/>
	<polygon class="st1" points="614,335.4 607.5,335.4 607.5,308.7 548.1,308.7 548.1,302.2 614,302.2 	"/>
	<rect x="540.6" y="255.1" class="st0" width="77.2" height="42.5"/>
	<polygon class="st1" points="614,292.9 607.5,292.9 607.5,266.2 548.1,266.2 548.1,259.7 614,259.7 	"/>
	<rect x="540.6" y="212.6" class="st0" width="77.2" height="42.5"/>
	<polygon class="st1" points="614,250.4 607.5,250.4 607.5,223.7 548.1,223.7 548.1,217.1 614,217.1 	"/>
	<rect x="540.6" y="170.1" class="st0" width="77.2" height="42.5"/>
	<polygon class="st1" points="614,207.8 607.5,207.8 607.5,181.2 548.1,181.2 548.1,174.6 614,174.6 	"/>
	<rect x="308.9" y="127.6" class="st0" width="77.2" height="42.5"/>
	<polygon class="st1" points="382.4,165.3 375.8,165.3 375.8,138.6 316.4,138.6 316.4,132.1 382.4,132.1 	"/>
	<rect x="308.9" y="85" class="st0" width="77.2" height="42.5"/>
	<polygon class="st1" points="382.4,122.8 375.8,122.8 375.8,96.1 316.4,96.1 316.4,89.6 382.4,89.6 	"/>
	<rect x="308.9" y="42.5" class="st0" width="77.2" height="42.5"/>
	<polygon class="st1" points="382.4,80.3 375.8,80.3 375.8,53.6 316.4,53.6 316.4,47 382.4,47 	"/>
	<rect x="308.9" class="st0" width="77.2" height="42.5"/>
	<polygon class="st1" points="382.4,37.8 375.8,37.8 375.8,11.1 316.4,11.1 316.4,4.5 382.4,4.5 	"/>
	<rect x="386.1" y="127.6" class="st0" width="77.2" height="42.5"/>
	<polygon class="st1" points="459.6,165.3 453,165.3 453,138.6 393.6,138.6 393.6,132.1 459.6,132.1 	"/>
	<rect x="386.1" y="85" class="st0" width="77.2" height="42.5"/>
	<polygon class="st1" points="459.6,122.8 453,122.8 453,96.1 393.6,96.1 393.6,89.6 459.6,89.6 	"/>
	<rect x="386.1" y="42.5" class="st0" width="77.2" height="42.5"/>
	<polygon class="st1" points="459.6,80.3 453,80.3 453,53.6 393.6,53.6 393.6,47 459.6,47 	"/>
	<rect x="386.1" class="st0" width="77.2" height="42.5"/>
	<polygon class="st1" points="459.6,37.8 453,37.8 453,11.1 393.6,11.1 393.6,4.5 459.6,4.5 	"/>
	<rect x="463.3" y="127.6" class="st0" width="77.2" height="42.5"/>
	<polygon class="st1" points="536.8,165.3 530.3,165.3 530.3,138.6 470.8,138.6 470.8,132.1 536.8,132.1 	"/>
	<rect x="463.3" y="85" class="st0" width="77.2" height="42.5"/>
	<polygon class="st1" points="536.8,122.8 530.3,122.8 530.3,96.1 470.8,96.1 470.8,89.6 536.8,89.6 	"/>
	<rect x="463.3" y="42.5" class="st0" width="77.2" height="42.5"/>
	<polygon class="st1" points="536.8,80.3 530.3,80.3 530.3,53.6 470.8,53.6 470.8,47 536.8,47 	"/>
	<rect x="463.3" class="st0" width="77.2" height="42.5"/>
	<polygon class="st1" points="536.8,37.8 530.3,37.8 530.3,11.1 470.8,11.1 470.8,4.5 536.8,4.5 	"/>
	<rect x="540.6" y="127.6" class="st0" width="77.2" height="42.5"/>
	<polygon class="st1" points="614,165.3 607.5,165.3 607.5,138.6 548.1,138.6 548.1,132.1 614,132.1 	"/>
	<rect x="540.6" y="85" class="st0" width="77.2" height="42.5"/>
	<polygon class="st1" points="614,122.8 607.5,122.8 607.5,96.1 548.1,96.1 548.1,89.6 614,89.6 	"/>
	<rect x="540.6" y="42.5" class="st0" width="77.2" height="42.5"/>
	<polygon class="st1" points="614,80.3 607.5,80.3 607.5,53.6 548.1,53.6 548.1,47 614,47 	"/>
	<rect x="540.6" class="st0" width="77.2" height="42.5"/>
	<polygon class="st1" points="614,37.8 607.5,37.8 607.5,11.1 548.1,11.1 548.1,4.5 614,4.5 	"/>
	<rect x="617.8" y="637.8" class="st0" width="77.2" height="42.5"/>
	<polygon class="st1" points="691.3,675.6 684.7,675.6 684.7,648.9 625.3,648.9 625.3,642.3 691.3,642.3 	"/>
	<rect x="617.8" y="595.3" class="st0" width="77.2" height="42.5"/>
	<polygon class="st1" points="691.3,633 684.7,633 684.7,606.4 625.3,606.4 625.3,599.8 691.3,599.8 	"/>
	<rect x="617.8" y="552.8" class="st0" width="77.2" height="42.5"/>
	<polygon class="st1" points="691.3,590.5 684.7,590.5 684.7,563.9 625.3,563.9 625.3,557.3 691.3,557.3 	"/>
	<rect x="617.8" y="510.2" class="st0" width="77.2" height="42.5"/>
	<polygon class="st1" points="691.3,548 684.7,548 684.7,521.3 625.3,521.3 625.3,514.8 691.3,514.8 	"/>
	<rect x="695" y="637.8" class="st0" width="77.2" height="42.5"/>
	<polygon class="st1" points="768.5,675.6 761.9,675.6 761.9,648.9 702.5,648.9 702.5,642.3 768.5,642.3 	"/>
	<rect x="695" y="595.3" class="st0" width="77.2" height="42.5"/>
	<polygon class="st1" points="768.5,633 761.9,633 761.9,606.4 702.5,606.4 702.5,599.8 768.5,599.8 	"/>
	<rect x="695" y="552.8" class="st0" width="77.2" height="42.5"/>
	<polygon class="st1" points="768.5,590.5 761.9,590.5 761.9,563.9 702.5,563.9 702.5,557.3 768.5,557.3 	"/>
	<rect x="695" y="510.2" class="st0" width="77.2" height="42.5"/>
	<polygon class="st1" points="768.5,548 761.9,548 761.9,521.3 702.5,521.3 702.5,514.8 768.5,514.8 	"/>
	<rect x="772.2" y="637.8" class="st0" width="77.2" height="42.5"/>
	<polygon class="st1" points="845.7,675.6 839.2,675.6 839.2,648.9 779.7,648.9 779.7,642.3 845.7,642.3 	"/>
	<rect x="772.2" y="595.3" class="st0" width="77.2" height="42.5"/>
	<polygon class="st1" points="845.7,633 839.2,633 839.2,606.4 779.7,606.4 779.7,599.8 845.7,599.8 	"/>
	<rect x="772.2" y="552.8" class="st0" width="77.2" height="42.5"/>
	<polygon class="st1" points="845.7,590.5 839.2,590.5 839.2,563.9 779.7,563.9 779.7,557.3 845.7,557.3 	"/>
	<rect x="772.2" y="510.2" class="st0" width="77.2" height="42.5"/>
	<polygon class="st1" points="845.7,548 839.2,548 839.2,521.3 779.7,521.3 779.7,514.8 845.7,514.8 	"/>
	<rect x="849.5" y="637.8" class="st0" width="77.2" height="42.5"/>
	<polygon class="st1" points="922.9,675.6 916.4,675.6 916.4,648.9 857,648.9 857,642.3 922.9,642.3 	"/>
	<rect x="849.5" y="595.3" class="st0" width="77.2" height="42.5"/>
	<polygon class="st1" points="922.9,633 916.4,633 916.4,606.4 857,606.4 857,599.8 922.9,599.8 	"/>
	<rect x="849.5" y="552.8" class="st0" width="77.2" height="42.5"/>
	<polygon class="st1" points="922.9,590.5 916.4,590.5 916.4,563.9 857,563.9 857,557.3 922.9,557.3 	"/>
	<rect x="849.5" y="510.2" class="st0" width="77.2" height="42.5"/>
	<polygon class="st1" points="922.9,548 916.4,548 916.4,521.3 857,521.3 857,514.8 922.9,514.8 	"/>
	<rect x="617.8" y="467.7" class="st0" width="77.2" height="42.5"/>
	<polygon class="st1" points="691.3,505.5 684.7,505.5 684.7,478.8 625.3,478.8 625.3,472.3 691.3,472.3 	"/>
	<rect x="617.8" y="425.2" class="st0" width="77.2" height="42.5"/>
	<polygon class="st1" points="691.3,463 684.7,463 684.7,436.3 625.3,436.3 625.3,429.7 691.3,429.7 	"/>
	<rect x="617.8" y="382.7" class="st0" width="77.2" height="42.5"/>
	<polygon class="st1" points="691.3,420.5 684.7,420.5 684.7,393.8 625.3,393.8 625.3,387.2 691.3,387.2 	"/>
	<rect x="617.8" y="340.2" class="st0" width="77.2" height="42.5"/>
	<polygon class="st1" points="691.3,377.9 684.7,377.9 684.7,351.2 625.3,351.2 625.3,344.7 691.3,344.7 	"/>
	<rect x="695" y="467.7" class="st0" width="77.2" height="42.5"/>
	<polygon class="st1" points="768.5,505.5 761.9,505.5 761.9,478.8 702.5,478.8 702.5,472.3 768.5,472.3 	"/>
	<rect x="695" y="425.2" class="st0" width="77.2" height="42.5"/>
	<polygon class="st1" points="768.5,463 761.9,463 761.9,436.3 702.5,436.3 702.5,429.7 768.5,429.7 	"/>
	<rect x="695" y="382.7" class="st0" width="77.2" height="42.5"/>
	<polygon class="st1" points="768.5,420.5 761.9,420.5 761.9,393.8 702.5,393.8 702.5,387.2 768.5,387.2 	"/>
	<rect x="695" y="340.2" class="st0" width="77.2" height="42.5"/>
	<polygon class="st1" points="768.5,377.9 761.9,377.9 761.9,351.2 702.5,351.2 702.5,344.7 768.5,344.7 	"/>
	<rect x="772.2" y="467.7" class="st0" width="77.2" height="42.5"/>
	<polygon class="st1" points="845.7,505.5 839.2,505.5 839.2,478.8 779.7,478.8 779.7,472.3 845.7,472.3 	"/>
	<rect x="772.2" y="425.2" class="st0" width="77.2" height="42.5"/>
	<polygon class="st1" points="845.7,463 839.2,463 839.2,436.3 779.7,436.3 779.7,429.7 845.7,429.7 	"/>
	<rect x="772.2" y="382.7" class="st0" width="77.2" height="42.5"/>
	<polygon class="st1" points="845.7,420.5 839.2,420.5 839.2,393.8 779.7,393.8 779.7,387.2 845.7,387.2 	"/>
	<rect x="772.2" y="340.2" class="st0" width="77.2" height="42.5"/>
	<polygon class="st1" points="845.7,377.9 839.2,377.9 839.2,351.2 779.7,351.2 779.7,344.7 845.7,344.7 	"/>
	<rect x="849.5" y="467.7" class="st0" width="77.2" height="42.5"/>
	<polygon class="st1" points="922.9,505.5 916.4,505.5 916.4,478.8 857,478.8 857,472.3 922.9,472.3 	"/>
	<rect x="849.5" y="425.2" class="st0" width="77.2" height="42.5"/>
	<polygon class="st1" points="922.9,463 916.4,463 916.4,436.3 857,436.3 857,429.7 922.9,429.7 	"/>
	<rect x="849.5" y="382.7" class="st0" width="77.2" height="42.5"/>
	<polygon class="st1" points="922.9,420.5 916.4,420.5 916.4,393.8 857,393.8 857,387.2 922.9,387.2 	"/>
	<rect x="849.5" y="340.2" class="st0" width="77.2" height="42.5"/>
	<polygon class="st1" points="922.9,377.9 916.4,377.9 916.4,351.2 857,351.2 857,344.7 922.9,344.7 	"/>
	<rect x="926.7" y="637.8" class="st0" width="77.2" height="42.5"/>
	<polygon class="st1" points="1000.2,675.6 993.6,675.6 993.6,648.9 934.2,648.9 934.2,642.3 1000.2,642.3 	"/>
	<rect x="926.7" y="595.3" class="st0" width="77.2" height="42.5"/>
	<polygon class="st1" points="1000.2,633 993.6,633 993.6,606.4 934.2,606.4 934.2,599.8 1000.2,599.8 	"/>
	<rect x="926.7" y="552.8" class="st0" width="77.2" height="42.5"/>
	<polygon class="st1" points="1000.2,590.5 993.6,590.5 993.6,563.9 934.2,563.9 934.2,557.3 1000.2,557.3 	"/>
	<rect x="926.7" y="510.2" class="st0" width="77.2" height="42.5"/>
	<polygon class="st1" points="1000.2,548 993.6,548 993.6,521.3 934.2,521.3 934.2,514.8 1000.2,514.8 	"/>
	<rect x="1003.9" y="637.8" class="st0" width="77.2" height="42.5"/>
	<polygon class="st1" points="1077.4,675.6 1070.8,675.6 1070.8,648.9 1011.4,648.9 1011.4,642.3 1077.4,642.3 	"/>
	<rect x="1003.9" y="595.3" class="st0" width="77.2" height="42.5"/>
	<polygon class="st1" points="1077.4,633 1070.8,633 1070.8,606.4 1011.4,606.4 1011.4,599.8 1077.4,599.8 	"/>
	<rect x="1003.9" y="552.8" class="st0" width="77.2" height="42.5"/>
	<polygon class="st1" points="1077.4,590.5 1070.8,590.5 1070.8,563.9 1011.4,563.9 1011.4,557.3 1077.4,557.3 	"/>
	<rect x="1003.9" y="510.2" class="st0" width="77.2" height="42.5"/>
	<polygon class="st1" points="1077.4,548 1070.8,548 1070.8,521.3 1011.4,521.3 1011.4,514.8 1077.4,514.8 	"/>
	<rect x="1081.1" y="637.8" class="st0" width="77.2" height="42.5"/>
	<polygon class="st1" points="1154.6,675.6 1148.1,675.6 1148.1,648.9 1088.6,648.9 1088.6,642.3 1154.6,642.3 	"/>
	<rect x="1081.1" y="595.3" class="st0" width="77.2" height="42.5"/>
	<polygon class="st1" points="1154.6,633 1148.1,633 1148.1,606.4 1088.6,606.4 1088.6,599.8 1154.6,599.8 	"/>
	<rect x="1081.1" y="552.8" class="st0" width="77.2" height="42.5"/>
	<polygon class="st1" points="1154.6,590.5 1148.1,590.5 1148.1,563.9 1088.6,563.9 1088.6,557.3 1154.6,557.3 	"/>
	<rect x="1081.1" y="510.2" class="st0" width="77.2" height="42.5"/>
	<polygon class="st1" points="1154.6,548 1148.1,548 1148.1,521.3 1088.6,521.3 1088.6,514.8 1154.6,514.8 	"/>
	<rect x="1158.3" y="637.8" class="st0" width="77.2" height="42.5"/>
	<polygon class="st1" points="1231.8,675.6 1225.3,675.6 1225.3,648.9 1165.8,648.9 1165.8,642.3 1231.8,642.3 	"/>
	<rect x="1158.3" y="595.3" class="st0" width="77.2" height="42.5"/>
	<polygon class="st1" points="1231.8,633 1225.3,633 1225.3,606.4 1165.8,606.4 1165.8,599.8 1231.8,599.8 	"/>
	<rect x="1158.3" y="552.8" class="st0" width="77.2" height="42.5"/>
	<polygon class="st1" points="1231.8,590.5 1225.3,590.5 1225.3,563.9 1165.8,563.9 1165.8,557.3 1231.8,557.3 	"/>
	<rect x="1158.3" y="510.2" class="st0" width="77.2" height="42.5"/>
	<polygon class="st1" points="1231.8,548 1225.3,548 1225.3,521.3 1165.8,521.3 1165.8,514.8 1231.8,514.8 	"/>
	<rect x="926.7" y="467.7" class="st0" width="77.2" height="42.5"/>
	<polygon class="st1" points="1000.2,505.5 993.6,505.5 993.6,478.8 934.2,478.8 934.2,472.3 1000.2,472.3 	"/>
	<rect x="926.7" y="425.2" class="st0" width="77.2" height="42.5"/>
	<polygon class="st1" points="1000.2,463 993.6,463 993.6,436.3 934.2,436.3 934.2,429.7 1000.2,429.7 	"/>
	<rect x="926.7" y="382.7" class="st0" width="77.2" height="42.5"/>
	<polygon class="st1" points="1000.2,420.5 993.6,420.5 993.6,393.8 934.2,393.8 934.2,387.2 1000.2,387.2 	"/>
	<rect x="926.7" y="340.2" class="st0" width="77.2" height="42.5"/>
	<polygon class="st1" points="1000.2,377.9 993.6,377.9 993.6,351.2 934.2,351.2 934.2,344.7 1000.2,344.7 	"/>
	<rect x="1003.9" y="467.7" class="st0" width="77.2" height="42.5"/>
	<polygon class="st1" points="1077.4,505.5 1070.8,505.5 1070.8,478.8 1011.4,478.8 1011.4,472.3 1077.4,472.3 	"/>
	<rect x="1003.9" y="425.2" class="st0" width="77.2" height="42.5"/>
	<polygon class="st1" points="1077.4,463 1070.8,463 1070.8,436.3 1011.4,436.3 1011.4,429.7 1077.4,429.7 	"/>
	<rect x="1003.9" y="382.7" class="st0" width="77.2" height="42.5"/>
	<polygon class="st1" points="1077.4,420.5 1070.8,420.5 1070.8,393.8 1011.4,393.8 1011.4,387.2 1077.4,387.2 	"/>
	<rect x="1003.9" y="340.2" class="st0" width="77.2" height="42.5"/>
	<polygon class="st1" points="1077.4,377.9 1070.8,377.9 1070.8,351.2 1011.4,351.2 1011.4,344.7 1077.4,344.7 	"/>
	<rect x="1081.1" y="467.7" class="st0" width="77.2" height="42.5"/>
	<polygon class="st1" points="1154.6,505.5 1148.1,505.5 1148.1,478.8 1088.6,478.8 1088.6,472.3 1154.6,472.3 	"/>
	<rect x="1081.1" y="425.2" class="st0" width="77.2" height="42.5"/>
	<polygon class="st1" points="1154.6,463 1148.1,463 1148.1,436.3 1088.6,436.3 1088.6,429.7 1154.6,429.7 	"/>
	<rect x="1081.1" y="382.7" class="st0" width="77.2" height="42.5"/>
	<polygon class="st1" points="1154.6,420.5 1148.1,420.5 1148.1,393.8 1088.6,393.8 1088.6,387.2 1154.6,387.2 	"/>
	<rect x="1081.1" y="340.2" class="st0" width="77.2" height="42.5"/>
	<polygon class="st1" points="1154.6,377.9 1148.1,377.9 1148.1,351.2 1088.6,351.2 1088.6,344.7 1154.6,344.7 	"/>
	<rect x="1158.3" y="467.7" class="st0" width="77.2" height="42.5"/>
	<polygon class="st1" points="1231.8,505.5 1225.3,505.5 1225.3,478.8 1165.8,478.8 1165.8,472.3 1231.8,472.3 	"/>
	<rect x="1158.3" y="425.2" class="st0" width="77.2" height="42.5"/>
	<polygon class="st1" points="1231.8,463 1225.3,463 1225.3,436.3 1165.8,436.3 1165.8,429.7 1231.8,429.7 	"/>
	<rect x="1158.3" y="382.7" class="st0" width="77.2" height="42.5"/>
	<polygon class="st1" points="1231.8,420.5 1225.3,420.5 1225.3,393.8 1165.8,393.8 1165.8,387.2 1231.8,387.2 	"/>
	<rect x="1158.3" y="340.2" class="st0" width="77.2" height="42.5"/>
	<polygon class="st1" points="1231.8,377.9 1225.3,377.9 1225.3,351.2 1165.8,351.2 1165.8,344.7 1231.8,344.7 	"/>
	<rect x="617.8" y="297.6" class="st0" width="77.2" height="42.5"/>
	<polygon class="st1" points="691.3,335.4 684.7,335.4 684.7,308.7 625.3,308.7 625.3,302.2 691.3,302.2 	"/>
	<rect x="617.8" y="255.1" class="st0" width="77.2" height="42.5"/>
	<polygon class="st1" points="691.3,292.9 684.7,292.9 684.7,266.2 625.3,266.2 625.3,259.7 691.3,259.7 	"/>
	<rect x="617.8" y="212.6" class="st0" width="77.2" height="42.5"/>
	<polygon class="st1" points="691.3,250.4 684.7,250.4 684.7,223.7 625.3,223.7 625.3,217.1 691.3,217.1 	"/>
	<rect x="617.8" y="170.1" class="st0" width="77.2" height="42.5"/>
	<polygon class="st1" points="691.3,207.8 684.7,207.8 684.7,181.2 625.3,181.2 625.3,174.6 691.3,174.6 	"/>
	<rect x="695" y="297.6" class="st0" width="77.2" height="42.5"/>
	<polygon class="st1" points="768.5,335.4 761.9,335.4 761.9,308.7 702.5,308.7 702.5,302.2 768.5,302.2 	"/>
	<rect x="695" y="255.1" class="st0" width="77.2" height="42.5"/>
	<polygon class="st1" points="768.5,292.9 761.9,292.9 761.9,266.2 702.5,266.2 702.5,259.7 768.5,259.7 	"/>
	<rect x="695" y="212.6" class="st0" width="77.2" height="42.5"/>
	<polygon class="st1" points="768.5,250.4 761.9,250.4 761.9,223.7 702.5,223.7 702.5,217.1 768.5,217.1 	"/>
	<rect x="695" y="170.1" class="st0" width="77.2" height="42.5"/>
	<polygon class="st1" points="768.5,207.8 761.9,207.8 761.9,181.2 702.5,181.2 702.5,174.6 768.5,174.6 	"/>
	<rect x="772.2" y="297.6" class="st0" width="77.2" height="42.5"/>
	<polygon class="st1" points="845.7,335.4 839.2,335.4 839.2,308.7 779.7,308.7 779.7,302.2 845.7,302.2 	"/>
	<rect x="772.2" y="255.1" class="st0" width="77.2" height="42.5"/>
	<polygon class="st1" points="845.7,292.9 839.2,292.9 839.2,266.2 779.7,266.2 779.7,259.7 845.7,259.7 	"/>
	<rect x="772.2" y="212.6" class="st0" width="77.2" height="42.5"/>
	<polygon class="st1" points="845.7,250.4 839.2,250.4 839.2,223.7 779.7,223.7 779.7,217.1 845.7,217.1 	"/>
	<rect x="772.2" y="170.1" class="st0" width="77.2" height="42.5"/>
	<polygon class="st1" points="845.7,207.8 839.2,207.8 839.2,181.2 779.7,181.2 779.7,174.6 845.7,174.6 	"/>
	<rect x="849.5" y="297.6" class="st0" width="77.2" height="42.5"/>
	<polygon class="st1" points="922.9,335.4 916.4,335.4 916.4,308.7 857,308.7 857,302.2 922.9,302.2 	"/>
	<rect x="849.5" y="255.1" class="st0" width="77.2" height="42.5"/>
	<polygon class="st1" points="922.9,292.9 916.4,292.9 916.4,266.2 857,266.2 857,259.7 922.9,259.7 	"/>
	<rect x="849.5" y="212.6" class="st0" width="77.2" height="42.5"/>
	<polygon class="st1" points="922.9,250.4 916.4,250.4 916.4,223.7 857,223.7 857,217.1 922.9,217.1 	"/>
	<rect x="849.5" y="170.1" class="st0" width="77.2" height="42.5"/>
	<polygon class="st1" points="922.9,207.8 916.4,207.8 916.4,181.2 857,181.2 857,174.6 922.9,174.6 	"/>
	<rect x="617.8" y="127.6" class="st0" width="77.2" height="42.5"/>
	<polygon class="st1" points="691.3,165.3 684.7,165.3 684.7,138.6 625.3,138.6 625.3,132.1 691.3,132.1 	"/>
	<rect x="617.8" y="85" class="st0" width="77.2" height="42.5"/>
	<polygon class="st1" points="691.3,122.8 684.7,122.8 684.7,96.1 625.3,96.1 625.3,89.6 691.3,89.6 	"/>
	<rect x="617.8" y="42.5" class="st0" width="77.2" height="42.5"/>
	<polygon class="st1" points="691.3,80.3 684.7,80.3 684.7,53.6 625.3,53.6 625.3,47 691.3,47 	"/>
	<rect x="617.8" class="st0" width="77.2" height="42.5"/>
	<polygon class="st1" points="691.3,37.8 684.7,37.8 684.7,11.1 625.3,11.1 625.3,4.5 691.3,4.5 	"/>
	<rect x="695" y="127.6" class="st0" width="77.2" height="42.5"/>
	<polygon class="st1" points="768.5,165.3 761.9,165.3 761.9,138.6 702.5,138.6 702.5,132.1 768.5,132.1 	"/>
	<rect x="695" y="85" class="st0" width="77.2" height="42.5"/>
	<polygon class="st1" points="768.5,122.8 761.9,122.8 761.9,96.1 702.5,96.1 702.5,89.6 768.5,89.6 	"/>
	<rect x="695" y="42.5" class="st0" width="77.2" height="42.5"/>
	<polygon class="st1" points="768.5,80.3 761.9,80.3 761.9,53.6 702.5,53.6 702.5,47 768.5,47 	"/>
	<rect x="695" class="st0" width="77.2" height="42.5"/>
	<polygon class="st1" points="768.5,37.8 761.9,37.8 761.9,11.1 702.5,11.1 702.5,4.5 768.5,4.5 	"/>
	<rect x="772.2" y="127.6" class="st0" width="77.2" height="42.5"/>
	<polygon class="st1" points="845.7,165.3 839.2,165.3 839.2,138.6 779.7,138.6 779.7,132.1 845.7,132.1 	"/>
	<rect x="772.2" y="85" class="st0" width="77.2" height="42.5"/>
	<polygon class="st1" points="845.7,122.8 839.2,122.8 839.2,96.1 779.7,96.1 779.7,89.6 845.7,89.6 	"/>
	<rect x="772.2" y="42.5" class="st0" width="77.2" height="42.5"/>
	<polygon class="st1" points="845.7,80.3 839.2,80.3 839.2,53.6 779.7,53.6 779.7,47 845.7,47 	"/>
	<rect x="772.2" class="st0" width="77.2" height="42.5"/>
	<polygon class="st1" points="845.7,37.8 839.2,37.8 839.2,11.1 779.7,11.1 779.7,4.5 845.7,4.5 	"/>
	<rect x="849.5" y="127.6" class="st0" width="77.2" height="42.5"/>
	<polygon class="st1" points="922.9,165.3 916.4,165.3 916.4,138.6 857,138.6 857,132.1 922.9,132.1 	"/>
	<rect x="849.5" y="85" class="st0" width="77.2" height="42.5"/>
	<polygon class="st1" points="922.9,122.8 916.4,122.8 916.4,96.1 857,96.1 857,89.6 922.9,89.6 	"/>
	<rect x="849.5" y="42.5" class="st0" width="77.2" height="42.5"/>
	<polygon class="st1" points="922.9,80.3 916.4,80.3 916.4,53.6 857,53.6 857,47 922.9,47 	"/>
	<rect x="849.5" class="st0" width="77.2" height="42.5"/>
	<polygon class="st1" points="922.9,37.8 916.4,37.8 916.4,11.1 857,11.1 857,4.5 922.9,4.5 	"/>
	<rect x="926.7" y="297.6" class="st0" width="77.2" height="42.5"/>
	<polygon class="st1" points="1000.2,335.4 993.6,335.4 993.6,308.7 934.2,308.7 934.2,302.2 1000.2,302.2 	"/>
	<rect x="926.7" y="255.1" class="st0" width="77.2" height="42.5"/>
	<polygon class="st1" points="1000.2,292.9 993.6,292.9 993.6,266.2 934.2,266.2 934.2,259.7 1000.2,259.7 	"/>
	<rect x="926.7" y="212.6" class="st0" width="77.2" height="42.5"/>
	<polygon class="st1" points="1000.2,250.4 993.6,250.4 993.6,223.7 934.2,223.7 934.2,217.1 1000.2,217.1 	"/>
	<rect x="926.7" y="170.1" class="st0" width="77.2" height="42.5"/>
	<polygon class="st1" points="1000.2,207.8 993.6,207.8 993.6,181.2 934.2,181.2 934.2,174.6 1000.2,174.6 	"/>
	<rect x="1003.9" y="297.6" class="st0" width="77.2" height="42.5"/>
	<polygon class="st1" points="1077.4,335.4 1070.8,335.4 1070.8,308.7 1011.4,308.7 1011.4,302.2 1077.4,302.2 	"/>
	<rect x="1003.9" y="255.1" class="st0" width="77.2" height="42.5"/>
	<polygon class="st1" points="1077.4,292.9 1070.8,292.9 1070.8,266.2 1011.4,266.2 1011.4,259.7 1077.4,259.7 	"/>
	<rect x="1003.9" y="212.6" class="st0" width="77.2" height="42.5"/>
	<polygon class="st1" points="1077.4,250.4 1070.8,250.4 1070.8,223.7 1011.4,223.7 1011.4,217.1 1077.4,217.1 	"/>
	<rect x="1003.9" y="170.1" class="st0" width="77.2" height="42.5"/>
	<polygon class="st1" points="1077.4,207.8 1070.8,207.8 1070.8,181.2 1011.4,181.2 1011.4,174.6 1077.4,174.6 	"/>
	<rect x="1081.1" y="297.6" class="st0" width="77.2" height="42.5"/>
	<polygon class="st1" points="1154.6,335.4 1148.1,335.4 1148.1,308.7 1088.6,308.7 1088.6,302.2 1154.6,302.2 	"/>
	<rect x="1081.1" y="255.1" class="st0" width="77.2" height="42.5"/>
	<polygon class="st1" points="1154.6,292.9 1148.1,292.9 1148.1,266.2 1088.6,266.2 1088.6,259.7 1154.6,259.7 	"/>
	<rect x="1081.1" y="212.6" class="st0" width="77.2" height="42.5"/>
	<polygon class="st1" points="1154.6,250.4 1148.1,250.4 1148.1,223.7 1088.6,223.7 1088.6,217.1 1154.6,217.1 	"/>
	<rect x="1081.1" y="170.1" class="st0" width="77.2" height="42.5"/>
	<polygon class="st1" points="1154.6,207.8 1148.1,207.8 1148.1,181.2 1088.6,181.2 1088.6,174.6 1154.6,174.6 	"/>
	<rect x="1158.3" y="297.6" class="st0" width="77.2" height="42.5"/>
	<polygon class="st1" points="1231.8,335.4 1225.3,335.4 1225.3,308.7 1165.8,308.7 1165.8,302.2 1231.8,302.2 	"/>
	<rect x="1158.3" y="255.1" class="st0" width="77.2" height="42.5"/>
	<polygon class="st1" points="1231.8,292.9 1225.3,292.9 1225.3,266.2 1165.8,266.2 1165.8,259.7 1231.8,259.7 	"/>
	<rect x="1158.3" y="212.6" class="st0" width="77.2" height="42.5"/>
	<polygon class="st1" points="1231.8,250.4 1225.3,250.4 1225.3,223.7 1165.8,223.7 1165.8,217.1 1231.8,217.1 	"/>
	<rect x="1158.3" y="170.1" class="st0" width="77.2" height="42.5"/>
	<polygon class="st1" points="1231.8,207.8 1225.3,207.8 1225.3,181.2 1165.8,181.2 1165.8,174.6 1231.8,174.6 	"/>
	<rect x="926.7" y="127.6" class="st0" width="77.2" height="42.5"/>
	<polygon class="st1" points="1000.2,165.3 993.6,165.3 993.6,138.6 934.2,138.6 934.2,132.1 1000.2,132.1 	"/>
	<rect x="926.7" y="85" class="st0" width="77.2" height="42.5"/>
	<polygon class="st1" points="1000.2,122.8 993.6,122.8 993.6,96.1 934.2,96.1 934.2,89.6 1000.2,89.6 	"/>
	<rect x="926.7" y="42.5" class="st0" width="77.2" height="42.5"/>
	<polygon class="st1" points="1000.2,80.3 993.6,80.3 993.6,53.6 934.2,53.6 934.2,47 1000.2,47 	"/>
	<rect x="926.7" class="st0" width="77.2" height="42.5"/>
	<polygon class="st1" points="1000.2,37.8 993.6,37.8 993.6,11.1 934.2,11.1 934.2,4.5 1000.2,4.5 	"/>
	<rect x="1003.9" y="127.6" class="st0" width="77.2" height="42.5"/>
	<polygon class="st1" points="1077.4,165.3 1070.8,165.3 1070.8,138.6 1011.4,138.6 1011.4,132.1 1077.4,132.1 	"/>
	<rect x="1003.9" y="85" class="st0" width="77.2" height="42.5"/>
	<polygon class="st1" points="1077.4,122.8 1070.8,122.8 1070.8,96.1 1011.4,96.1 1011.4,89.6 1077.4,89.6 	"/>
	<rect x="1003.9" y="42.5" class="st0" width="77.2" height="42.5"/>
	<polygon class="st1" points="1077.4,80.3 1070.8,80.3 1070.8,53.6 1011.4,53.6 1011.4,47 1077.4,47 	"/>
	<rect x="1003.9" class="st0" width="77.2" height="42.5"/>
	<polygon class="st1" points="1077.4,37.8 1070.8,37.8 1070.8,11.1 1011.4,11.1 1011.4,4.5 1077.4,4.5 	"/>
	<rect x="1081.1" y="127.6" class="st0" width="77.2" height="42.5"/>
	<polygon class="st1" points="1154.6,165.3 1148.1,165.3 1148.1,138.6 1088.6,138.6 1088.6,132.1 1154.6,132.1 	"/>
	<rect x="1081.1" y="85" class="st0" width="77.2" height="42.5"/>
	<polygon class="st1" points="1154.6,122.8 1148.1,122.8 1148.1,96.1 1088.6,96.1 1088.6,89.6 1154.6,89.6 	"/>
	<rect x="1081.1" y="42.5" class="st0" width="77.2" height="42.5"/>
	<polygon class="st1" points="1154.6,80.3 1148.1,80.3 1148.1,53.6 1088.6,53.6 1088.6,47 1154.6,47 	"/>
	<rect x="1081.1" class="st0" width="77.2" height="42.5"/>
	<polygon class="st1" points="1154.6,37.8 1148.1,37.8 1148.1,11.1 1088.6,11.1 1088.6,4.5 1154.6,4.5 	"/>
	<rect x="1158.3" y="127.6" class="st0" width="77.2" height="42.5"/>
	<polygon class="st1" points="1231.8,165.3 1225.3,165.3 1225.3,138.6 1165.8,138.6 1165.8,132.1 1231.8,132.1 	"/>
	<rect x="1158.3" y="85" class="st0" width="77.2" height="42.5"/>
	<polygon class="st1" points="1231.8,122.8 1225.3,122.8 1225.3,96.1 1165.8,96.1 1165.8,89.6 1231.8,89.6 	"/>
	<rect x="1158.3" y="42.5" class="st0" width="77.2" height="42.5"/>
	<polygon class="st1" points="1231.8,80.3 1225.3,80.3 1225.3,53.6 1165.8,53.6 1165.8,47 1231.8,47 	"/>
	<rect x="1158.3" class="st0" width="77.2" height="42.5"/>
	<polygon class="st1" points="1231.8,37.8 1225.3,37.8 1225.3,11.1 1165.8,11.1 1165.8,4.5 1231.8,4.5 	"/>
	<rect y="893" class="st0" width="77.2" height="42.5"/>
	<polygon class="st1" points="73.5,930.7 66.9,930.7 66.9,904 7.5,904 7.5,897.5 73.5,897.5 	"/>
	<rect y="850.4" class="st0" width="77.2" height="42.5"/>
	<polygon class="st1" points="73.5,888.2 66.9,888.2 66.9,861.5 7.5,861.5 7.5,855 73.5,855 	"/>
	<rect x="77.2" y="893" class="st0" width="77.2" height="42.5"/>
	<polygon class="st1" points="150.7,930.7 144.1,930.7 144.1,904 84.7,904 84.7,897.5 150.7,897.5 	"/>
	<rect x="77.2" y="850.4" class="st0" width="77.2" height="42.5"/>
	<polygon class="st1" points="150.7,888.2 144.1,888.2 144.1,861.5 84.7,861.5 84.7,855 150.7,855 	"/>
	<rect x="154.4" y="893" class="st0" width="77.2" height="42.5"/>
	<polygon class="st1" points="227.9,930.7 221.4,930.7 221.4,904 161.9,904 161.9,897.5 227.9,897.5 	"/>
	<rect x="154.4" y="850.4" class="st0" width="77.2" height="42.5"/>
	<polygon class="st1" points="227.9,888.2 221.4,888.2 221.4,861.5 161.9,861.5 161.9,855 227.9,855 	"/>
	<rect x="231.7" y="893" class="st0" width="77.2" height="42.5"/>
	<polygon class="st1" points="305.1,930.7 298.6,930.7 298.6,904 239.2,904 239.2,897.5 305.1,897.5 	"/>
	<rect x="231.7" y="850.4" class="st0" width="77.2" height="42.5"/>
	<polygon class="st1" points="305.1,888.2 298.6,888.2 298.6,861.5 239.2,861.5 239.2,855 305.1,855 	"/>
	<rect y="807.9" class="st0" width="77.2" height="42.5"/>
	<polygon class="st1" points="73.5,845.7 66.9,845.7 66.9,819 7.5,819 7.5,812.4 73.5,812.4 	"/>
	<rect y="765.4" class="st0" width="77.2" height="42.5"/>
	<polygon class="st1" points="73.5,803.1 66.9,803.1 66.9,776.5 7.5,776.5 7.5,769.9 73.5,769.9 	"/>
	<rect y="722.9" class="st0" width="77.2" height="42.5"/>
	<polygon class="st1" points="73.5,760.6 66.9,760.6 66.9,733.9 7.5,733.9 7.5,727.4 73.5,727.4 	"/>
	<rect y="680.3" class="st0" width="77.2" height="42.5"/>
	<polygon class="st1" points="73.5,718.1 66.9,718.1 66.9,691.4 7.5,691.4 7.5,684.9 73.5,684.9 	"/>
	<rect x="77.2" y="807.9" class="st0" width="77.2" height="42.5"/>
	<polygon class="st1" points="150.7,845.7 144.1,845.7 144.1,819 84.7,819 84.7,812.4 150.7,812.4 	"/>
	<rect x="77.2" y="765.4" class="st0" width="77.2" height="42.5"/>
	<polygon class="st1" points="150.7,803.1 144.1,803.1 144.1,776.5 84.7,776.5 84.7,769.9 150.7,769.9 	"/>
	<rect x="77.2" y="722.9" class="st0" width="77.2" height="42.5"/>
	<polygon class="st1" points="150.7,760.6 144.1,760.6 144.1,733.9 84.7,733.9 84.7,727.4 150.7,727.4 	"/>
	<rect x="77.2" y="680.3" class="st0" width="77.2" height="42.5"/>
	<polygon class="st1" points="150.7,718.1 144.1,718.1 144.1,691.4 84.7,691.4 84.7,684.9 150.7,684.9 	"/>
	<rect x="154.4" y="807.9" class="st0" width="77.2" height="42.5"/>
	<polygon class="st1" points="227.9,845.7 221.4,845.7 221.4,819 161.9,819 161.9,812.4 227.9,812.4 	"/>
	<rect x="154.4" y="765.4" class="st0" width="77.2" height="42.5"/>
	<polygon class="st1" points="227.9,803.1 221.4,803.1 221.4,776.5 161.9,776.5 161.9,769.9 227.9,769.9 	"/>
	<rect x="154.4" y="722.9" class="st0" width="77.2" height="42.5"/>
	<polygon class="st1" points="227.9,760.6 221.4,760.6 221.4,733.9 161.9,733.9 161.9,727.4 227.9,727.4 	"/>
	<rect x="154.4" y="680.3" class="st0" width="77.2" height="42.5"/>
	<polygon class="st1" points="227.9,718.1 221.4,718.1 221.4,691.4 161.9,691.4 161.9,684.9 227.9,684.9 	"/>
	<rect x="231.7" y="807.9" class="st0" width="77.2" height="42.5"/>
	<polygon class="st1" points="305.1,845.7 298.6,845.7 298.6,819 239.2,819 239.2,812.4 305.1,812.4 	"/>
	<rect x="231.7" y="765.4" class="st0" width="77.2" height="42.5"/>
	<polygon class="st1" points="305.1,803.1 298.6,803.1 298.6,776.5 239.2,776.5 239.2,769.9 305.1,769.9 	"/>
	<rect x="231.7" y="722.9" class="st0" width="77.2" height="42.5"/>
	<polygon class="st1" points="305.1,760.6 298.6,760.6 298.6,733.9 239.2,733.9 239.2,727.4 305.1,727.4 	"/>
	<rect x="231.7" y="680.3" class="st0" width="77.2" height="42.5"/>
	<polygon class="st1" points="305.1,718.1 298.6,718.1 298.6,691.4 239.2,691.4 239.2,684.9 305.1,684.9 	"/>
	<rect x="308.9" y="893" class="st0" width="77.2" height="42.5"/>
	<polygon class="st1" points="382.4,930.7 375.8,930.7 375.8,904 316.4,904 316.4,897.5 382.4,897.5 	"/>
	<rect x="308.9" y="850.4" class="st0" width="77.2" height="42.5"/>
	<polygon class="st1" points="382.4,888.2 375.8,888.2 375.8,861.5 316.4,861.5 316.4,855 382.4,855 	"/>
	<rect x="386.1" y="893" class="st0" width="77.2" height="42.5"/>
	<polygon class="st1" points="459.6,930.7 453,930.7 453,904 393.6,904 393.6,897.5 459.6,897.5 	"/>
	<rect x="386.1" y="850.4" class="st0" width="77.2" height="42.5"/>
	<polygon class="st1" points="459.6,888.2 453,888.2 453,861.5 393.6,861.5 393.6,855 459.6,855 	"/>
	<rect x="463.3" y="893" class="st0" width="77.2" height="42.5"/>
	<polygon class="st1" points="536.8,930.7 530.3,930.7 530.3,904 470.8,904 470.8,897.5 536.8,897.5 	"/>
	<rect x="463.3" y="850.4" class="st0" width="77.2" height="42.5"/>
	<polygon class="st1" points="536.8,888.2 530.3,888.2 530.3,861.5 470.8,861.5 470.8,855 536.8,855 	"/>
	<rect x="540.6" y="893" class="st0" width="77.2" height="42.5"/>
	<polygon class="st1" points="614,930.7 607.5,930.7 607.5,904 548.1,904 548.1,897.5 614,897.5 	"/>
	<rect x="540.6" y="850.4" class="st0" width="77.2" height="42.5"/>
	<polygon class="st1" points="614,888.2 607.5,888.2 607.5,861.5 548.1,861.5 548.1,855 614,855 	"/>
	<rect x="308.9" y="807.9" class="st0" width="77.2" height="42.5"/>
	<polygon class="st1" points="382.4,845.7 375.8,845.7 375.8,819 316.4,819 316.4,812.4 382.4,812.4 	"/>
	<rect x="308.9" y="765.4" class="st0" width="77.2" height="42.5"/>
	<polygon class="st1" points="382.4,803.1 375.8,803.1 375.8,776.5 316.4,776.5 316.4,769.9 382.4,769.9 	"/>
	<rect x="308.9" y="722.9" class="st0" width="77.2" height="42.5"/>
	<polygon class="st1" points="382.4,760.6 375.8,760.6 375.8,733.9 316.4,733.9 316.4,727.4 382.4,727.4 	"/>
	<rect x="308.9" y="680.3" class="st0" width="77.2" height="42.5"/>
	<polygon class="st1" points="382.4,718.1 375.8,718.1 375.8,691.4 316.4,691.4 316.4,684.9 382.4,684.9 	"/>
	<rect x="386.1" y="807.9" class="st0" width="77.2" height="42.5"/>
	<polygon class="st1" points="459.6,845.7 453,845.7 453,819 393.6,819 393.6,812.4 459.6,812.4 	"/>
	<rect x="386.1" y="765.4" class="st0" width="77.2" height="42.5"/>
	<polygon class="st1" points="459.6,803.1 453,803.1 453,776.5 393.6,776.5 393.6,769.9 459.6,769.9 	"/>
	<rect x="386.1" y="722.9" class="st0" width="77.2" height="42.5"/>
	<polygon class="st1" points="459.6,760.6 453,760.6 453,733.9 393.6,733.9 393.6,727.4 459.6,727.4 	"/>
	<rect x="386.1" y="680.3" class="st0" width="77.2" height="42.5"/>
	<polygon class="st1" points="459.6,718.1 453,718.1 453,691.4 393.6,691.4 393.6,684.9 459.6,684.9 	"/>
	<rect x="463.3" y="807.9" class="st0" width="77.2" height="42.5"/>
	<polygon class="st1" points="536.8,845.7 530.3,845.7 530.3,819 470.8,819 470.8,812.4 536.8,812.4 	"/>
	<rect x="463.3" y="765.4" class="st0" width="77.2" height="42.5"/>
	<polygon class="st1" points="536.8,803.1 530.3,803.1 530.3,776.5 470.8,776.5 470.8,769.9 536.8,769.9 	"/>
	<rect x="463.3" y="722.9" class="st0" width="77.2" height="42.5"/>
	<polygon class="st1" points="536.8,760.6 530.3,760.6 530.3,733.9 470.8,733.9 470.8,727.4 536.8,727.4 	"/>
	<rect x="463.3" y="680.3" class="st0" width="77.2" height="42.5"/>
	<polygon class="st1" points="536.8,718.1 530.3,718.1 530.3,691.4 470.8,691.4 470.8,684.9 536.8,684.9 	"/>
	<rect x="540.6" y="807.9" class="st0" width="77.2" height="42.5"/>
	<polygon class="st1" points="614,845.7 607.5,845.7 607.5,819 548.1,819 548.1,812.4 614,812.4 	"/>
	<rect x="540.6" y="765.4" class="st0" width="77.2" height="42.5"/>
	<polygon class="st1" points="614,803.1 607.5,803.1 607.5,776.5 548.1,776.5 548.1,769.9 614,769.9 	"/>
	<rect x="540.6" y="722.9" class="st0" width="77.2" height="42.5"/>
	<polygon class="st1" points="614,760.6 607.5,760.6 607.5,733.9 548.1,733.9 548.1,727.4 614,727.4 	"/>
	<rect x="540.6" y="680.3" class="st0" width="77.2" height="42.5"/>
	<polygon class="st1" points="614,718.1 607.5,718.1 607.5,691.4 548.1,691.4 548.1,684.9 614,684.9 	"/>
	<rect x="617.8" y="893" class="st0" width="77.2" height="42.5"/>
	<polygon class="st1" points="691.3,930.7 684.7,930.7 684.7,904 625.3,904 625.3,897.5 691.3,897.5 	"/>
	<rect x="617.8" y="850.4" class="st0" width="77.2" height="42.5"/>
	<polygon class="st1" points="691.3,888.2 684.7,888.2 684.7,861.5 625.3,861.5 625.3,855 691.3,855 	"/>
	<rect x="695" y="893" class="st0" width="77.2" height="42.5"/>
	<polygon class="st1" points="768.5,930.7 761.9,930.7 761.9,904 702.5,904 702.5,897.5 768.5,897.5 	"/>
	<rect x="695" y="850.4" class="st0" width="77.2" height="42.5"/>
	<polygon class="st1" points="768.5,888.2 761.9,888.2 761.9,861.5 702.5,861.5 702.5,855 768.5,855 	"/>
	<rect x="772.2" y="893" class="st0" width="77.2" height="42.5"/>
	<polygon class="st1" points="845.7,930.7 839.2,930.7 839.2,904 779.7,904 779.7,897.5 845.7,897.5 	"/>
	<rect x="772.2" y="850.4" class="st0" width="77.2" height="42.5"/>
	<polygon class="st1" points="845.7,888.2 839.2,888.2 839.2,861.5 779.7,861.5 779.7,855 845.7,855 	"/>
	<rect x="849.5" y="893" class="st0" width="77.2" height="42.5"/>
	<polygon class="st1" points="922.9,930.7 916.4,930.7 916.4,904 857,904 857,897.5 922.9,897.5 	"/>
	<rect x="849.5" y="850.4" class="st0" width="77.2" height="42.5"/>
	<polygon class="st1" points="922.9,888.2 916.4,888.2 916.4,861.5 857,861.5 857,855 922.9,855 	"/>
	<rect x="617.8" y="807.9" class="st0" width="77.2" height="42.5"/>
	<polygon class="st1" points="691.3,845.7 684.7,845.7 684.7,819 625.3,819 625.3,812.4 691.3,812.4 	"/>
	<rect x="617.8" y="765.4" class="st0" width="77.2" height="42.5"/>
	<polygon class="st1" points="691.3,803.1 684.7,803.1 684.7,776.5 625.3,776.5 625.3,769.9 691.3,769.9 	"/>
	<rect x="617.8" y="722.9" class="st0" width="77.2" height="42.5"/>
	<polygon class="st1" points="691.3,760.6 684.7,760.6 684.7,733.9 625.3,733.9 625.3,727.4 691.3,727.4 	"/>
	<rect x="617.8" y="680.3" class="st0" width="77.2" height="42.5"/>
	<polygon class="st1" points="691.3,718.1 684.7,718.1 684.7,691.4 625.3,691.4 625.3,684.9 691.3,684.9 	"/>
	<rect x="695" y="807.9" class="st0" width="77.2" height="42.5"/>
	<polygon class="st1" points="768.5,845.7 761.9,845.7 761.9,819 702.5,819 702.5,812.4 768.5,812.4 	"/>
	<rect x="695" y="765.4" class="st0" width="77.2" height="42.5"/>
	<polygon class="st1" points="768.5,803.1 761.9,803.1 761.9,776.5 702.5,776.5 702.5,769.9 768.5,769.9 	"/>
	<rect x="695" y="722.9" class="st0" width="77.2" height="42.5"/>
	<polygon class="st1" points="768.5,760.6 761.9,760.6 761.9,733.9 702.5,733.9 702.5,727.4 768.5,727.4 	"/>
	<rect x="695" y="680.3" class="st0" width="77.2" height="42.5"/>
	<polygon class="st1" points="768.5,718.1 761.9,718.1 761.9,691.4 702.5,691.4 702.5,684.9 768.5,684.9 	"/>
	<rect x="772.2" y="807.9" class="st0" width="77.2" height="42.5"/>
	<polygon class="st1" points="845.7,845.7 839.2,845.7 839.2,819 779.7,819 779.7,812.4 845.7,812.4 	"/>
	<rect x="772.2" y="765.4" class="st0" width="77.2" height="42.5"/>
	<polygon class="st1" points="845.7,803.1 839.2,803.1 839.2,776.5 779.7,776.5 779.7,769.9 845.7,769.9 	"/>
	<rect x="772.2" y="722.9" class="st0" width="77.2" height="42.5"/>
	<polygon class="st1" points="845.7,760.6 839.2,760.6 839.2,733.9 779.7,733.9 779.7,727.4 845.7,727.4 	"/>
	<rect x="772.2" y="680.3" class="st0" width="77.2" height="42.5"/>
	<polygon class="st1" points="845.7,718.1 839.2,718.1 839.2,691.4 779.7,691.4 779.7,684.9 845.7,684.9 	"/>
	<rect x="849.5" y="807.9" class="st0" width="77.2" height="42.5"/>
	<polygon class="st1" points="922.9,845.7 916.4,845.7 916.4,819 857,819 857,812.4 922.9,812.4 	"/>
	<rect x="849.5" y="765.4" class="st0" width="77.2" height="42.5"/>
	<polygon class="st1" points="922.9,803.1 916.4,803.1 916.4,776.5 857,776.5 857,769.9 922.9,769.9 	"/>
	<rect x="849.5" y="722.9" class="st0" width="77.2" height="42.5"/>
	<polygon class="st1" points="922.9,760.6 916.4,760.6 916.4,733.9 857,733.9 857,727.4 922.9,727.4 	"/>
	<rect x="849.5" y="680.3" class="st0" width="77.2" height="42.5"/>
	<polygon class="st1" points="922.9,718.1 916.4,718.1 916.4,691.4 857,691.4 857,684.9 922.9,684.9 	"/>
	<rect x="926.7" y="893" class="st0" width="77.2" height="42.5"/>
	<polygon class="st1" points="1000.2,930.7 993.6,930.7 993.6,904 934.2,904 934.2,897.5 1000.2,897.5 	"/>
	<rect x="926.7" y="850.4" class="st0" width="77.2" height="42.5"/>
	<polygon class="st1" points="1000.2,888.2 993.6,888.2 993.6,861.5 934.2,861.5 934.2,855 1000.2,855 	"/>
	<rect x="1003.9" y="893" class="st0" width="77.2" height="42.5"/>
	<polygon class="st1" points="1077.4,930.7 1070.8,930.7 1070.8,904 1011.4,904 1011.4,897.5 1077.4,897.5 	"/>
	<rect x="1003.9" y="850.4" class="st0" width="77.2" height="42.5"/>
	<polygon class="st1" points="1077.4,888.2 1070.8,888.2 1070.8,861.5 1011.4,861.5 1011.4,855 1077.4,855 	"/>
	<rect x="1081.1" y="893" class="st0" width="77.2" height="42.5"/>
	<polygon class="st1" points="1154.6,930.7 1148.1,930.7 1148.1,904 1088.6,904 1088.6,897.5 1154.6,897.5 	"/>
	<rect x="1081.1" y="850.4" class="st0" width="77.2" height="42.5"/>
	<polygon class="st1" points="1154.6,888.2 1148.1,888.2 1148.1,861.5 1088.6,861.5 1088.6,855 1154.6,855 	"/>
	<rect x="1158.3" y="893" class="st0" width="77.2" height="42.5"/>
	<polygon class="st1" points="1231.8,930.7 1225.3,930.7 1225.3,904 1165.8,904 1165.8,897.5 1231.8,897.5 	"/>
	<rect x="1158.3" y="850.4" class="st0" width="77.2" height="42.5"/>
	<polygon class="st1" points="1231.8,888.2 1225.3,888.2 1225.3,861.5 1165.8,861.5 1165.8,855 1231.8,855 	"/>
	<rect x="926.7" y="807.9" class="st0" width="77.2" height="42.5"/>
	<polygon class="st1" points="1000.2,845.7 993.6,845.7 993.6,819 934.2,819 934.2,812.4 1000.2,812.4 	"/>
	<rect x="926.7" y="765.4" class="st0" width="77.2" height="42.5"/>
	<polygon class="st1" points="1000.2,803.1 993.6,803.1 993.6,776.5 934.2,776.5 934.2,769.9 1000.2,769.9 	"/>
	<rect x="926.7" y="722.9" class="st0" width="77.2" height="42.5"/>
	<polygon class="st1" points="1000.2,760.6 993.6,760.6 993.6,733.9 934.2,733.9 934.2,727.4 1000.2,727.4 	"/>
	<rect x="926.7" y="680.3" class="st0" width="77.2" height="42.5"/>
	<polygon class="st1" points="1000.2,718.1 993.6,718.1 993.6,691.4 934.2,691.4 934.2,684.9 1000.2,684.9 	"/>
	<rect x="1003.9" y="807.9" class="st0" width="77.2" height="42.5"/>
	<polygon class="st1" points="1077.4,845.7 1070.8,845.7 1070.8,819 1011.4,819 1011.4,812.4 1077.4,812.4 	"/>
	<rect x="1003.9" y="765.4" class="st0" width="77.2" height="42.5"/>
	<polygon class="st1" points="1077.4,803.1 1070.8,803.1 1070.8,776.5 1011.4,776.5 1011.4,769.9 1077.4,769.9 	"/>
	<rect x="1003.9" y="722.9" class="st0" width="77.2" height="42.5"/>
	<polygon class="st1" points="1077.4,760.6 1070.8,760.6 1070.8,733.9 1011.4,733.9 1011.4,727.4 1077.4,727.4 	"/>
	<rect x="1003.9" y="680.3" class="st0" width="77.2" height="42.5"/>
	<polygon class="st1" points="1077.4,718.1 1070.8,718.1 1070.8,691.4 1011.4,691.4 1011.4,684.9 1077.4,684.9 	"/>
	<rect x="1081.1" y="807.9" class="st0" width="77.2" height="42.5"/>
	<polygon class="st1" points="1154.6,845.7 1148.1,845.7 1148.1,819 1088.6,819 1088.6,812.4 1154.6,812.4 	"/>
	<rect x="1081.1" y="765.4" class="st0" width="77.2" height="42.5"/>
	<polygon class="st1" points="1154.6,803.1 1148.1,803.1 1148.1,776.5 1088.6,776.5 1088.6,769.9 1154.6,769.9 	"/>
	<rect x="1081.1" y="722.9" class="st0" width="77.2" height="42.5"/>
	<polygon class="st1" points="1154.6,760.6 1148.1,760.6 1148.1,733.9 1088.6,733.9 1088.6,727.4 1154.6,727.4 	"/>
	<rect x="1081.1" y="680.3" class="st0" width="77.2" height="42.5"/>
	<polygon class="st1" points="1154.6,718.1 1148.1,718.1 1148.1,691.4 1088.6,691.4 1088.6,684.9 1154.6,684.9 	"/>
	<rect x="1158.3" y="807.9" class="st0" width="77.2" height="42.5"/>
	<polygon class="st1" points="1231.8,845.7 1225.3,845.7 1225.3,819 1165.8,819 1165.8,812.4 1231.8,812.4 	"/>
	<rect x="1158.3" y="765.4" class="st0" width="77.2" height="42.5"/>
	<polygon class="st1" points="1231.8,803.1 1225.3,803.1 1225.3,776.5 1165.8,776.5 1165.8,769.9 1231.8,769.9 	"/>
	<rect x="1158.3" y="722.9" class="st0" width="77.2" height="42.5"/>
	<polygon class="st1" points="1231.8,760.6 1225.3,760.6 1225.3,733.9 1165.8,733.9 1165.8,727.4 1231.8,727.4 	"/>
	<rect x="1158.3" y="680.3" class="st0" width="77.2" height="42.5"/>
	<polygon class="st1" points="1231.8,718.1 1225.3,718.1 1225.3,691.4 1165.8,691.4 1165.8,684.9 1231.8,684.9 	"/>
	<rect x="-146.4" y="-41" class="st2" width="1593" height="1031.1"/>
</g>
</svg>
