<?xml version="1.0" encoding="utf-8"?>
<!-- Generator: Adobe Illustrator 21.0.0, SVG Export Plug-In . SVG Version: 6.00 Build 0)  -->
<svg version="1.1" xmlns="http://www.w3.org/2000/svg" xmlns:xlink="http://www.w3.org/1999/xlink" x="0px" y="0px"
	 viewBox="0 0 1132.5 4667.5" style="enable-background:new 0 0 1132.5 4667.5;" xml:space="preserve">
<style type="text/css">
	.st0{fill:#FFFFFF;}
	.st1{fill:none;stroke:#FFFFFF;stroke-width:250;stroke-miterlimit:10;}
	.st2{fill:none;stroke:#1ADBE5;stroke-width:15;stroke-miterlimit:10;}
	.st3{fill:none;stroke:#FFFFFF;stroke-width:200;stroke-miterlimit:10;}
	.st4{fill:#1ADBE5;stroke:#1ADBE5;stroke-width:15;stroke-miterlimit:10;}
	.st5{fill:#70A84F;}
	.st6{fill:#79B656;}
	.st7{opacity:0.1;fill:#FFFFFF;stroke:#FFFFFF;stroke-width:10;stroke-linecap:round;stroke-linejoin:round;stroke-miterlimit:10;}
	.st8{fill:#1ADBE5;}
	.st9{fill:#1BBDE2;stroke:#1ADBE5;stroke-width:15;stroke-miterlimit:10;}
	.st10{clip-path:url(#SVGID_2_);fill:#1BBDE2;}
	.st11{fill:none;stroke:#038DA3;stroke-width:0.25;stroke-miterlimit:10;}
	.st12{fill:none;stroke:#0018C4;stroke-width:2;stroke-miterlimit:10;}
	.st13{fill:none;stroke:#038DA3;stroke-miterlimit:10;}
	.st14{fill:none;stroke:#0018C4;stroke-width:7;stroke-miterlimit:10;}
	.st15{fill:none;stroke:#FFFFFF;stroke-width:5.000000e-02;stroke-miterlimit:10;}
	.st16{fill:#0018C4;}
	.st17{clip-path:url(#SVGID_4_);fill:#0018C4;}
	.st18{clip-path:url(#SVGID_6_);fill:#0018C4;}
	.st19{clip-path:url(#SVGID_8_);fill:#0018C4;}
	.st20{clip-path:url(#SVGID_10_);fill:none;stroke:#0018C4;stroke-width:2;stroke-miterlimit:10;}
	.st21{clip-path:url(#SVGID_12_);fill:none;stroke:#0018C4;stroke-width:2;stroke-miterlimit:10;}
	.st22{clip-path:url(#SVGID_14_);fill:none;stroke:#0018C4;stroke-width:2;stroke-miterlimit:10;}
	.st23{clip-path:url(#SVGID_16_);fill:#0018C4;}
	.st24{clip-path:url(#SVGID_18_);fill:#0018C4;}
	.st25{clip-path:url(#SVGID_20_);fill:#0018C4;}
	.st26{clip-path:url(#SVGID_22_);fill:none;stroke:#0018C4;stroke-width:2;stroke-miterlimit:10;}
	.st27{clip-path:url(#SVGID_24_);fill:none;stroke:#0018C4;stroke-width:2;stroke-miterlimit:10;}
	.st28{clip-path:url(#SVGID_26_);fill:none;stroke:#0018C4;stroke-width:2;stroke-miterlimit:10;}
	.st29{clip-path:url(#SVGID_28_);fill:#0018C4;}
	.st30{clip-path:url(#SVGID_30_);fill:#0018C4;}
	.st31{clip-path:url(#SVGID_32_);fill:none;stroke:#0018C4;stroke-width:2;stroke-miterlimit:10;}
	.st32{clip-path:url(#SVGID_34_);fill:#0018C4;}
	.st33{clip-path:url(#SVGID_36_);fill:#0018C4;}
	.st34{clip-path:url(#SVGID_38_);fill:none;stroke:#0018C4;stroke-width:2;stroke-miterlimit:10;}
	.st35{clip-path:url(#SVGID_40_);fill:none;stroke:#0018C4;stroke-width:2;stroke-miterlimit:10;}
	.st36{clip-path:url(#SVGID_42_);fill:none;stroke:#0018C4;stroke-width:2;stroke-miterlimit:10;}
	.st37{clip-path:url(#SVGID_44_);fill:none;stroke:#0018C4;stroke-width:2;stroke-miterlimit:10;}
	.st38{clip-path:url(#SVGID_46_);}
	.st39{clip-path:url(#SVGID_48_);fill:none;stroke:#0018C4;stroke-width:2;stroke-miterlimit:10;}
	.st40{clip-path:url(#SVGID_50_);fill:none;stroke:#0018C4;stroke-width:2;stroke-miterlimit:10;}
	.st41{clip-path:url(#SVGID_52_);}
	.st42{clip-path:url(#SVGID_54_);}
	.st43{fill:#FFEB2E;}
</style>
<g id="Layer_1">
</g>
<g id="Layer_6">
</g>
<g id="base">
</g>
<g id="Layer_4">
</g>
<g id="path">
</g>
<g id="games">
	<g>
		<path class="st4" d="M827.4,631H341.6c-7.5,0-13.6-6.1-13.6-13.6V131.6c0-7.5,6.1-13.6,13.6-13.6h485.9c7.5,0,13.6,6.1,13.6,13.6
			v485.9C841,624.9,834.9,631,827.4,631z"/>
		<path class="st4" d="M197.5,1415.9V986.1c0-7.5,6.1-13.6,13.6-13.6h244.9c7.5,0,13.6,6.1,13.6,13.6v429.9
			c0,7.5-6.1,13.6-13.6,13.6H211.1C203.6,1429.5,197.5,1423.4,197.5,1415.9z"/>
		<path class="st4" d="M967.4,2293H547.6c-7.5,0-13.6-6.1-13.6-13.6v-505.9c0-7.5,6.1-13.6,13.6-13.6h419.9
			c7.5,0,13.6,6.1,13.6,13.6v505.9C981,2286.9,974.9,2293,967.4,2293z"/>
		<path class="st4" d="M692.4,3098H262.6c-7.5,0-13.6-6.1-13.6-13.6v-429.9c0-7.5,6.1-13.6,13.6-13.6h429.9
			c7.5,0,13.6,6.1,13.6,13.6v429.9C706,3091.9,699.9,3098,692.4,3098z"/>
		<path class="st4" d="M854.4,4300H565.6c-7.5,0-13.6-6.1-13.6-13.6v-540.9c0-7.5,6.1-13.6,13.6-13.6h288.9
			c7.5,0,13.6,6.1,13.6,13.6v540.9C868,4293.9,861.9,4300,854.4,4300z"/>
		<path class="st8" d="M345.5,470h-43v-0.3c0-7.8-6.3-14.1-14.1-14.1h-33.5c-7.8,0-14.1,6.3-14.1,14.1v123.7
			c0,7.8,6.3,14.1,14.1,14.1h33.5c7.4,0,13.5-5.7,14.1-13h43V470z"/>
		<path class="st8" d="M830.8,280h43v0.3c0,7.8,6.3,14.1,14.1,14.1h33.5c7.8,0,14.1-6.3,14.1-14.1V156.6c0-7.8-6.3-14.1-14.1-14.1
			h-33.5c-7.4,0-13.5,5.7-14.1,13h-43V280z"/>
		<path class="st8" d="M409.6,994.9v-43h0.3c7.8,0,14.1-6.3,14.1-14.1v-33.5c0-7.8-6.3-14.1-14.1-14.1H286.3
			c-7.8,0-14.1,6.3-14.1,14.1v33.5c0,7.4,5.7,13.5,13,14.1v43H409.6z"/>
		<path class="st8" d="M286.6,1412.1v43h-0.3c-7.8,0-14.1,6.3-14.1,14.1v33.5c0,7.8,6.3,14.1,14.1,14.1H410
			c7.8,0,14.1-6.3,14.1-14.1v-33.5c0-7.4-5.7-13.5-13-14.1v-43H286.6z"/>
		<g>
			<path class="st2" d="M496,631.5H28.5c-11.6,0-21-9.4-21-21v-582c0-11.6,9.4-21,21-21h158c11.6,0,21,9.4,21,21v382
				c0,11.6,9.4,21,21,21H496c11.6,0,21,9.4,21,21v158C517,622.1,507.6,631.5,496,631.5z"/>
		</g>
		<g>
			<path class="st2" d="M427,1303H269c-11.6,0-21-9.4-21-21V705c0-11.6,9.4-21,21-21h635c11.6,0,21-9.4,21-21V339
				c0-11.6-9.4-21-21-21H802c-11.6,0-21-9.4-21-21V139c0-11.6,9.4-21,21-21h302c11.6,0,21,9.4,21,21v724c0,11.6-9.4,21-21,21H469
				c-11.6,0-21,9.4-21,21v377C448,1293.6,438.6,1303,427,1303z"/>
		</g>
		<g>
			<path class="st2" d="M928,1783H770c-11.6,0-21-9.4-21-21v-586c0-11.6-9.4-21-21-21l0,0c-11.6,0-21,9.4-21,21v496
				c0,11.6-9.4,21-21,21H264c-11.6,0-21-9.4-21-21v-248c0-11.6,9.4-21,21-21h158c11.6,0,21,9.4,21,21v48c0,11.6,9.4,21,21,21h22
				c11.6,0,21-9.4,21-21V976c0-11.6,9.4-21,21-21h400c11.6,0,21,9.4,21,21v786C949,1773.6,939.6,1783,928,1783z"/>
		</g>
		<g>
			<path class="st2" d="M929,2933H648c-11.6,0-21-9.4-21-21v-158c0-11.6,9.4-21,21-21h81c11.6,0,21-9.4,21-21v-128
				c0-11.6-9.4-21-21-21H295c-11.6,0-21-9.4-21-21v-500c0-11.6,9.4-21,21-21h271c11.6,0,21,9.4,21,21v158c0,11.6-9.4,21-21,21h-71
				c-11.6,0-21,9.4-21,21v100c0,11.6,9.4,21,21,21h434c11.6,0,21,9.4,21,21v528C950,2923.6,940.6,2933,929,2933z"/>
		</g>
		<g>
			<path class="st2" d="M785,4660H353c-11.6,0-21-9.4-21-21v-158c0-11.6,9.4-21,21-21h232c11.6,0,21-9.4,21-21v-797
				c0-11.6-9.4-21-21-21H391c-11.6,0-21-9.4-21-21v-530c0-11.6,9.4-21,21-21h158c11.6,0,21,9.4,21,21v330c0,11.6,9.4,21,21,21h194
				c11.6,0,21,9.4,21,21v1197C806,4650.6,796.6,4660,785,4660z"/>
		</g>
		<path class="st4" d="M813.9,617.5H355.1c-7.5,0-13.6-6.1-13.6-13.6V145.1c0-7.5,6.1-13.6,13.6-13.6h458.9
			c7.5,0,13.6,6.1,13.6,13.6v458.9C827.5,611.4,821.4,617.5,813.9,617.5z"/>
	</g>
</g>
<g id="grid">
</g>
<g id="map">
</g>
</svg>
