<svg xmlns="http://www.w3.org/2000/svg" viewBox="0 0 89.33 85.74"><defs><style>.cls-1{fill:#fff;}</style></defs><title>soc-icon</title><g id="map"><polygon class="cls-1" points="85.99 16.68 82.66 16.68 82.66 14.91 79.32 14.91 75.99 14.91 75.99 16.68 72.65 16.68 69.32 16.68 69.32 11.68 69.32 6.67 70.98 6.67 72.65 6.67 72.65 5 72.65 3.34 74.32 3.34 75.99 3.34 75.99 1.67 75.99 0 13.34 0 13.34 1.67 13.34 3.34 15.01 3.34 16.68 3.34 16.68 5 16.68 6.67 18.35 6.67 20.01 6.67 20.01 11.68 20.01 16.68 16.68 16.68 13.34 16.68 13.34 14.91 10.01 14.91 6.67 14.91 6.67 16.68 3.34 16.68 0 16.68 0 49.33 89.33 49.33 89.33 16.68 85.99 16.68"/><polygon class="cls-1" points="6.67 16.68 6.67 14.91 6.67 11.68 6.67 14.91 10.01 14.91 13.34 14.91 13.34 11.68 13.34 14.91 13.34 16.68 16.68 16.68 20.01 16.68 20.01 11.68 20.01 6.67 18.35 6.67 16.68 6.67 16.68 5 16.68 3.34 15.01 3.34 13.34 3.34 13.34 1.67 13.34 0 10.01 0 6.67 0 6.67 1.67 6.67 3.34 5 3.34 3.34 3.34 3.34 5 3.34 6.67 1.67 6.67 0 6.67 0 11.68 0 16.68 3.34 16.68 6.67 16.68"/><polygon class="cls-1" points="85.99 6.67 85.99 5 85.99 3.34 84.33 3.34 82.66 3.34 82.66 1.67 82.66 0 79.32 0 75.99 0 75.99 1.67 75.99 3.34 74.32 3.34 72.65 3.34 72.65 5 72.65 6.67 70.98 6.67 69.32 6.67 69.32 11.68 69.32 16.68 72.65 16.68 75.99 16.68 75.99 14.91 75.99 11.68 75.99 14.91 79.32 14.91 82.66 14.91 82.66 11.68 82.66 14.91 82.66 16.68 85.99 16.68 89.33 16.68 89.33 11.68 89.33 6.67 87.66 6.67 85.99 6.67"/><polygon class="cls-1" points="3.34 68.65 6.67 68.65 6.67 70.42 10.01 70.42 13.34 70.42 13.34 68.65 16.68 68.65 20.01 68.65 20.01 73.66 20.01 78.66 18.35 78.66 16.68 78.66 16.68 80.33 16.68 81.99 15.01 81.99 13.34 81.99 13.34 83.66 13.34 85.33 75.99 85.33 75.99 83.66 75.99 81.99 74.32 81.99 72.65 81.99 72.65 80.33 72.65 78.66 70.98 78.66 69.32 78.66 69.32 73.66 69.32 68.65 72.65 68.65 75.99 68.65 75.99 70.42 79.32 70.42 82.66 70.42 82.66 68.65 85.99 68.65 89.33 68.65 89.33 36 0 36 0 68.65 3.34 68.65"/><polygon class="cls-1" points="82.66 68.65 82.66 70.42 82.66 73.66 82.66 70.42 79.32 70.42 75.99 70.42 75.99 73.66 75.99 70.42 75.99 68.65 72.65 68.65 69.32 68.65 69.32 73.66 69.32 78.66 70.98 78.66 72.65 78.66 72.65 80.33 72.65 81.99 74.32 81.99 75.99 81.99 75.99 83.66 75.99 85.33 79.32 85.33 82.66 85.33 82.66 83.66 82.66 81.99 84.33 81.99 85.99 81.99 85.99 80.33 85.99 78.66 87.66 78.66 89.33 78.66 89.33 73.66 89.33 68.65 85.99 68.65 82.66 68.65"/><polygon class="cls-1" points="3.34 78.66 3.34 80.33 3.34 81.99 5 81.99 6.67 81.99 6.67 83.66 6.67 85.33 10.01 85.33 13.34 85.33 13.34 83.66 13.34 81.99 15.01 81.99 16.68 81.99 16.68 80.33 16.68 78.66 18.35 78.66 20.01 78.66 20.01 73.66 20.01 68.65 16.68 68.65 13.34 68.65 13.34 70.42 13.34 73.66 13.34 70.42 10.01 70.42 6.67 70.42 6.67 73.66 6.67 70.42 6.67 68.65 3.34 68.65 0 68.65 0 73.66 0 78.66 1.67 78.66 3.34 78.66"/><path d="M49.33,27.62V23H77.08v9.25H58.58v9.25h18.5v9.25H58.58v35H40.08v-35H21.58V41.49h18.5V32.24h9.25Z"/></g></svg>