<svg xmlns="http://www.w3.org/2000/svg" viewBox="0 0 101.06 78.7"><defs><style>.cls-1{fill:#fff;}</style></defs><title>dropMenu</title><g id="map"><rect class="cls-1" x="15.92" y="33.36" width="7.87" height="7.87"/><rect class="cls-1" x="23.45" y="39.53" width="7.87" height="7.87"/><rect class="cls-1" x="31.32" y="45.34" width="7.87" height="7.87"/><rect class="cls-1" x="38.85" y="51.5" width="7.87" height="7.87"/><rect class="cls-1" x="46.62" y="58.44" width="7.87" height="7.87"/><rect class="cls-1" x="77.28" y="33.36" width="7.87" height="7.87" transform="translate(162.42 74.59) rotate(-180)"/><rect class="cls-1" x="69.74" y="39.53" width="7.87" height="7.87" transform="translate(147.35 86.92) rotate(-180)"/><rect class="cls-1" x="61.88" y="45.34" width="7.87" height="7.87" transform="translate(131.62 98.54) rotate(-180)"/><rect class="cls-1" x="54.34" y="51.5" width="7.87" height="7.87" transform="translate(116.55 110.87) rotate(-180)"/><rect class="cls-1" x="15.92" y="12.4" width="7.87" height="7.87"/><rect class="cls-1" x="23.45" y="18.56" width="7.87" height="7.87"/><rect class="cls-1" x="31.32" y="24.37" width="7.87" height="7.87"/><rect class="cls-1" x="38.85" y="30.54" width="7.87" height="7.87"/><rect class="cls-1" x="46.62" y="37.47" width="7.87" height="7.87"/><rect class="cls-1" x="77.28" y="12.4" width="7.87" height="7.87" transform="translate(162.42 32.66) rotate(-180)"/><rect class="cls-1" x="69.74" y="18.56" width="7.87" height="7.87" transform="translate(147.35 44.99) rotate(-180)"/><rect class="cls-1" x="61.88" y="24.37" width="7.87" height="7.87" transform="translate(131.62 56.61) rotate(-180)"/><rect class="cls-1" x="54.34" y="30.54" width="7.87" height="7.87" transform="translate(116.55 68.94) rotate(-180)"/></g></svg>