<?xml version="1.0" encoding="utf-8"?>
<!-- Generator: Adobe Illustrator 21.0.0, SVG Export Plug-In . SVG Version: 6.00 Build 0)  -->
<svg version="1.1" id="Layer_1" xmlns="http://www.w3.org/2000/svg" xmlns:xlink="http://www.w3.org/1999/xlink" x="0px" y="0px"
	 viewBox="0 0 1444.5 345.5" style="enable-background:new 0 0 1444.5 345.5;" xml:space="preserve">
<style type="text/css">
	.st0{fill:#FFFFFF;}
	.st1{fill:#003056;}
	.st2{fill:#133155;}
	.st3{fill:#F2D03B;}
	.st4{fill:#FF6138;}
	.st5{fill:none;}
	.st6{enable-background:new    ;}
</style>
<title>intro-logo</title>
<g id="map">
	<path class="st0" d="M249.1,259.8c-4.1,0.1-8.2-0.3-12.2-1.4c-2.6-0.7-5.1-1.8-7.3-3.4c-1.9-1.6-3.4-3.6-4.2-6l-0.1-0.2
		c-0.9-3.1-1.4-7.6-1.4-13.8v-78.6c-3.8,5-8.7,11.7-14.6,20c-8.1,11.3-13.3,18.5-15.5,21.5l-4.6,6c-1.1,1.4-3.2,3-6.8,5.1
		c-7.1,4.2-15.9,4.3-23.1,0.3c-2.8-1.4-5.3-3.4-7.3-5.7l-2.1-2.9c-3.3-4.1-10.1-13.2-20-27c-5.5-7.6-9.6-13.3-12.4-17v78.9
		c0.1,3-0.1,6-0.4,9c-0.4,2.6-1.3,5-2.7,7.2c-2.9,5.3-10,7.9-21.6,7.9c-11.2,0-18.1-2.6-21.1-7.9c-1.4-2.3-2.3-4.7-2.7-7.3
		c-0.3-3.1-0.4-6.2-0.4-9.4V94.6c0-3,0.1-6,0.4-9c0.4-2.6,1.3-5.1,2.6-7.4c3-5.2,10.1-7.7,21.6-7.7c4.2-0.1,8.4,0.5,12.5,1.7
		c3.7,1.2,6,2.5,7.3,4l1.6,1.6l55.9,73.3c27.6-36.4,46.3-61,55.7-72.9c3.3-5.2,10.6-7.7,22.1-7.7s18.7,2.6,21.5,8
		c1.3,2.3,2.2,4.9,2.6,7.6c0.3,3,0.4,6.1,0.4,9.1v140.5c0,12.6-3.7,20.2-11.1,22.5C257.8,259.3,253.5,259.9,249.1,259.8z"/>
	<path class="st1" d="M248.5,72.6c10.7,0,17.3,2.3,19.6,6.8c1.2,2.1,2,4.4,2.4,6.8c0.3,2.9,0.4,5.9,0.4,8.9v140.5
		c0,11.6-3.2,18.5-9.6,20.5c-4,1.1-8,1.6-12.2,1.5c-3.9,0.1-7.9-0.3-11.7-1.3c-2.4-0.6-4.6-1.6-6.6-3c-1.6-1.3-2.9-3.1-3.5-5.1
		c-0.8-2.9-1.3-7.3-1.3-13.2v-84.8c-4.2,5.2-10.4,13.5-18.5,24.9s-13.2,18.5-15.4,21.4l-4.6,5.9c-0.8,1.1-2.9,2.6-6.2,4.6
		c-6.5,3.8-14.5,3.9-21,0.3c-2.5-1.3-4.8-3.1-6.7-5.2l-2-2.8c-3.4-4.2-10-13.2-20-27s-15.4-21.1-16.2-22.2v85.3
		c0,2.9-0.1,5.8-0.4,8.7c-0.4,2.3-1.2,4.5-2.4,6.5c-2.5,4.6-9.1,6.8-19.7,6.8c-10.3,0-16.7-2.3-19.2-6.8c-1.2-2-2-4.3-2.4-6.6
		c-0.3-3-0.4-6.1-0.4-9.1V94.6c0-2.9,0.1-5.8,0.4-8.7c0.4-2.4,1.2-4.6,2.4-6.7c2.5-4.4,9.1-6.6,19.7-6.6c4-0.1,8,0.5,11.8,1.6
		c3.3,1.1,5.4,2.2,6.5,3.4l1.5,1.5l57.5,75.4c28.7-38,47.9-63,57.5-75.2C231,74.8,237.8,72.6,248.5,72.6 M248.5,68.3
		c-12.2,0-20.1,2.8-23.8,8.6c-9.3,11.7-27.5,35.5-54.1,70.6l-54.1-71l-0.2-0.2l-0.2-0.2l-1.3-1.4c-1.6-1.7-4.2-3.2-8.2-4.5
		c-4.2-1.3-8.7-1.9-13.1-1.9c-12.4,0-20,2.9-23.4,8.7v0.1v0.1c-1.4,2.5-2.4,5.3-2.9,8.2c-0.3,3.1-0.5,6.2-0.4,9.3v140.5
		c0,3.2,0.1,6.4,0.4,9.6c0.4,2.9,1.4,5.6,2.9,8.1c3.4,6,10.9,9,22.9,9c12.4,0,20.1-2.9,23.5-9c1.5-2.4,2.5-5.1,2.9-8
		c0.3-3.1,0.5-6.2,0.4-9.3v-72.4l8.5,11.7c10,13.9,16.6,22.7,20.1,27.1l2,2.7l0.1,0.1l0.1,0.1c2.2,2.6,4.9,4.7,7.9,6.2
		c7.9,4.4,17.5,4.3,25.3-0.3c3.9-2.3,6.2-4,7.4-5.6l4.6-6c2.2-2.9,7.4-10.2,15.5-21.5c4.1-5.7,7.7-10.7,10.8-14.8v72.3
		c0,6.4,0.5,11.1,1.4,14.4v0.2l0.1,0.2c1,2.7,2.7,5.1,4.9,6.9c2.4,1.7,5.1,3,8,3.8c4.2,1.1,8.5,1.6,12.8,1.4
		c4.5,0.1,9.1-0.5,13.4-1.7c8.4-2.6,12.6-10.9,12.6-24.5V95.1c0-3.1-0.1-6.3-0.4-9.4c-0.4-2.9-1.4-5.7-2.9-8.3
		C268.7,71.3,261.1,68.3,248.5,68.3L248.5,68.3z"/>
	<path class="st0" d="M445.2,262.5c-3.3,0.1-6.6-0.8-9.3-2.7c-2.1-1.4-3.9-3.3-5.2-5.5c-1-1.7-2.3-4.3-4-7.7l-12.6-26.2h-67.5
		L334,246.6c-1.7,3.4-3.1,5.9-4,7.5c-1.4,2.1-3.1,3.9-5.1,5.3c-2.7,2-6,3-9.4,2.8c-3.7,0-8.4-1.5-14.5-4.5
		c-10.5-5.1-15.9-11.2-15.9-18.1c0-3.2,1.5-7.8,4.5-13.9L358,84.1c2-4.2,5.3-7.8,9.3-10.2c3.9-2.5,8.5-3.9,13.1-3.9
		c9.9,0,17.4,4.8,22.2,14.3L471,225.6c3,6.1,4.5,10.6,4.5,13.8c0,6.9-5.3,13.1-15.9,18.4C453.6,261.2,448.9,262.5,445.2,262.5z
		 M393.8,178.8l-13.6-27.7l-13.3,27.7H393.8z"/>
	<path class="st1" d="M380.5,72.3c9.1,0,15.9,4.4,20.3,13.2l68.4,141.3c2.9,5.7,4.3,10,4.3,12.9c0,6.1-4.9,11.6-14.7,16.5
		c-5.7,2.9-10.3,4.3-13.5,4.3c-2.9,0.1-5.7-0.7-8.1-2.3c-1.9-1.2-3.4-2.9-4.6-4.8c-0.9-1.7-2.2-4.2-3.9-7.6l-13.2-27.3h-70.1
		l-13.2,27.3c-1.7,3.4-3,5.8-3.9,7.3c-1.2,1.8-2.8,3.4-4.6,4.7c-2.4,1.7-5.2,2.5-8.1,2.4c-3.3,0-7.8-1.4-13.5-4.3
		c-9.8-4.7-14.7-10.1-14.7-16.2c0-2.9,1.4-7.2,4.3-12.9l68.4-141.5c1.9-3.9,4.8-7.1,8.5-9.4C372.1,73.6,376.3,72.3,380.5,72.3
		 M363.6,180.9h33.7l-17-34.7L363.6,180.9 M380.6,68.1c-5.1,0-10,1.5-14.3,4.2c-4.4,2.7-7.9,6.5-10.1,11.1l-68.3,141.5
		c-3.2,6.4-4.7,11.2-4.7,14.8c0,7.8,5.7,14.5,17.1,20c6.4,3.2,11.4,4.7,15.4,4.7c3.8,0.1,7.6-1,10.7-3.3c2.2-1.6,4.1-3.6,5.6-5.9
		c1-1.6,2.4-4.2,4.1-7.7v-0.1l12-24.9h64.7l12,24.9v0.1c1.7,3.4,3,6,4,7.8c1.4,2.5,3.4,4.6,5.8,6.2c3.1,2.1,6.8,3.2,10.6,3.1
		c4,0,9-1.6,15.4-4.8c11.3-5.7,17-12.5,17-20.3c0-3.6-1.5-8.3-4.7-14.8L404.6,83.6l0,0C399.5,73.5,391.2,68.1,380.6,68.1L380.6,68.1
		z M370.3,176.8l10-20.8l10.1,20.7L370.3,176.8z"/>
	<path class="st0" d="M607,261.5c-3.4,0.1-6.7-0.9-9.4-2.8c-2.1-1.5-3.8-3.4-5.2-5.5l-0.1-0.1c-1.7-3.2-8-17.8-19.2-44.6l-6.4,0.4
		h-29.9v26.5c0,3-0.1,6-0.4,9c-0.4,2.6-1.3,5.1-2.6,7.4c-2.8,5.3-9.9,8-21.6,8c-12.8,0-20.4-3.6-22.8-10.8
		c-1.1-3.1-1.6-7.6-1.6-13.8V94.6c0-3,0.1-6,0.4-9c0.4-2.6,1.3-5.1,2.6-7.4c2.8-5.3,9.8-8,21.6-8h54.7c15.3,0,30.3,5.6,44.5,16.6
		c7.4,5.9,13.3,13.4,17.3,22c4.6,9.6,6.9,20.2,6.8,30.8c0,19.1-6.3,35.1-18.6,47.6c3.7,8.8,9.3,21.7,16.6,38.4c2.7,6.4,4,11,4,14
		c0,7.3-5.7,13.4-17,18.2C615.2,260.3,610.6,261.5,607,261.5z M567.1,159.8c4.4,0,8.9-1.7,13.4-5.1s6.4-8.3,6.4-15
		s-2.1-11.8-6.5-15.2s-9.2-5.3-13.9-5.3h-29.7v40.6H567.1z"/>
	<path class="st1" d="M567.1,72.3c14.8,0,29.3,5.4,43.3,16.2c6.8,5.2,12.3,12.3,16.7,21.3c4.5,9.3,6.7,19.5,6.6,29.9
		c0,19.1-6.3,34.8-19,47.1c3.7,8.9,9.5,22.2,17.2,39.8c2.5,6.1,3.8,10.5,3.8,13.2c0,6.4-5.2,11.8-15.7,16.2c-5.4,2.4-9.7,3.5-13,3.5
		c-2.9,0.1-5.7-0.7-8.1-2.4c-1.9-1.3-3.5-3-4.7-4.9c-1.7-3.2-8.3-18.5-19.7-45.8l-7.8,0.5h-31.9v28.6c0,2.9-0.1,5.8-0.4,8.7
		c-0.4,2.4-1.2,4.6-2.4,6.7c-2.4,4.6-8.9,6.8-19.7,6.8c-11.8,0-18.7-3.1-20.8-9.4c-1-2.9-1.5-7.3-1.5-13.2V94.6
		c0-2.9,0.1-5.8,0.4-8.7c0.4-2.4,1.2-4.6,2.4-6.7c2.4-4.6,8.9-6.8,19.7-6.8L567.1,72.3 M534.7,161.9h32.4c4.9,0,9.8-1.9,14.7-5.6
		s7.3-9.3,7.3-16.7s-2.4-13-7.3-16.8c-4.9-3.8-10-5.7-15.2-5.7h-31.9V161.9 M567.1,68.1h-54.7c-12.6,0-20.3,3-23.5,9.1
		c-1.4,2.5-2.4,5.3-2.9,8.1c-0.3,3.1-0.5,6.2-0.4,9.3v140.5c0,6.4,0.6,11.2,1.7,14.5c2.7,8.1,11,12.2,24.8,12.2
		c12.6,0,20.3-3,23.5-9.1c1.4-2.5,2.4-5.3,2.8-8.1c0.3-3.1,0.5-6.2,0.4-9.3v-24.4h27.9l4.8-0.3c10.9,26,17,40.2,18.7,43.4l0.1,0.1
		l0.1,0.1c1.5,2.4,3.5,4.5,5.8,6.1c3.1,2.2,6.8,3.4,10.7,3.3c3.9,0,8.7-1.3,14.7-3.9c12.1-5.1,18.3-11.9,18.3-20.1
		c0-3.3-1.3-8-4.1-14.8l0,0l0,0c-7-15.9-12.4-28.3-16.1-37.1c12.1-12.8,18.2-28.9,18.2-48.1c0.1-11-2.3-21.8-7-31.7
		c-4.2-8.9-10.3-16.6-17.9-22.8C598.3,73.8,582.9,68,567.1,68.1L567.1,68.1z M539,121.4h27.7c4.3,0,8.4,1.6,12.6,4.8
		c3.8,3,5.7,7.4,5.7,13.5s-1.9,10.4-5.7,13.3c-4.2,3.2-8.1,4.7-12.1,4.7H539V121.4L539,121.4z"/>
	<path class="st0" d="M738.3,263c-26.1,0-48.7-9.5-67-28.5s-27.6-41.7-27.6-67.8c-0.1-13.8,2.5-27.4,7.8-40.2
		c4.7-11.8,11.8-22.5,20.7-31.5c8.6-8.4,18.7-15.2,29.8-19.9c11-4.8,22.8-7.2,34.8-7.2c25.4,0,47.8,9.3,66.5,27.7
		s28.2,41.5,28.2,68.7s-9.1,50.7-26.9,69.8C786.8,253.3,764.4,263,738.3,263z M737.6,117c-11.4,0-21.8,4.5-30.9,13.4
		s-13.9,20.7-13.9,35.1c0,14.4,4.7,26.1,13.9,35.1s19.7,13.5,31.1,13.5c11.4,0,21.8-4.4,31-13.1s13.8-20.5,13.8-35.2
		s-4.7-26.6-13.9-35.4C759.4,121.5,748.9,117,737.6,117z"/>
	<path class="st1" d="M736.8,70.1c25,0,46.7,9,65.1,27.1c18.4,18.1,27.6,40.5,27.6,67.2c0,26.7-8.8,49.5-26.3,68.4
		c-17.6,18.8-39.1,28.2-64.8,28.2s-47.5-9.3-65.4-27.8c-18-18.6-27-40.7-27-66.3c-0.1-13.5,2.5-26.9,7.6-39.4
		c4.6-11.5,11.5-22,20.3-30.8c8.4-8.2,18.3-14.9,29.1-19.5C713.5,72.5,725.1,70.1,736.8,70.1 M737.8,216.2c12,0,22.8-4.6,32.4-13.7
		c9.6-9.1,14.4-21.3,14.4-36.7s-4.9-27.7-14.6-37c-9.7-9.3-20.6-13.9-32.5-13.9c-12,0-22.8,4.7-32.4,14
		c-9.6,9.4-14.4,21.6-14.5,36.6c0,15,4.9,27.2,14.6,36.6C714.9,211.4,725.8,216.2,737.8,216.2 M736.8,65.8
		c-12.3,0-24.4,2.5-35.6,7.4c-11.4,4.9-21.7,11.8-30.4,20.4c-9.2,9.2-16.4,20.1-21.2,32.2c-5.3,13-8,26.9-7.9,41
		c0,26.7,9.5,50,28.2,69.3s41.8,29.1,68.5,29.1s49.6-9.9,67.9-29.6c18.3-19.6,27.5-43.5,27.5-71.2s-9.7-51.4-28.9-70.2
		C785.6,75.3,762.8,65.8,736.8,65.8z M737.8,211.9c-10.9,0-20.6-4.2-29.6-12.9c-9-8.6-13.3-19.6-13.3-33.5s4.3-24.9,13.1-33.5
		s18.5-12.9,29.4-12.9s20.6,4.2,29.6,12.7c9,8.6,13.2,19.6,13.2,33.9s-4.2,25.3-13.1,33.6C758.4,207.8,748.7,211.9,737.8,211.9
		L737.8,211.9z"/>
	<path class="st0" d="M985.7,262.5c-5.2,0-10.8-3.6-17.2-10.8L922,198.4l-46.5,53.4c-6.6,7.3-12.2,10.9-17.2,10.9
		s-10.7-3.1-17.9-9.5c-7.1-6.4-10.7-12-10.7-16.9s3.1-10.6,9.4-17.6l49.6-54.5l-49.6-54.5c-6.4-6.7-9.4-12.4-9.4-17.4
		s3.5-10.7,10.6-17.1c7.1-6.5,12.9-9.5,18-9.5s10.8,3.6,17.2,10.8l46.4,53.4l46.5-53.4c6.6-7.3,12.2-10.9,17.2-10.9
		s10.7,3.1,17.8,9.4s10.6,12,10.6,17.3s-3,10.9-9.2,17.4l-49.6,54.5l49.6,54.5c6.2,6.9,9.2,12.7,9.2,17.6s-3.4,10.6-10.4,17
		C996.6,259.5,990.8,262.5,985.7,262.5z"/>
	<path class="st1" d="M985.7,67.5c4.3,0,9.7,3,16.3,8.9s9.9,11.1,9.9,15.7c0,4.6-2.9,9.9-8.6,15.9L952.4,164l50.9,56
		c5.7,6.4,8.6,11.8,8.6,16.2s-3.2,9.5-9.7,15.4s-12,8.9-16.5,8.9s-9.7-3.4-15.6-10.1L922,195.3l-48.1,55.1
		c-6.1,6.8-11.3,10.1-15.6,10.1s-9.8-3-16.5-9s-10-11.1-10-15.3c0-4.2,3-9.6,8.9-16.2l50.9-56l-50.8-55.9c-5.9-6.2-8.9-11.5-8.9-16
		s3.3-9.6,9.9-15.6c6.6-6,12.1-9,16.6-9s9.7,3.4,15.6,10.1l48.1,55.1l48.1-55.1C976.2,70.9,981.4,67.5,985.7,67.5 M985.7,63.3
		c-5.6,0-11.7,3.8-18.7,11.5l0,0l0,0l-44.9,51.6l-44.9-51.5c-6.8-7.8-13-11.6-18.8-11.6c-5.6,0-12,3.3-19.4,10.1s-11.3,13-11.3,18.7
		s3.3,11.7,10,18.8l48.3,53L837.7,217c-6.7,7.4-10,13.7-10,19.1c0,5.5,3.7,11.6,11.4,18.5s13.8,10.1,19.3,10.1
		c5.6,0,11.7-3.8,18.7-11.5l0,0l0,0l44.9-51.6l44.9,51.5c6.8,7.8,13,11.6,18.8,11.6c5.6,0,11.9-3.3,19.3-10
		c7.4-6.7,11.1-12.9,11.1-18.6c0-5.5-3.2-11.7-9.7-19l-48.2-53.2l48.3-53c6.6-6.9,9.7-13.1,9.7-18.8s-3.7-12.1-11.3-18.9
		S991.2,63.3,985.7,63.3L985.7,63.3z"/>
	<path class="st0" d="M1050.7,259.8c-12.8,0-20.5-3.7-22.8-11.1c-1.1-3.1-1.6-7.6-1.6-13.8V94.3c-0.1-3.1,0.1-6.1,0.4-9.2
		c0.4-2.6,1.3-5,2.6-7.3c2.8-5.3,9.9-8,21.6-8h63.8c16,0,29.7,5.7,40.5,16.8c11.1,10.7,17.2,25.6,17.1,41c0,10.8-3.1,21.5-9.1,30.5
		c9.5,11.9,14.4,25.3,14.4,39.9c-0.3,17.4-6.4,32.2-18,43.9c-11.1,11.5-26.4,18-42.4,17.7L1050.7,259.8z M1114.7,210.8
		c9.4,0,13.8-4.8,13.8-15.1c0.1-3-0.3-6-1.3-8.8c-0.6-1.7-1.9-3.1-3.6-3.9c-3.1-1.2-7.6-1.9-13.3-1.9c-6.5,0-11.6-1.3-15-4
		c-3.6-2.8-5.4-8.1-5.4-16.2c0-8.1,1.8-13.4,5.5-16.2c3.5-2.7,9-4,16.8-4c5.7,0,9.1-1.3,10.1-3.9c0.5-2.8,0.8-5.6,0.7-8.5
		c0-3.5-1.1-5.8-3.2-7.1c-2.4-1.5-6.3-2.2-11.4-2.2h-33.3v91.7L1114.7,210.8z"/>
	<path class="st1" d="M1114.7,72.1c15.6,0,28.5,5.4,39,16.2c10.7,10.3,16.7,24.6,16.5,39.5c0.1,11-3.3,21.7-9.6,30.6
		c9.9,11.8,14.9,25,14.9,39.7c-0.3,16.9-6.1,31-17.3,42.4c-10.6,11.2-25.5,17.4-40.9,17.1h-66.6c-11.8,0-18.7-3.2-20.8-9.6
		c-1-2.9-1.5-7.3-1.5-13.2V94.3c-0.1-3,0.1-5.9,0.4-8.9c0.4-2.3,1.2-4.5,2.4-6.6c2.4-4.6,8.9-6.8,19.7-6.8L1114.7,72.1
		 M1073.2,212.8h41.5c10.6,0,15.9-5.7,15.9-17.2c0.1-3.3-0.3-6.5-1.4-9.6c-0.8-2.2-2.5-4.1-4.7-5.1c-3.4-1.4-8.1-2-14.2-2
		s-10.6-1.2-13.7-3.5c-3-2.4-4.6-7.2-4.6-14.6s1.6-12.2,4.7-14.6c3.1-2.4,8.3-3.5,15.6-3.5c6.8,0,10.8-1.8,12.2-5.3
		c0.6-3,0.9-6.1,0.8-9.1c0-4.2-1.4-7.2-4.2-8.9c-2.8-1.7-6.9-2.5-12.5-2.5h-35.4L1073.2,212.8 M1114.7,67.8h-63.8
		c-12.6,0-20.3,3-23.5,9.1c-1.4,2.5-2.4,5.2-2.9,8c-0.3,3.1-0.5,6.3-0.4,9.4v140.6c0,6.4,0.6,11.2,1.7,14.5
		c2.7,8.3,11,12.5,24.8,12.5h66.6c16.6,0.2,32.5-6.4,43.9-18.4c12-12.1,18.2-27.4,18.6-45.3v-0.1c0-14.5-4.9-28.6-13.9-40
		c5.7-9.1,8.7-19.6,8.6-30.4c0.2-16-6.2-31.3-17.7-42.5C1145.5,73.8,1131.3,67.8,1114.7,67.8L1114.7,67.8z M1077.5,121.1h31.2
		c5.9,0,8.9,1.1,10.3,1.9c0.6,0.3,2.1,1.3,2.1,5.2c0.1,2.6-0.1,5.2-0.6,7.8c-1.1,2.1-5.5,2.4-8.1,2.4c-8.3,0-14.2,1.4-18.1,4.4
		c-4.2,3.2-6.4,9.1-6.4,17.9s2,14.7,6.2,17.9c3.8,3,9.2,4.4,16.3,4.4c5.4,0,9.6,0.6,12.5,1.7c1.1,0.6,2,1.5,2.4,2.7
		c0.8,2.6,1.2,5.3,1.1,8.1c0,9.1-3.5,13-11.7,13h-37.3L1077.5,121.1L1077.5,121.1z"/>
	<path class="st0" d="M1266.1,260.5c-4.6,0.1-9.1-0.4-13.6-1.6c-3.5-1-6.4-3.3-8.1-6.5c-1.3-2.3-2.2-4.9-2.6-7.5
		c-0.3-3.1-0.4-6.2-0.4-9.3v-47.2l-54.3-81.2c-4.2-6.1-6.2-10.9-6.2-14.6c0-6.1,4.1-12,12.1-17.3c8-5.4,13.4-7.8,17.1-7.8
		c3.1-0.1,6.2,0.7,8.8,2.4c3.2,2.1,6.4,5.7,9.7,11l37.5,59.9l37.4-59.9c3.4-5.4,6.4-8.8,9-10.6c2.8-1.9,6.1-2.8,9.4-2.8
		c3.6,0,8.8,2.2,15.9,6.6c9,6.3,13.4,12.3,13.4,18.5c0,3.7-2,8.5-6.2,14.6l-54.3,81.2v47.7c0,3-0.1,6-0.4,9
		c-0.4,2.6-1.3,5.1-2.6,7.4c-1.7,3.1-4.6,5.4-8.1,6.4C1275.2,260.2,1270.7,260.8,1266.1,260.5z"/>
	<path class="st1" d="M1322,69.5c3.1,0,8.1,2.1,14.8,6.4c8.3,5.7,12.4,11.3,12.4,16.7c0,3.2-1.9,7.7-5.8,13.4l-54.7,81.7v48.4
		c0,2.9-0.1,5.8-0.4,8.7c-0.4,2.4-1.2,4.6-2.4,6.7c-1.5,2.6-3.9,4.5-6.8,5.3c-8.5,2-17.3,2-25.8,0c-2.9-0.8-5.4-2.8-6.8-5.4
		c-1.2-2.1-2-4.4-2.4-6.8c-0.3-3-0.4-6-0.4-9v-47.8L1189,106c-3.9-5.7-5.8-10.2-5.8-13.4c0-5.4,3.7-10.6,11.1-15.6
		s12.7-7.5,15.9-7.4c2.7-0.1,5.3,0.6,7.6,2c2.9,1.9,5.9,5.3,9.1,10.4l39.2,62.8l39.2-62.8c3.2-5.1,6-8.4,8.4-10
		C1316.1,70.4,1319,69.5,1322,69.5 M1321.9,65.3c-3.8,0-7.5,1.1-10.6,3.2c-2.9,2-6,5.6-9.5,11.2l-35.7,57l-35.6-57
		c-3.6-5.6-6.9-9.4-10.3-11.7c-3-1.9-6.5-2.9-10-2.8c-4.2,0-10,2.6-18.3,8.2c-8.6,5.8-13,12.2-13,19.1c0,4.1,2.1,9.3,6.6,15.8
		l54,80.7v46.6c-0.1,3.2,0.1,6.4,0.4,9.5c0.5,2.9,1.4,5.7,2.8,8.2c1.9,3.7,5.3,6.4,9.3,7.5c9.3,2.3,19.1,2.3,28.4,0
		c4-1.1,7.3-3.8,9.3-7.4c1.4-2.5,2.4-5.3,2.9-8.2c0.3-3.1,0.5-6.2,0.4-9.3v-47.1l54-80.7c4.4-6.5,6.5-11.7,6.5-15.8
		c0-6.9-4.7-13.5-14.2-20.1l-0.1-0.1l-0.1-0.1C1331.3,67.5,1325.9,65.3,1321.9,65.3L1321.9,65.3z"/>
	<path class="st2" d="M277.6,276.7c-4.1,0.1-8.2-0.3-12.2-1.4c-2.6-0.7-5.1-1.8-7.3-3.4c-1.9-1.6-3.4-3.6-4.2-6l-0.1-0.2
		c-0.9-3.1-1.3-7.6-1.3-13.8v-78.6c-3.8,5-8.7,11.7-14.6,20c-8,11.3-13.3,18.5-15.5,21.5l-4.6,6c-1.1,1.4-3.2,3-6.8,5.1
		c-7.1,4.2-15.9,4.3-23.1,0.3c-2.8-1.4-5.3-3.4-7.3-5.7l-2.1-2.9c-3.4-4.2-9.9-13-20-27c-5.5-7.6-9.6-13.3-12.4-17v78.8
		c0.1,3-0.1,6-0.4,9c-0.4,2.6-1.3,5-2.7,7.2c-2.9,5.3-10,7.9-21.6,7.9c-11.2,0-18.1-2.6-21.1-7.9c-1.4-2.3-2.3-4.7-2.7-7.3
		c-0.3-3.1-0.4-6.2-0.4-9.4V111.5c0-3,0.1-6,0.4-9c0.4-2.6,1.3-5.1,2.6-7.4c3-5.2,10.1-7.7,21.6-7.7c4.2-0.1,8.4,0.5,12.4,1.8
		c3.7,1.2,6,2.5,7.3,4l1.6,1.6l55.9,73.3c27.6-36.4,46.3-61,55.7-72.9c3.3-5.2,10.6-7.7,22.1-7.7s18.7,2.6,21.5,8
		c1.3,2.3,2.2,4.9,2.6,7.5c0.3,3,0.4,6.1,0.4,9.1v140.4c0,12.6-3.7,20.2-11.1,22.5C286.2,276.2,281.9,276.8,277.6,276.7z"/>
	<path class="st1" d="M276.9,89.5c10.7,0,17.3,2.3,19.6,6.8c1.2,2.1,2,4.4,2.4,6.8c0.3,2.9,0.4,5.9,0.4,8.9v140.4
		c0,11.6-3.2,18.5-9.6,20.5c-4,1.1-8,1.6-12.2,1.5c-3.9,0.1-7.9-0.3-11.7-1.3c-2.4-0.6-4.6-1.6-6.6-3c-1.6-1.3-2.9-3.1-3.5-5.1
		c-0.8-2.9-1.3-7.3-1.3-13.2V167c-4.2,5.2-10.4,13.5-18.5,24.9c-8.1,11.4-13.2,18.5-15.4,21.4l-4.6,5.9c-0.8,1.1-2.9,2.6-6.2,4.6
		c-6.5,3.8-14.5,3.9-21,0.3c-2.5-1.3-4.8-3.1-6.7-5.2l-2-2.8c-3.4-4.2-10-13.2-20-27c-10-13.7-15.4-21.1-16.2-22.2v85.3
		c0,2.9-0.1,5.8-0.4,8.7c-0.4,2.3-1.2,4.5-2.4,6.5c-2.5,4.6-9.1,6.8-19.7,6.8c-10.3,0-16.7-2.3-19.2-6.8c-1.2-2-2-4.3-2.4-6.6
		c-0.3-3-0.4-6.1-0.4-9.1V111.5c0-2.9,0.1-5.8,0.4-8.7c0.4-2.4,1.2-4.6,2.4-6.7c2.5-4.4,9.1-6.6,19.7-6.6c4-0.1,8,0.5,11.8,1.6
		c3.3,1.1,5.4,2.2,6.5,3.4l1.5,1.5l57.5,75.4c28.7-38,47.9-63,57.5-75.2C259.4,91.8,266.2,89.4,276.9,89.5 M277,85.2
		c-12.2,0-20.1,2.8-23.8,8.6c-9.3,11.7-27.5,35.5-54.1,70.6l-54.1-71l-0.2-0.2l-0.2-0.2l-1.4-1.4c-1.6-1.7-4.2-3.2-8.2-4.5
		c-4.2-1.3-8.7-1.9-13.1-1.9c-12.4,0-20,2.9-23.4,8.7l0,0V94c-1.4,2.5-2.4,5.3-2.9,8.2c-0.3,3.1-0.5,6.2-0.4,9.3v140.6
		c0,3.2,0.1,6.4,0.4,9.6c0.4,2.9,1.4,5.6,2.9,8.1c3.4,6,10.9,9,22.9,9c12.4,0,20.1-2.9,23.5-9c1.5-2.4,2.5-5.1,2.9-8
		c0.3-3.1,0.5-6.2,0.4-9.3v-72.4l8.5,11.7c10,13.9,16.6,22.7,20.1,27.1l2,2.7l0.1,0.1l0.1,0.1c2.2,2.6,4.9,4.7,7.9,6.2
		c7.9,4.4,17.5,4.3,25.3-0.3c3.9-2.3,6.2-4,7.4-5.6l4.6-6c2.2-2.9,7.4-10.2,15.5-21.5c4.1-5.7,7.7-10.7,10.8-14.8v72.3
		c0,6.4,0.5,11.1,1.4,14.4v0.2l0.1,0.2c1,2.7,2.7,5.1,4.9,6.9c2.4,1.7,5.1,3,8,3.8c4.2,1.1,8.5,1.6,12.8,1.4
		c4.5,0.1,9.1-0.5,13.4-1.7c8.4-2.6,12.6-10.9,12.6-24.5V112c0-3.1-0.1-6.3-0.4-9.4c-0.4-2.9-1.4-5.7-2.9-8.3
		C297.1,88.2,289.5,85.2,277,85.2L277,85.2z"/>
	<path class="st2" d="M473.7,279.4c-3.3,0.1-6.6-0.8-9.3-2.7c-2.1-1.4-3.9-3.3-5.2-5.5c-0.9-1.7-2.3-4.3-4-7.7l-12.6-26.2h-67.5
		l-12.6,26.1c-1.7,3.4-3.1,5.9-4,7.5c-1.4,2.1-3.1,3.9-5.1,5.3c-2.7,2-6,3-9.4,2.8c-3.7,0-8.4-1.5-14.5-4.5
		c-10.5-5.1-15.9-11.2-15.9-18.1c0-3.2,1.5-7.8,4.5-13.9l68.4-141.5c2-4.2,5.3-7.8,9.3-10.2c3.9-2.5,8.5-3.9,13.1-3.9
		c9.9,0,17.4,4.8,22.2,14.3l68.4,141.3c3,6.1,4.5,10.6,4.5,13.8c0,6.9-5.3,13.1-15.9,18.4C482,277.9,477.3,279.4,473.7,279.4z
		 M422.3,195.7L408.7,168l-13.4,27.7H422.3z"/>
	<path class="st1" d="M409,89.1c9.1,0,15.9,4.4,20.3,13.2l68.4,141.3c2.9,5.7,4.3,10,4.3,12.9c0,6.1-4.9,11.6-14.7,16.5
		c-5.7,2.9-10.3,4.3-13.5,4.3c-2.9,0.1-5.7-0.7-8.1-2.3c-1.9-1.2-3.4-2.9-4.6-4.8c-0.9-1.7-2.2-4.2-3.9-7.6L444,235.3h-70.2
		l-13.2,27.4c-1.7,3.4-3,5.8-3.9,7.3c-1.2,1.8-2.8,3.4-4.6,4.7c-2.4,1.7-5.2,2.5-8.1,2.4c-3.3,0-7.8-1.4-13.5-4.3
		c-9.8-4.7-14.7-10.1-14.7-16.2c0-2.9,1.4-7.2,4.3-12.9l68.4-141.5c1.9-3.9,4.8-7.1,8.5-9.4C400.5,90.4,404.7,89.2,409,89.1
		 M392,197.8h33.7l-17-34.7L392,197.8 M409,84.9c-5.1,0-10,1.5-14.3,4.2c-4.4,2.7-7.9,6.5-10.1,11.1l-68.3,141.5
		c-3.2,6.4-4.7,11.2-4.7,14.8c0,7.8,5.7,14.5,17.1,20c6.4,3.2,11.4,4.7,15.4,4.7c3.8,0.1,7.6-1,10.7-3.3c2.2-1.6,4.1-3.6,5.6-5.9
		c1-1.6,2.4-4.2,4.1-7.7v-0.1l12-24.9h64.8l12,24.9v0.1c1.7,3.4,3,6,4,7.8c1.4,2.5,3.4,4.6,5.8,6.2c3.1,2.1,6.8,3.2,10.6,3.1
		c4,0,9-1.6,15.4-4.8c11.3-5.7,17-12.5,17-20.3c0-3.6-1.5-8.3-4.7-14.8l-68.4-141l0,0C427.9,90.3,419.6,84.9,409,84.9z M398.8,193.5
		l10-20.7l10.1,20.7H398.8z"/>
	<path class="st2" d="M635.4,278.4c-3.4,0.1-6.7-0.9-9.4-2.8c-2.1-1.5-3.8-3.4-5.2-5.5v-0.2c-1.7-3.2-8-17.8-19.2-44.6l-6.4,0.4
		h-29.9v26.5c0.1,3-0.1,6-0.4,9c-0.4,2.6-1.3,5.1-2.6,7.4c-2.8,5.3-9.9,8-21.6,8c-12.8,0-20.4-3.6-22.8-10.8
		c-1.1-3.1-1.6-7.6-1.6-13.8V111.5c0-3,0.1-6,0.4-9c0.4-2.6,1.3-5.1,2.6-7.4c2.8-5.3,9.9-8,21.6-8h54.7c15.3,0,30.3,5.6,44.5,16.6
		c7.4,5.9,13.3,13.4,17.3,22c4.6,9.6,6.9,20.2,6.8,30.8c0,19.1-6.3,35.1-18.6,47.6c3.7,8.8,9.3,21.7,16.6,38.4c2.7,6.4,4,11,4,14
		c0,7.3-5.7,13.4-17,18.2C643.6,277.2,639,278.4,635.4,278.4z M595.6,176.8c4.4,0,8.9-1.7,13.4-5.1c4.5-3.4,6.5-8.2,6.5-15
		s-2.1-11.8-6.5-15.2s-9.2-5.3-13.9-5.3h-29.8v40.6H595.6z"/>
	<path class="st1" d="M595.6,89.1c14.8,0,29.3,5.4,43.3,16.2c6.8,5.2,12.3,12.3,16.7,21.3c4.5,9.3,6.7,19.5,6.6,29.9
		c0,19.1-6.3,34.8-19,47.1c3.7,8.9,9.5,22.2,17.2,39.7c2.5,6.1,3.8,10.5,3.8,13.2c0,6.4-5.2,11.8-15.7,16.2c-5.4,2.4-9.7,3.5-13,3.5
		c-2.9,0.1-5.7-0.7-8.1-2.4c-1.9-1.3-3.5-3-4.7-4.9c-1.7-3.2-8.3-18.4-19.8-45.8l-7.8,0.5h-31.9v28.6c0,2.9-0.1,5.8-0.4,8.7
		c-0.4,2.4-1.2,4.6-2.4,6.7c-2.4,4.6-8.9,6.8-19.7,6.8c-11.8,0-18.7-3.1-20.8-9.4c-1-2.9-1.5-7.3-1.5-13.2V111.5
		c0-2.9,0.1-5.8,0.4-8.7c0.4-2.4,1.2-4.6,2.4-6.7c2.4-4.6,8.9-6.9,19.7-6.9L595.6,89.1 M563.1,178.8h32.4c4.9,0,9.8-1.9,14.7-5.6
		s7.3-9.3,7.3-16.7s-2.4-13-7.3-16.8c-4.9-3.8-10-5.7-15.2-5.7h-31.9V178.8 M595.6,84.9h-54.7c-12.6,0-20.3,3-23.5,9.1
		c-1.4,2.5-2.4,5.3-2.9,8.1c-0.3,3.1-0.5,6.2-0.4,9.3V252c0,6.4,0.6,11.2,1.7,14.5c2.7,8.1,11,12.2,24.8,12.2
		c12.6,0,20.3-3,23.5-9.1c1.4-2.5,2.4-5.3,2.8-8.1c0.3-3.1,0.5-6.2,0.4-9.3v-24.3h27.9l4.8-0.3c10.9,26,17,40.2,18.7,43.4l0.1,0.1
		l0.1,0.1c1.5,2.4,3.5,4.5,5.8,6.1c3.1,2.2,6.8,3.4,10.7,3.3c3.9,0,8.7-1.3,14.7-3.9c12.1-5.1,18.3-11.9,18.3-20.1
		c0-3.3-1.3-8-4.1-14.8l0,0l0,0c-7-15.9-12.4-28.3-16.1-37.1c12.1-12.8,18.2-28.9,18.2-48.1c0.1-11-2.3-21.8-7-31.7
		c-4.2-8.9-10.3-16.6-17.9-22.8C626.7,90.8,611.3,84.9,595.6,84.9z M567.4,138.2h27.7c4.3,0,8.4,1.6,12.6,4.8
		c3.8,3,5.7,7.4,5.7,13.5s-1.9,10.4-5.7,13.3c-4.2,3.2-8.1,4.7-12.1,4.7h-28.2V138.2L567.4,138.2z"/>
	<path class="st2" d="M766.7,279.9c-26.1,0-48.7-9.5-67-28.5s-27.6-41.7-27.6-67.8c-0.1-13.8,2.5-27.4,7.8-40.2
		c4.7-11.8,11.8-22.5,20.8-31.5c8.6-8.4,18.7-15.2,29.8-19.9c11-4.8,22.8-7.2,34.7-7.3c25.4,0,47.8,9.3,66.5,27.7
		s28.2,41.5,28.2,68.7s-9.1,50.7-26.9,69.8C815.2,270,792.8,279.9,766.7,279.9z M765.9,133.9c-11.4,0-21.8,4.5-30.9,13.4
		c-9.2,8.9-13.8,20.7-13.8,35.1c0,14.4,4.7,26.1,13.9,35.1c9.2,8.9,19.7,13.5,31.1,13.5c11.4,0,21.8-4.4,31-13.1
		s13.8-20.5,13.8-35.2s-4.7-26.6-13.9-35.4C787.9,138.5,777.3,133.9,765.9,133.9z"/>
	<path class="st1" d="M765.1,86.9c25,0,46.7,9,65.1,27.1c18.4,18.1,27.6,40.5,27.6,67.2s-8.8,49.5-26.3,68.4s-39.2,28.2-64.8,28.2
		c-25.7,0-47.5-9.3-65.4-27.8c-18-18.6-26.9-40.7-26.9-66.3c-0.1-13.5,2.5-26.9,7.6-39.3c4.6-11.5,11.5-22,20.3-30.8
		c8.4-8.2,18.3-14.9,29.1-19.5C742,89.4,753.5,87,765.1,86.9 M766.3,233c12,0,22.8-4.6,32.4-13.7c9.6-9.1,14.4-21.3,14.4-36.7
		s-4.9-27.7-14.6-37c-9.7-9.3-20.6-13.9-32.5-13.9c-12,0-22.8,4.7-32.4,14c-9.6,9.4-14.4,21.6-14.4,36.6c0,15,4.9,27.2,14.6,36.6
		C743.4,228.4,754.2,233,766.3,233 M765.1,82.8c-12.3,0-24.4,2.5-35.6,7.4c-11.3,4.8-21.6,11.8-30.4,20.4
		c-9.2,9.2-16.4,20.1-21.2,32.2c-5.3,13-8,26.9-7.9,41c0,26.7,9.5,50,28.2,69.3c18.7,19.3,41.8,29.1,68.5,29.1s49.6-9.9,67.9-29.6
		c18.3-19.6,27.5-43.5,27.5-71.2s-9.7-51.4-28.9-70.2S791.2,82.8,765.1,82.8z M766.2,228.8c-10.9,0-20.6-4.2-29.6-12.9
		c-9-8.6-13.3-19.6-13.3-33.5c0-14,4.3-24.9,13.1-33.5s18.5-12.9,29.4-12.9s20.6,4.2,29.6,12.7s13.2,19.6,13.2,33.9
		c0,14.3-4.2,25.3-13.1,33.6C786.8,224.7,777.1,228.8,766.2,228.8L766.2,228.8z"/>
	<path class="st2" d="M1014.2,279.4c-5.2,0-10.8-3.6-17.2-10.8l-46.5-53.4L904,268.6c-6.6,7.3-12.2,10.9-17.2,10.9
		s-10.7-3.1-17.9-9.5c-7.1-6.4-10.7-12-10.7-16.9s3.1-10.6,9.4-17.6l49.6-54.5l-49.6-54.5c-6.4-6.7-9.4-12.4-9.4-17.4
		s3.5-10.7,10.6-17.1c7.1-6.5,12.9-9.5,18-9.5s10.7,3.6,17.2,10.8l46.5,53.4L997,93.3c6.6-7.3,12.2-10.9,17.2-10.9
		s10.7,3.1,17.7,9.4c7.1,6.3,10.6,12,10.6,17.3c0,5.2-3,10.9-9.2,17.4l-49.5,54.3l49.6,54.5c6.2,6.9,9.2,12.7,9.2,17.6
		c0,5-3.4,10.6-10.4,17C1025.1,276.3,1019.2,279.4,1014.2,279.4z"/>
	<path class="st1" d="M1014.2,84.4c4.3,0,9.7,3,16.3,8.9s9.9,11.1,9.9,15.7c0,4.6-2.9,9.9-8.6,15.9l-50.9,55.9l50.9,56
		c5.7,6.4,8.6,11.8,8.6,16.2c0,4.4-3.2,9.5-9.7,15.4s-12,8.9-16.5,8.9s-9.7-3.4-15.6-10.1l-48.1-55.1l-48.1,55.1
		c-6.1,6.8-11.3,10.1-15.6,10.1s-9.8-3-16.5-8.9c-6.7-6-10-11.1-10-15.3c0-4.2,3-9.6,8.9-16.2l50.9-56l-50.9-56
		c-5.9-6.2-8.9-11.5-8.9-15.9s3.3-9.6,9.9-15.6c6.6-6,12.1-9,16.6-9s9.7,3.4,15.6,10.1l48.1,55.1l48.1-55.1
		C1004.7,87.8,1009.9,84.4,1014.2,84.4 M1014.2,80.2c-5.6,0-11.7,3.8-18.7,11.5l0,0l0,0l-44.9,51.5l-44.9-51.5
		c-6.8-7.8-13-11.6-18.8-11.6c-5.6,0-12,3.3-19.4,10.1s-11.3,13-11.3,18.7s3.3,11.7,10,18.8l48.3,53l-48.4,53.2
		c-6.7,7.4-10,13.7-10,19.1c0,5.5,3.7,11.6,11.4,18.5s13.8,10.1,19.3,10.1c5.6,0,11.7-3.8,18.7-11.5l0,0l0,0l44.9-51.5l44.9,51.5
		c6.8,7.8,13,11.6,18.8,11.6c5.6,0,11.9-3.3,19.3-10s11.1-12.9,11.1-18.6c0-5.5-3.2-11.7-9.7-19l-48.2-53.2l48.3-53
		c6.6-6.9,9.7-13.1,9.7-18.8s-3.7-12-11.3-18.9C1025.7,83.3,1019.6,80.1,1014.2,80.2L1014.2,80.2z"/>
	<path class="st2" d="M1079.1,276.7c-12.8,0-20.5-3.7-22.8-11.1c-1.1-3.1-1.6-7.6-1.6-13.8V111.2c-0.1-3.1,0.1-6.1,0.4-9.2
		c0.5-2.6,1.4-5,2.7-7.3c2.8-5.3,9.9-8,21.6-8h63.8c16,0,29.7,5.7,40.5,16.8c11.1,10.7,17.2,25.6,17.1,41c0,10.8-3.1,21.5-9.1,30.5
		c9.5,11.9,14.4,25.3,14.4,39.9c-0.3,17.4-6.4,32.2-18,43.9c-11.1,11.5-26.4,18-42.4,17.7L1079.1,276.7L1079.1,276.7z M1143.2,227.7
		c9.4,0,13.8-4.8,13.8-15.1c0.1-3-0.3-6-1.3-8.8c-0.6-1.7-1.9-3.1-3.6-3.9c-3.1-1.2-7.6-1.9-13.3-1.9c-6.5,0-11.6-1.3-15-4
		c-3.6-2.8-5.4-8.1-5.4-16.2s1.8-13.4,5.5-16.2c3.5-2.7,9-4,16.8-4c5.7,0,9.1-1.3,10.1-3.9c0.5-2.8,0.8-5.6,0.7-8.5
		c0-3.5-1.1-5.8-3.2-7.1c-2.4-1.5-6.3-2.2-11.4-2.2h-33.3v91.7L1143.2,227.7z"/>
	<path class="st1" d="M1143.2,88.9c15.6,0,28.5,5.4,39,16.2c10.7,10.3,16.7,24.6,16.5,39.5c0.1,11-3.3,21.7-9.6,30.6
		c10,11.8,14.9,25.1,14.9,39.7c-0.3,16.9-6.1,31-17.3,42.4c-10.6,11.2-25.5,17.4-40.9,17.1h-66.6c-11.8,0-18.7-3.2-20.8-9.6
		c-1-2.9-1.5-7.3-1.5-13.2V111.2c-0.1-3,0.1-5.9,0.4-8.9c0.4-2.3,1.2-4.5,2.4-6.6c2.4-4.6,8.9-6.8,19.7-6.8L1143.2,88.9
		 M1101.7,229.8h41.5c10.6,0,15.9-5.7,15.9-17.2c0.1-3.3-0.3-6.5-1.4-9.6c-0.8-2.2-2.5-4.1-4.7-5.1c-3.4-1.4-8.1-2-14.2-2
		s-10.6-1.2-13.7-3.5c-3-2.4-4.6-7.2-4.6-14.6s1.6-12.2,4.7-14.6c3.1-2.4,8.3-3.5,15.6-3.5c6.8,0,10.8-1.8,12.2-5.3
		c0.6-3,0.9-6.1,0.8-9.1c0-4.2-1.4-7.2-4.2-8.9s-7-2.5-12.5-2.5h-35.4L1101.7,229.8 M1143.1,84.8h-63.8c-12.6,0-20.3,3-23.5,9.1
		c-1.4,2.5-2.4,5.2-2.9,8c-0.3,3.1-0.5,6.3-0.4,9.4v140.5c0,6.4,0.6,11.2,1.7,14.5c2.7,8.3,11,12.5,24.8,12.5h66.6
		c16.6,0.2,32.5-6.4,43.9-18.4c12-12.1,18.2-27.4,18.6-45.3v-0.1c0-14.5-4.9-28.6-13.9-40c5.7-9.1,8.7-19.6,8.6-30.4
		c0.2-16-6.2-31.3-17.7-42.5C1173.9,90.6,1159.8,84.8,1143.1,84.8L1143.1,84.8z M1105.9,138h31.2c5.9,0,8.9,1.1,10.3,1.9
		c0.6,0.3,2.1,1.3,2.1,5.2c0.1,2.6-0.1,5.2-0.6,7.8c-1.1,2.1-5.5,2.4-8.1,2.4c-8.3,0-14.2,1.4-18.1,4.4c-4.2,3.2-6.4,9.1-6.4,17.9
		c0,8.8,2,14.7,6.2,17.9c3.8,3,9.2,4.4,16.3,4.4c5.4,0,9.6,0.6,12.5,1.7c1.1,0.6,2,1.5,2.4,2.7c0.8,2.6,1.2,5.3,1.1,8.1
		c0,9.1-3.5,13-11.7,13h-37.3L1105.9,138L1105.9,138z"/>
	<path class="st2" d="M1294.6,277.4c-4.6,0.1-9.1-0.4-13.6-1.6c-3.5-1-6.4-3.3-8.1-6.5c-1.3-2.3-2.2-4.9-2.6-7.5
		c-0.3-3.1-0.5-6.2-0.4-9.3v-47.2l-54.3-81.2c-4.2-6.1-6.2-10.9-6.2-14.6c0-6.1,4.1-12,12.1-17.3c8-5.4,13.4-7.8,17.1-7.8
		c3.1-0.1,6.2,0.7,8.8,2.4c3.2,2.1,6.4,5.7,9.7,11l37.5,59.9l37.4-59.9c3.4-5.4,6.4-8.8,9-10.6c2.8-1.9,6.1-2.8,9.4-2.8
		c3.6,0,8.8,2.2,15.9,6.6c9,6.3,13.4,12.3,13.4,18.5c0,3.7-2,8.5-6.2,14.6l-54.3,81.2V253c0,3-0.1,6-0.4,9c-0.4,2.6-1.3,5.1-2.6,7.4
		c-1.7,3.1-4.6,5.4-8.1,6.4C1303.6,277,1299.1,277.5,1294.6,277.4z"/>
	<path class="st1" d="M1350.4,86.4c3.1,0,8.1,2.1,14.8,6.4c8.3,5.7,12.4,11.3,12.4,16.7c0,3.2-1.9,7.7-5.8,13.4l-54.7,81.8v48.4
		c0,2.9-0.1,5.8-0.4,8.7c-0.4,2.4-1.2,4.6-2.4,6.7c-1.5,2.6-3.9,4.5-6.8,5.3c-8.5,2-17.3,2-25.8,0c-2.9-0.8-5.4-2.8-6.8-5.4
		c-1.2-2.1-2-4.4-2.4-6.8c-0.3-3-0.5-6-0.5-9.1v-47.8l-54.7-81.8c-3.9-5.7-5.8-10.2-5.8-13.4c0-5.4,3.7-10.6,11.1-15.6
		s12.7-7.5,15.9-7.4c2.7-0.1,5.3,0.6,7.6,2c2.9,1.9,5.9,5.3,9.1,10.4l39.2,62.8l39.2-62.8c3.2-5.1,6-8.4,8.4-10
		C1344.5,87.2,1347.4,86.4,1350.4,86.4 M1350.3,82.2c-3.8,0-7.5,1.1-10.6,3.2c-2.9,2-6,5.6-9.5,11.2l-35.7,57l-35.6-57.1
		c-3.6-5.6-6.9-9.4-10.3-11.7c-3-1.9-6.5-2.9-10-2.8c-4.2,0-10,2.6-18.3,8.2c-8.6,5.8-13,12.2-13,19.1c0,4.1,2.1,9.3,6.6,15.8
		l53.9,80.7v46.5c-0.1,3.2,0.1,6.4,0.4,9.5c0.5,2.9,1.4,5.7,2.8,8.2c1.9,3.7,5.3,6.4,9.3,7.5c9.3,2.3,19.1,2.3,28.4,0
		c4-1.1,7.3-3.8,9.3-7.4c1.4-2.5,2.4-5.3,2.9-8.2c0.3-3.1,0.5-6.2,0.4-9.3v-47l54-80.7c4.4-6.5,6.5-11.7,6.5-15.8
		c0-6.9-4.7-13.5-14.2-20.1l-0.1-0.1l-0.1-0.1C1359.8,84.4,1354.4,82.2,1350.3,82.2L1350.3,82.2z"/>
	<path class="st3" d="M260.7,266.3c-4.1,0.1-8.2-0.3-12.2-1.4c-2.6-0.7-5.1-1.8-7.3-3.4c-1.9-1.6-3.4-3.6-4.2-6l-0.1-0.2
		c-0.9-3.1-1.4-7.6-1.4-13.8v-78.6c-3.8,5-8.7,11.7-14.6,20c-8,11.3-13.3,18.5-15.5,21.5l-4.6,6c-1.1,1.3-3.2,3-6.8,5.1
		c-7.1,4.2-15.9,4.3-23.1,0.3c-2.8-1.4-5.3-3.4-7.3-5.7l-2.1-2.9c-3.4-4.2-9.9-13-20-27c-5.5-7.6-9.6-13.3-12.4-17v78.9
		c0,3-0.1,6-0.4,9c-0.4,2.6-1.3,5-2.7,7.2c-2.9,5.3-10,7.9-21.6,7.9c-11.2,0-18.1-2.6-21.1-7.9c-1.4-2.3-2.3-4.7-2.7-7.3
		c-0.3-3.1-0.4-6.2-0.4-9.4V101.1c0-3,0.1-6,0.4-9c0.4-2.6,1.3-5.1,2.6-7.4c3-5.2,10.1-7.7,21.6-7.7c4.2-0.1,8.4,0.5,12.4,1.7
		c3.7,1.2,6,2.5,7.3,4l1.6,1.6l55.9,73.3c27.6-36.4,46.3-61,55.7-72.9c3.3-5.2,10.6-7.7,22.1-7.7c11.5,0,18.8,2.6,21.6,8
		c1.3,2.3,2.2,4.9,2.6,7.5c0.3,3,0.4,6.1,0.4,9.1v140.5c0,12.6-3.7,20.2-11.1,22.5C269.3,265.9,265,266.4,260.7,266.3z"/>
	<path class="st4" d="M260.1,79.1c10.7,0,17.3,2.3,19.6,6.8c1.2,2.1,2,4.4,2.4,6.8c0.3,2.9,0.4,5.9,0.4,8.9v140.5
		c0,11.6-3.2,18.5-9.6,20.5c-4,1.1-8,1.6-12.2,1.5c-3.9,0.1-7.9-0.3-11.7-1.3c-2.4-0.6-4.6-1.6-6.6-3c-1.6-1.3-2.9-3.1-3.5-5.1
		c-0.8-2.9-1.3-7.3-1.3-13.2v-84.8c-4.2,5.2-10.4,13.5-18.5,24.9c-8.1,11.4-13.2,18.5-15.4,21.4l-4.6,5.9c-0.8,1.1-2.9,2.6-6.2,4.6
		c-6.5,3.8-14.5,3.9-21,0.3c-2.5-1.3-4.8-3.1-6.7-5.2l-2-2.8c-3.4-4.2-10-13.2-20-27c-10-13.7-15.4-21.1-16.2-22.2V242
		c0,2.9-0.1,5.8-0.4,8.7c-0.4,2.3-1.2,4.5-2.4,6.5c-2.5,4.6-9.1,6.8-19.7,6.8c-10.3,0-16.7-2.3-19.2-6.8c-1.2-2-2-4.3-2.4-6.6
		c-0.3-3-0.4-6.1-0.4-9.1V101.1c0-2.9,0.1-5.8,0.4-8.7c0.4-2.4,1.2-4.6,2.4-6.7c2.5-4.4,9.1-6.6,19.7-6.6c4-0.1,8,0.5,11.8,1.6
		c3.3,1.1,5.4,2.2,6.5,3.4l1.5,1.5l57.5,75.4c28.7-38,47.8-63,57.5-75.1C242.5,81.4,249.3,79.1,260.1,79.1 M260.1,74.9
		c-12.2,0-20.1,2.8-23.8,8.6c-9.3,11.7-27.5,35.5-54.1,70.6l-54.1-71l-0.2-0.2l-0.2-0.2l-1.4-1.4c-1.6-1.7-4.2-3.2-8.2-4.5
		c-4.2-1.3-8.7-1.9-13.1-1.9c-12.4,0-20,2.9-23.4,8.7v0.1v0.1c-1.4,2.5-2.4,5.3-2.9,8.2c-0.3,3.1-0.5,6.2-0.4,9.3v140.5
		c0,3.2,0.1,6.4,0.4,9.6c0.4,2.9,1.4,5.6,2.9,8.1c3.4,6.1,10.9,9,22.9,9c12.4,0,20.1-2.9,23.5-9c1.5-2.4,2.5-5.1,2.9-8
		c0.3-3.1,0.5-6.2,0.4-9.3v-72.4l8.5,11.7c10,13.9,16.6,22.7,20.1,27.1l2,2.7l0.1,0.1l0.1,0.1c2.2,2.6,4.9,4.7,7.9,6.2
		c7.9,4.4,17.5,4.3,25.3-0.3c3.9-2.3,6.2-4,7.4-5.6l4.6-6c2.2-2.9,7.4-10.2,15.5-21.5c4.1-5.7,7.7-10.7,10.8-14.8v72.3
		c0,6.4,0.5,11.1,1.4,14.4v0.2l0.1,0.2c1,2.7,2.7,5.1,4.9,6.9c2.4,1.7,5.1,3,8,3.8c4.2,1.1,8.5,1.6,12.8,1.4
		c4.5,0.1,9.1-0.5,13.4-1.7c8.4-2.6,12.6-10.9,12.6-24.5V101.6c0-3.1-0.1-6.3-0.4-9.4c-0.4-2.9-1.4-5.7-2.9-8.3
		C280.2,77.9,272.5,74.9,260.1,74.9L260.1,74.9z"/>
	<path class="st3" d="M456.8,269.2c-3.3,0.1-6.6-0.8-9.3-2.7c-2.1-1.4-3.9-3.3-5.2-5.5c-1-1.7-2.3-4.3-4-7.7l-12.6-26.2h-67.5
		l-12.6,26.1c-1.7,3.4-3.1,5.9-4,7.5c-1.4,2.1-3.1,3.9-5.1,5.3c-2.7,2-6,3-9.4,2.8c-3.7,0-8.4-1.5-14.5-4.5
		c-10.5-5.1-15.9-11.2-15.9-18.1c0-3.2,1.5-7.8,4.5-13.9l68.4-141.5c2-4.2,5.3-7.8,9.3-10.2c3.9-2.5,8.5-3.9,13.1-3.9
		c9.9,0,17.4,4.8,22.2,14.3l68.4,141.3c3,6.1,4.5,10.6,4.5,13.8c0,6.9-5.3,13.1-15.9,18.4C465.2,267.7,460.4,269.2,456.8,269.2z
		 M405.4,185.3l-13.5-27.7l-13.4,27.7H405.4z"/>
	<path class="st4" d="M392.1,78.8c9.1,0,15.9,4.4,20.3,13.2l68.4,141.3c2.9,5.7,4.3,10,4.3,12.9c0,6.1-4.9,11.6-14.7,16.5
		c-5.7,2.9-10.3,4.3-13.5,4.3c-2.9,0.1-5.7-0.7-8.1-2.3c-1.9-1.2-3.4-2.9-4.6-4.8c-0.9-1.7-2.2-4.2-3.9-7.6L427,224.9h-70.1
		l-13.1,27.3c-1.7,3.4-3,5.8-3.9,7.3c-1.2,1.8-2.8,3.4-4.6,4.7c-2.4,1.7-5.2,2.5-8.1,2.4c-3.3,0-7.8-1.4-13.5-4.3
		c-9.8-4.7-14.7-10.1-14.7-16.2c0-2.9,1.4-7.2,4.3-12.9l68.4-141.5c1.9-3.9,4.8-7.1,8.5-9.4C383.7,80.1,387.8,78.9,392.1,78.8
		 M375.1,187.5h33.7l-17-34.7L375.1,187.5 M392.1,74.6c-5.1,0-10,1.5-14.3,4.2c-4.4,2.7-7.9,6.5-10.1,11.1l-68.3,141.5
		c-3.2,6.4-4.7,11.2-4.7,14.8c0,7.8,5.7,14.5,17.1,20c6.4,3.2,11.4,4.7,15.4,4.7c3.8,0.1,7.6-1,10.7-3.3c2.2-1.6,4.1-3.6,5.6-5.9
		c1-1.6,2.4-4.2,4.1-7.7v-0.1l12-24.9h64.8l12.1,24.9v0.1c1.7,3.4,3,6,4,7.8c1.4,2.5,3.4,4.6,5.8,6.2c3.1,2.1,6.8,3.2,10.6,3.1
		c4,0,9-1.6,15.4-4.8c11.3-5.7,17-12.5,17-20.3c0-3.6-1.5-8.3-4.7-14.8l-68.4-141l0,0C411.1,80.1,402.8,74.8,392.1,74.6L392.1,74.6z
		 M381.9,183.2l10-20.7l10.1,20.7H381.9z"/>
	<path class="st3" d="M618.6,268.2c-3.4,0.1-6.7-0.9-9.4-2.8c-2.1-1.5-3.8-3.4-5.2-5.5l-0.1-0.1c-1.7-3.2-8-17.8-19.2-44.6l-6.4,0.4
		h-29.9V242c0.1,3-0.1,6-0.4,9c-0.4,2.6-1.3,5.1-2.6,7.4c-2.8,5.3-9.9,8-21.6,8c-12.8,0-20.4-3.6-22.8-10.8
		c-1.1-3.1-1.6-7.6-1.6-13.8V101.1c-0.1-3,0.1-6,0.4-9c0.4-2.6,1.3-5.1,2.6-7.4c2.8-5.3,9.9-8,21.6-8h54.7
		c15.3,0,30.3,5.6,44.5,16.6c7.4,5.9,13.3,13.4,17.3,22c4.6,9.6,7,20.1,6.9,30.8c0,19.1-6.3,35.1-18.6,47.6
		c3.7,8.8,9.3,21.7,16.6,38.4c2.7,6.4,4,11,4,14c0,7.3-5.7,13.4-17,18.2C626.7,266.8,622.2,268.2,618.6,268.2z M578.7,166.4
		c4.4,0,8.9-1.7,13.4-5.1c4.5-3.4,6.5-8.2,6.5-15s-2.1-11.7-6.5-15.2s-9.2-5.3-13.9-5.3h-29.8v40.6H578.7z"/>
	<path class="st4" d="M578.7,78.8c14.8,0,29.3,5.4,43.3,16.2c6.8,5.2,12.3,12.3,16.7,21.3c4.5,9.3,6.8,19.5,6.6,29.9
		c0,19.1-6.3,34.8-19,47.1c3.7,8.9,9.5,22.2,17.2,39.8c2.5,6.1,3.8,10.5,3.8,13.2c0,6.4-5.2,11.8-15.7,16.2c-5.4,2.4-9.7,3.5-13,3.5
		c-2.9,0.1-5.7-0.7-8.1-2.4c-1.9-1.3-3.5-3-4.7-4.9c-1.7-3.2-8.3-18.5-19.7-45.8l-7.8,0.5h-31.9v28.5c0,2.9-0.1,5.8-0.4,8.7
		c-0.4,2.4-1.2,4.6-2.4,6.7c-2.4,4.6-8.9,6.8-19.7,6.8c-11.8,0-18.7-3.1-20.8-9.4c-1-2.9-1.5-7.3-1.5-13.2V101.1
		c0-2.9,0.1-5.8,0.4-8.7c0.4-2.4,1.2-4.6,2.4-6.7c2.4-4.6,8.9-6.8,19.7-6.8L578.7,78.8 M546.3,168.5h32.4c4.9,0,9.8-1.9,14.7-5.6
		s7.3-9.3,7.3-16.7s-2.4-13-7.3-16.8c-4.9-3.8-10-5.7-15.2-5.7h-31.9V168.5 M578.7,74.6H524c-12.6,0-20.3,3-23.5,9.1
		c-1.4,2.5-2.4,5.3-2.9,8.1c-0.3,3.1-0.5,6.2-0.4,9.3v140.5c0,6.4,0.6,11.2,1.7,14.5c2.7,8.1,11,12.2,24.8,12.2
		c12.6,0,20.3-3,23.5-9.1c1.4-2.5,2.4-5.3,2.8-8.1c0.3-3.1,0.5-6.2,0.4-9.3v-24.4h27.9l4.8-0.3c10.9,26,17,40.2,18.7,43.4l0.1,0.1
		l0.1,0.1c1.5,2.4,3.5,4.5,5.8,6.1c3.1,2.2,6.8,3.4,10.7,3.3c3.9,0,8.7-1.3,14.7-3.9c12.1-5.1,18.3-11.9,18.3-20.1
		c0-3.3-1.3-8-4.1-14.8l0,0l0,0c-7-15.9-12.4-28.3-16.1-37.1c12.1-12.7,18.2-28.9,18.2-48c0.1-11-2.3-21.8-7-31.7
		c-4.2-8.9-10.3-16.6-17.9-22.8C609.8,80.4,594.4,74.6,578.7,74.6L578.7,74.6z M550.5,127.9h27.7c4.3,0,8.4,1.6,12.6,4.8
		c3.8,3,5.7,7.4,5.7,13.5s-1.9,10.4-5.7,13.3c-4.2,3.2-8.1,4.7-12.1,4.7h-28.2V127.9z"/>
	<path class="st3" d="M749.8,269.7c-26.1,0-48.7-9.5-67-28.5s-27.6-41.7-27.6-67.8c-0.1-13.8,2.5-27.4,7.8-40.2
		c4.7-11.8,11.8-22.5,20.7-31.5c8.6-8.4,18.7-15.2,29.8-19.9c11-4.8,22.8-7.2,34.8-7.3c25.4,0,47.8,9.3,66.5,27.7
		s28.2,41.5,28.2,68.7s-9.1,50.7-26.9,69.8S776,269.7,749.8,269.7z M749.1,123.5c-11.4,0-21.8,4.5-30.9,13.4s-13.8,20.7-13.8,35.1
		c0,14.4,4.7,26.1,13.9,35.1s19.7,13.5,31.1,13.5c11.4,0,21.8-4.4,31-13.1s13.8-20.5,13.8-35.2s-4.7-26.6-13.9-35.4
		C770.9,128.1,760.4,123.5,749.1,123.5L749.1,123.5z"/>
	<path class="st4" d="M748.3,76.6c25,0,46.7,9,65.1,27.1c18.4,18.1,27.6,40.5,27.6,67.2c0,26.7-8.8,49.5-26.3,68.4
		s-39.2,28.2-64.8,28.2c-25.7,0-47.5-9.3-65.4-27.8c-18-18.6-27-40.7-27-66.3c-0.1-13.5,2.5-26.9,7.6-39.4
		c4.6-11.5,11.5-22,20.3-30.8c8.4-8.2,18.3-14.9,29.1-19.5C725,79,736.6,76.6,748.3,76.6 M749.3,222.8c12,0,22.8-4.6,32.4-13.7
		c9.6-9.1,14.4-21.3,14.4-36.7c0-15.4-4.9-27.7-14.6-37c-9.7-9.3-20.6-13.9-32.6-13.9s-22.8,4.7-32.4,14S702.1,157,702.1,172
		s4.9,27.2,14.6,36.6C726.5,218,737.3,222.7,749.3,222.8 M748.3,72.3c-12.3,0-24.4,2.5-35.6,7.4c-11.3,4.8-21.6,11.8-30.4,20.4
		c-9.2,9.2-16.4,20.1-21.2,32.2c-5.3,13-8,26.9-7.9,41c0,26.7,9.5,50,28.2,69.3s41.8,29.1,68.5,29.1s49.6-9.9,67.9-29.6
		c18.3-19.6,27.5-43.5,27.5-71.2s-9.7-51.4-28.9-70.2C797.1,81.8,774.2,72.3,748.3,72.3L748.3,72.3z M749.3,218.4
		c-10.9,0-20.6-4.2-29.6-12.9c-9-8.6-13.3-19.6-13.3-33.5c0-14,4.3-24.9,13.1-33.5s18.5-12.9,29.4-12.9s20.6,4.2,29.6,12.7
		c9,8.6,13.2,19.6,13.2,33.9s-4.2,25.3-13.1,33.6C769.7,214.2,760.3,218.4,749.3,218.4L749.3,218.4z"/>
	<path class="st3" d="M997.3,269.2c-5.2,0-10.8-3.6-17.2-10.8l-46.5-53.4L887,258.3c-6.6,7.3-12.2,10.9-17.2,10.9
		s-10.7-3.1-17.9-9.5c-7.1-6.4-10.7-12-10.7-16.9s3.1-10.6,9.4-17.6l49.6-54.5L850.8,116c-6.4-6.7-9.4-12.4-9.4-17.4
		s3.5-10.7,10.6-17.1c7.1-6.4,12.9-9.5,18-9.5s10.7,3.6,17.1,10.9l46.5,53.4L980.2,83c6.6-7.3,12.2-10.9,17.2-10.9
		s10.7,3.1,17.8,9.4s10.6,12,10.6,17.3s-3,10.8-9.2,17.4L967,170.7l49.6,54.5c6.2,6.9,9.2,12.7,9.2,17.6s-3.4,10.6-10.4,17
		C1008.1,266,1002.4,269.2,997.3,269.2z"/>
	<path class="st4" d="M997.3,74c4.3,0,9.7,3,16.3,8.9s9.9,11.1,9.9,15.7c0,4.6-2.9,9.9-8.6,15.9L964,170.5l50.9,56
		c5.7,6.4,8.6,11.8,8.6,16.2s-3.2,9.5-9.7,15.4s-12,8.9-16.5,8.9s-9.7-3.4-15.6-10.1l-48.1-55.1l-48.1,55.1
		c-6.1,6.8-11.3,10.1-15.6,10.1s-9.8-3-16.5-9s-10-11.1-10-15.3c0-4.2,3-9.6,8.9-16.2l50.9-56l-50.9-55.9
		c-5.9-6.2-8.9-11.5-8.9-15.9s3.3-9.6,9.9-15.6c6.6-6,12.1-9,16.6-9s9.7,3.4,15.6,10.1l48.1,55.1l48.1-55.1
		C987.8,77.5,993,74.1,997.3,74 M997.3,69.9c-5.6,0-11.7,3.8-18.7,11.5l0,0l0,0l-45,51.5l-44.9-51.5c-6.8-7.8-13-11.6-18.8-11.6
		c-5.6,0-12,3.3-19.4,10.1s-11.3,13-11.3,18.7s3.3,11.8,10,18.8l48.3,53l-48.3,53.1c-6.7,7.4-10,13.7-10,19.1
		c0,5.5,3.7,11.6,11.4,18.5s13.8,10.1,19.3,10.1c5.6,0,11.7-3.8,18.7-11.5l0,0l0,0l44.9-51.5l44.9,51.5c6.8,7.8,13,11.6,18.8,11.6
		c5.6,0,11.9-3.3,19.3-10c7.4-6.7,11.1-12.9,11.1-18.6c0-5.5-3.2-11.7-9.7-19l-48.1-53.2l48.3-53c6.6-6.9,9.7-13.1,9.7-18.8
		s-3.7-12.1-11.3-18.9C1008.8,72.9,1002.7,69.8,997.3,69.9L997.3,69.9z"/>
	<path class="st3" d="M1062.2,266.3c-12.8,0-20.5-3.7-22.8-11.1c-1.1-3.1-1.6-7.6-1.6-13.8V100.9c-0.1-3.1,0.1-6.1,0.4-9.1
		c0.4-2.6,1.3-5,2.6-7.3c2.8-5.3,9.9-8,21.6-8h63.8c16,0,29.7,5.7,40.5,16.8c11.1,10.7,17.2,25.6,17.1,41c0,10.8-3.1,21.5-9.1,30.5
		c9.5,11.9,14.4,25.3,14.4,39.9c-0.3,17.4-6.4,32.2-18,43.9c-11.1,11.5-26.4,18-42.4,17.7H1062.2z M1126.3,217.2
		c9.4,0,13.8-4.8,13.8-15.1c0.1-3-0.3-6-1.3-8.8c-0.6-1.7-1.9-3.1-3.6-3.9c-3.1-1.2-7.6-1.9-13.3-1.9c-6.5,0-11.6-1.3-15-4
		c-3.6-2.8-5.4-8.1-5.4-16.2c0-8.1,1.8-13.4,5.5-16.2c3.5-2.7,9-4,16.8-4c5.7,0,9.1-1.3,10.1-3.9c0.5-2.8,0.8-5.6,0.7-8.5
		c0-3.5-1.1-5.8-3.2-7.1c-2.4-1.5-6.3-2.2-11.4-2.2h-33.2v91.8L1126.3,217.2L1126.3,217.2z"/>
	<path class="st4" d="M1126.3,78.6c15.6,0,28.5,5.4,39,16.2c10.7,10.3,16.7,24.6,16.5,39.5c0.1,11-3.3,21.7-9.6,30.6
		c10,11.8,14.9,25.1,14.9,39.7c-0.3,16.9-6.1,31-17.3,42.4c-10.6,11.1-25.5,17.3-40.9,17.1h-66.6c-11.8,0-18.7-3.2-20.8-9.6
		c-1-2.9-1.5-7.3-1.5-13.2V100.9c-0.1-3,0.1-5.9,0.4-8.9c0.4-2.3,1.2-4.5,2.4-6.6c2.4-4.6,8.9-6.8,19.7-6.8H1126.3 M1084.8,219.4
		h41.5c10.6,0,15.9-5.7,15.9-17.2c0.1-3.3-0.3-6.5-1.4-9.6c-0.8-2.2-2.5-4.1-4.7-5.1c-3.4-1.4-8.1-2-14.2-2s-10.6-1.2-13.7-3.5
		c-3-2.4-4.6-7.2-4.6-14.6c0-7.4,1.6-12.2,4.7-14.6c3.1-2.4,8.3-3.5,15.6-3.5c6.8,0,10.8-1.8,12.2-5.3c0.6-3,0.9-6.1,0.8-9.1
		c0-4.2-1.4-7.2-4.2-8.9s-7-2.5-12.5-2.5h-35.4L1084.8,219.4 M1126.3,74.4h-63.8c-12.6,0-20.3,3-23.5,9.1c-1.4,2.5-2.4,5.2-2.9,8
		c-0.3,3.1-0.5,6.3-0.4,9.4v140.5c0,6.4,0.6,11.2,1.7,14.5c2.7,8.3,11,12.5,24.8,12.5h66.6c16.6,0.2,32.5-6.4,43.9-18.4
		c12-12.1,18.2-27.4,18.6-45.3l0,0c0-14.5-4.9-28.6-13.9-40c5.7-9.1,8.7-19.6,8.6-30.4c0.2-16-6.2-31.3-17.7-42.5
		C1157.1,80.3,1142.9,74.4,1126.3,74.4L1126.3,74.4z M1089,127.6h31.2c5.9,0,8.9,1.1,10.3,1.9c0.6,0.3,2.1,1.3,2.1,5.2
		c0.1,2.6-0.1,5.2-0.6,7.8c-1.1,2.1-5.5,2.4-8.1,2.4c-8.3,0-14.2,1.4-18.1,4.4c-4.2,3.2-6.4,9.1-6.4,17.9s2,14.7,6.2,17.9
		c3.8,3,9.2,4.4,16.3,4.4c5.4,0,9.6,0.6,12.5,1.7c1.1,0.6,2,1.5,2.4,2.7c0.8,2.6,1.2,5.3,1.1,8.1c0,9.1-3.5,13-11.7,13h-37.3
		L1089,127.6L1089,127.6z"/>
	<path class="st3" d="M1277.7,267.2c-4.6,0.1-9.1-0.4-13.6-1.6c-3.5-1-6.4-3.3-8.1-6.5c-1.3-2.3-2.2-4.9-2.6-7.5
		c-0.3-3.1-0.4-6.2-0.4-9.3v-47.3l-54.3-81.2c-4.2-6.1-6.2-10.9-6.2-14.6c0-6.1,4.1-12,12.1-17.3c8-5.4,13.4-7.8,17.1-7.8
		c3.1-0.1,6.2,0.7,8.8,2.4c3.2,2.1,6.4,5.7,9.7,11l37.5,59.9l37.4-59.9c3.4-5.4,6.4-8.8,9-10.6c2.8-1.9,6.1-2.8,9.4-2.8
		c3.6,0,8.8,2.2,15.9,6.6c9,6.3,13.4,12.3,13.4,18.5c0,3.7-2,8.5-6.2,14.6l-54.3,81.2v47.7c0,3-0.1,6-0.4,9
		c-0.4,2.6-1.3,5.1-2.6,7.4c-1.7,3.1-4.6,5.4-8.1,6.4C1286.8,266.8,1282.2,267.2,1277.7,267.2z"/>
	<path class="st4" d="M1333.5,76.1c3.1,0,8.1,2.1,14.8,6.4c8.3,5.7,12.4,11.3,12.4,16.7c0,3.2-1.9,7.7-5.8,13.4l-54.7,81.8v48.4
		c0,2.9-0.1,5.8-0.4,8.7c-0.4,2.4-1.2,4.6-2.4,6.7c-1.5,2.6-3.9,4.5-6.8,5.3c-8.5,2-17.3,2-25.8,0c-2.9-0.8-5.4-2.8-6.8-5.4
		c-1.2-2.1-2-4.4-2.4-6.8c-0.3-3-0.4-6-0.4-9v-47.9l-54.7-81.8c-3.9-5.7-5.8-10.2-5.8-13.4c0-5.4,3.7-10.6,11.1-15.6
		s12.7-7.5,15.9-7.4c2.7-0.1,5.3,0.6,7.6,2c2.9,1.9,5.9,5.3,9.1,10.4l39.2,62.8l39.2-62.8c3.2-5.1,6-8.4,8.4-10
		C1327.7,76.9,1330.5,76,1333.5,76.1 M1333.5,71.8c-3.8,0-7.5,1.1-10.6,3.2c-2.9,2-6,5.6-9.5,11.2l-35.6,57l-35.6-57
		c-3.6-5.6-6.9-9.4-10.3-11.7c-3-1.9-6.5-2.9-10-2.8c-4.2,0-10,2.6-18.3,8.2c-8.6,5.8-13,12.2-13,19.1c0,4.1,2.1,9.3,6.6,15.8
		l54,80.7v46.6c-0.1,3.2,0.1,6.4,0.4,9.5c0.5,2.9,1.4,5.7,2.8,8.2c1.9,3.7,5.3,6.4,9.3,7.5c9.3,2.3,19.1,2.3,28.4,0
		c4-1.1,7.3-3.8,9.3-7.4c1.4-2.5,2.4-5.3,2.9-8.2c0.3-3.1,0.5-6.2,0.4-9.3v-47l54-80.7c4.4-6.5,6.5-11.7,6.5-15.8
		c0-6.9-4.7-13.5-14.2-20.1l-0.1-0.1l-0.1-0.1C1342.9,74.1,1337.5,71.9,1333.5,71.8L1333.5,71.8z"/>
</g>
<rect x="688.6" y="1333.4" class="st5" width="678.1" height="252"/>
<text transform="matrix(1 0 0 1 688.6328 1341.9258)" style="font-family:'MyriadPro-Regular'; font-size:12px;">play</text>
</svg>
