<?xml version="1.0" encoding="utf-8"?>
<!-- Generator: Adobe Illustrator 21.0.0, SVG Export Plug-In . SVG Version: 6.00 Build 0)  -->
<svg version="1.1" id="Layer_1" xmlns="http://www.w3.org/2000/svg" xmlns:xlink="http://www.w3.org/1999/xlink" x="0px" y="0px"
	 viewBox="0 0 822.5 5329" style="enable-background:new 0 0 822.5 5329;" xml:space="preserve">
<style type="text/css">
	.st0{fill:#FF6138;}
	.st1{fill:#591107;}
	.st2{fill:#FF6138;stroke:#591107;stroke-width:3;stroke-miterlimit:10;}
	.st3{fill:#FF6138;stroke:#591107;stroke-width:4;stroke-miterlimit:10;}
	.st4{clip-path:url(#SVGID_2_);}
	.st5{fill:none;}
	.st6{fill:#A82B13;}
	.st7{clip-path:url(#SVGID_4_);}
	.st8{fill:#FFFFFF;}
	.st9{clip-path:url(#SVGID_6_);}
	.st10{clip-path:url(#SVGID_8_);}
	.st11{clip-path:url(#SVGID_10_);}
	.st12{clip-path:url(#SVGID_12_);}
	.st13{clip-path:url(#SVGID_14_);}
	.st14{clip-path:url(#SVGID_16_);}
	.st15{clip-path:url(#SVGID_18_);}
	.st16{clip-path:url(#SVGID_20_);}
	.st17{clip-path:url(#SVGID_22_);}
	.st18{clip-path:url(#SVGID_24_);}
	.st19{clip-path:url(#SVGID_26_);}
	.st20{clip-path:url(#SVGID_28_);}
	.st21{clip-path:url(#SVGID_30_);}
	.st22{clip-path:url(#SVGID_32_);}
	.st23{clip-path:url(#SVGID_34_);}
	.st24{clip-path:url(#SVGID_36_);}
	.st25{clip-path:url(#SVGID_38_);}
	.st26{clip-path:url(#SVGID_40_);}
</style>
<g>
	<rect x="452.2" y="4363.4" class="st0" width="128.4" height="47"/>
	<path class="st1" d="M578.7,4365.4v43H454.2v-43H578.7 M582.7,4361.4h-4H454.2h-4v4v43v4h4h124.4h4v-4v-43L582.7,4361.4
		L582.7,4361.4z"/>
</g>
<g>
	<rect x="451.6" y="4945.6" class="st0" width="128.4" height="47"/>
	<path class="st1" d="M578,4947.6v43H453.6v-43H578 M582,4943.6h-4H453.6h-4v4v43v4h4H578h4v-4v-43V4943.6L582,4943.6z"/>
</g>
<g>
	<rect x="216.1" y="3737.6" class="st0" width="128.4" height="47"/>
	<path class="st1" d="M342.5,3739.6v43H218.1v-43H342.5 M346.5,3735.6h-4H218.1h-4v4v43v4h4h124.4h4v-4v-43V3735.6L346.5,3735.6z"/>
</g>
<g>
	<rect x="495.4" y="3429.1" class="st0" width="47" height="128.4"/>
	<path class="st1" d="M540.4,3431.1v124.4h-43v-124.4H540.4 M544.4,3427.1h-4h-43h-4v4v124.4v4h4h43h4v-4v-124.4V3427.1
		L544.4,3427.1z"/>
</g>
<g>
	<rect x="312.9" y="2718.5" class="st0" width="47" height="128.4"/>
	<path class="st1" d="M357.9,2720.5v124.4h-43v-124.4H357.9 M361.9,2716.5h-4h-43h-4v4v124.4v4h4h43h4v-4v-124.4V2716.5
		L361.9,2716.5z"/>
</g>
<g>
	<path class="st2" d="M339.5,898h-215V501.7c0-9.2,7.5-16.7,16.7-16.7h314.5c1,0,1.7-0.7,1.7-1.7v-433c0-4.1,3.4-7.5,7.5-7.5
		s7.5,3.4,7.5,7.5v433c0,9.2-7.5,16.7-16.7,16.7H141.2c-1,0-1.7,0.7-1.7,1.7V883h185V701.7c0-9.2,7.5-16.7,16.7-16.7h311
		c3,0,5.3-2.3,5.3-5.3V50.3c0-4.1,3.4-7.5,7.5-7.5s7.5,3.4,7.5,7.5v629.4c0,11.2-9.1,20.3-20.3,20.3h-311c-1,0-1.7,0.7-1.7,1.7V898z
		"/>
</g>
<title>maze</title>
<g>
	<g>
		<rect x="594.2" y="2391.3" class="st0" width="128.4" height="47"/>
		<path class="st1" d="M720.6,2393.3v43H596.2v-43H720.6 M724.6,2389.3h-4H596.2h-4v4v43v4h4h124.4h4v-4v-43L724.6,2389.3
			L724.6,2389.3z"/>
	</g>
	<g>
		<rect x="94.7" y="2070.2" class="st0" width="128.4" height="47"/>
		<path class="st1" d="M221.1,2072.2v43H96.7v-43H221.1 M225.1,2068.2h-4H96.7h-4v4v43v4h4h124.4h4v-4v-43V2068.2L225.1,2068.2z"/>
	</g>
	<g>
		<rect x="93.2" y="1610.5" class="st0" width="128.4" height="47"/>
		<path class="st1" d="M219.6,1612.5v43H95.2v-43H219.6 M223.6,1608.5h-4H95.2h-4v4v43v4h4h124.4h4v-4v-43V1608.5L223.6,1608.5z"/>
	</g>
	<g>
		<rect x="537.3" y="819.8" class="st0" width="47" height="128.4"/>
		<path class="st1" d="M582.3,821.8v124.4h-43V821.8H582.3 M586.3,817.8h-4h-43h-4v4v124.4v4h4h43h4v-4V821.8V817.8L586.3,817.8z"/>
	</g>
	<path class="st3" d="M294,692.7"/>
	<path class="st3" d="M308.1,740.3"/>
	<g>
		<rect x="167.2" y="752.4" class="st0" width="128.4" height="47"/>
		<path class="st1" d="M293.6,754.4v43H169.2v-43H293.6 M297.6,750.4h-4H169.2h-4v4v43v4h4h124.4h4v-4v-43V750.4L297.6,750.4z"/>
	</g>
	<path class="st2" d="M794,779H544l-482.4,0.5c-7.5,0-13.6,6.1-13.6,13.6V1279c0,7.5,6.1,13.6,13.6,13.6h485.9
		c7.5,0,13.6-6.1,13.6-13.6V987H594c7.4,0,13.5,6.1,13.5,13.5v324c0,7.4-6.1,13.5-13.5,13.5H79c-15.7,0-28.5,12.8-28.5,28.5v268.1
		H21.1c-7.5,0-13.6,6.1-13.6,13.6V2078c0,7.5,6.1,13.6,13.6,13.6h24.4v241.9c0,15.7,12.8,28.5,28.5,28.5h422
		c15.7,0,28.5-12.8,28.5-28.5v-496c0-7.4,6.1-13.5,13.5-13.5s13.5,6.1,13.5,13.5v584H357.6c-7.5,0-13.6,6.1-13.6,13.6V2675H105
		c-15.7,0-28.5,12.8-28.5,28.5v504c0,15.7,12.8,28.5,28.5,28.5h464c7.4,0,13.5,6.1,13.5,13.5v124c0,7.4-6.1,13.5-13.5,13.5h-52.9
		v-70.9c0-7.5-6.1-13.6-13.6-13.6H72.6c-7.5,0-13.6,6.1-13.6,13.6V3746c0,7.5,6.1,13.6,13.6,13.6h99.9v501.9
		c0,15.7,12.8,28.5,28.5,28.5h194c7.4,0,13.5,6.1,13.5,13.5v90h-32.9c-7.5,0-13.6,6.1-13.6,13.6V4948c0,7.5,6.1,13.6,13.6,13.6h32.9
		v138.9c0,7.4-6.1,13.5-13.5,13.5H163c-15.7,0-28.5,12.8-28.5,28.5v158c0,15.7,12.8,28.5,28.5,28.5h432c15.7,0,28.5-12.8,28.5-28.5
		v-338.9h41c7.5,0,13.6-6.1,13.6-13.6v-540.9c0-7.5-6.1-13.6-13.6-13.6h-41v-290c0-15.7-12.8-28.5-28.5-28.5H401
		c-7.4,0-13.5-6.1-13.5-13.5v-301.9h115c7.5,0,13.6-6.1,13.6-13.6v-144H739c15.7,0,28.5-12.8,28.5-28.5v-510
		c0-15.7-12.8-28.5-28.5-28.5H282c-7.4,0-13.5-6.1-13.5-13.5v-118c0-7.4,6.1-13.5,13.5-13.5h62v51c0,7.5,6.1,13.6,13.6,13.6h419.9
		c7.5,0,13.6-6.1,13.6-13.6v-505.9c0-7.5-6.1-13.6-13.6-13.6h-11v-784c0-15.7-12.8-28.5-28.5-28.5H338c-15.7,0-28.5,12.8-28.5,28.5
		v496c0,7.4-6.1,13.5-13.5,13.5h-22c-7.4,0-13.5-6.1-13.5-13.5v-41.9h5.4c7.5,0,13.6-6.1,13.6-13.6v-429.9c0-7.5-6.1-13.6-13.6-13.6
		h-0.4v-68.1c0-7.4,6.1-13.5,13.5-13.5h515c15.7,0,28.5-12.8,28.5-28.5v-717C822.5,791.8,809.7,779,794,779z M608.5,5300.5
		c0,7.4-6.1,13.5-13.5,13.5H163c-7.4,0-13.5-6.1-13.5-13.5v-158c0-7.4,6.1-13.5,13.5-13.5h232c15.7,0,28.5-12.8,28.5-28.5v-138.9
		h185V5300.5z M401,4090h194c7.4,0,13.5,6.1,13.5,13.5v290h-185v-90c0-15.7-12.8-28.5-28.5-28.5H201c-7.4,0-13.5-6.1-13.5-13.5
		v-501.9h185v301.9C372.5,4077.2,385.3,4090,401,4090z M344,2875h-62c-15.7,0-28.5,12.8-28.5,28.5v118c0,15.7,12.8,28.5,28.5,28.5
		h457c7.4,0,13.5,6.1,13.5,13.5v510c0,7.4-6.1,13.5-13.5,13.5H516.1v-185H569c15.7,0,28.5-12.8,28.5-28.5v-124
		c0-15.7-12.8-28.5-28.5-28.5H105c-7.4,0-13.5-6.1-13.5-13.5v-504c0-7.4,6.1-13.5,13.5-13.5h239V2875z M274,2162h22
		c15.7,0,28.5-12.8,28.5-28.5v-496c0-7.4,6.1-13.5,13.5-13.5h400c7.4,0,13.5,6.1,13.5,13.5v784h-185v-584
		c0-15.7-12.8-28.5-28.5-28.5s-28.5,12.8-28.5,28.5v496c0,7.4-6.1,13.5-13.5,13.5H74c-7.4,0-13.5-6.1-13.5-13.5v-241.9h185v41.9
		C245.5,2149.2,258.3,2162,274,2162z M807.5,1524.5c0,7.4-6.1,13.5-13.5,13.5H279c-15.7,0-28.5,12.8-28.5,28.5v68.1h-185v-268.1
		c0-7.4,6.1-13.5,13.5-13.5h515c15.7,0,28.5-12.8,28.5-28.5v-324c0-15.7-12.8-28.5-28.5-28.5h-32.9V794H794
		c7.4,0,13.5,6.1,13.5,13.5V1524.5z"/>
	<g>
		<g>
			<g>
				<path class="st0" d="M219.6,1653.5v-43h0.3c7.8,0,14.1-6.3,14.1-14.1v-33.5c0-7.8-6.3-14.1-14.1-14.1H96.3
					c-7.8,0-14.1,6.3-14.1,14.1v33.5c0,7.4,5.7,13.5,13,14.1v43H219.6z"/>
			</g>
			<g>
				<g>
					<g>
						<defs>
							<path id="SVGID_1_" d="M219.6,1636.5v-26h0.3c7.8,0,14.1-6.3,14.1-14.1v-33.5c0-7.8-6.3-14.1-14.1-14.1H96.3
								c-7.8,0-14.1,6.3-14.1,14.1v33.5c0,7.4,5.7,13.5,13,14.1v26H219.6z"/>
						</defs>
						<clipPath id="SVGID_2_">
							<use xlink:href="#SVGID_1_"  style="overflow:visible;"/>
						</clipPath>
						<g class="st4">
							<g>
								<path class="st0" d="M219.6,1653.5v-43h0.3c7.8,0,14.1-6.3,14.1-14.1v-33.5c0-7.8-6.3-14.1-14.1-14.1H96.3
									c-7.8,0-14.1,6.3-14.1,14.1v33.5c0,7.4,5.7,13.5,13,14.1v43H219.6z"/>
							</g>
							<g>
								<path class="st0" d="M219.6,1653.5v-43h0.3c7.8,0,14.1-6.3,14.1-14.1v-33.5c0-7.8-6.3-14.1-14.1-14.1H96.3
									c-7.8,0-14.1,6.3-14.1,14.1v33.5c0,7.4,5.7,13.5,13,14.1v43H219.6z"/>
							</g>
							<g>
								<g>
									<line class="st5" x1="192" y1="1556.5" x2="192" y2="1652.5"/>
									<rect x="168.5" y="1556.5" class="st6" width="47" height="96"/>
								</g>
								<g>
									<rect x="151" y="1556.5" class="st6" width="6" height="96"/>
								</g>
								<g>
									<rect x="97" y="1556.5" class="st6" width="10" height="96"/>
								</g>
								<g>
									<g>
										<rect x="74.6" y="1556.5" class="st6" width="27.3" height="3"/>
									</g>
								</g>
								<g>
									<g>
										<rect x="150.6" y="1556.5" class="st6" width="83.5" height="3"/>
									</g>
								</g>
							</g>
							<g>
								<path class="st5" d="M220.6,1610.5H95.7c-7.5,0-13.5-6.1-13.5-13.5v-34.7c0-7.5,6.1-13.5,13.5-13.5h124.9
									c7.5,0,13.5,6.1,13.5,13.5v34.7C234.1,1604.4,228.1,1610.5,220.6,1610.5z"/>
							</g>
							<g>
								<g>
									<defs>
										<path id="SVGID_3_" d="M219.6,1653.5v-43h0.3c7.8,0,14.1-6.3,14.1-14.1v-33.5c0-7.8-6.3-14.1-14.1-14.1H96.3
											c-7.8,0-14.1,6.3-14.1,14.1v33.5c0,7.4,5.7,13.5,13,14.1v43H219.6z"/>
									</defs>
									<clipPath id="SVGID_4_">
										<use xlink:href="#SVGID_3_"  style="overflow:visible;"/>
									</clipPath>
									<g class="st7">
										<g>
											<line class="st5" x1="192" y1="1556.5" x2="192" y2="1662.5"/>
											<rect x="168.5" y="1556.5" class="st6" width="47" height="106"/>
										</g>
										<g>
											<rect x="151" y="1556.5" class="st6" width="6" height="106"/>
										</g>
										<g>
											<rect x="97" y="1556.5" class="st6" width="10" height="106"/>
										</g>
										<g>
											<g>
												<rect x="74.6" y="1556.5" class="st6" width="27.3" height="3"/>
											</g>
										</g>
										<g>
											<g>
												<rect x="150.6" y="1556.5" class="st6" width="83.5" height="3"/>
											</g>
										</g>
									</g>
								</g>
								<g>
									<rect x="107.1" y="1556.8" class="st8" width="3" height="104.8"/>
								</g>
							</g>
						</g>
						<g class="st4">
							<path class="st1" d="M220.4,1612.5H95.8c-8.7,0-15.7-7-15.7-15.7v-34.3c0-8.7,7-15.7,15.7-15.7h124.6c8.7,0,15.7,7,15.7,15.7
								v34.3C236.1,1605.5,229.1,1612.5,220.4,1612.5z M95.8,1550.8c-6.4,0-11.7,5.2-11.7,11.7v34.3c0,6.4,5.2,11.7,11.7,11.7h124.6
								c6.4,0,11.7-5.2,11.7-11.7v-34.3c0-6.4-5.2-11.7-11.7-11.7H95.8z"/>
						</g>
					</g>
				</g>
			</g>
			<g>
				<g id="games">
					<g>
						<path class="st0" d="M720.7,2439.3v-43h0.3c7.8,0,14.1-6.3,14.1-14.1v-33.5c0-7.8-6.3-14.1-14.1-14.1H597.3
							c-7.8,0-14.1,6.3-14.1,14.1v33.5c0,7.4,5.7,13.5,13,14.1v43H720.7z"/>
					</g>
					<g>
						<g>
							<g>
								<defs>
									<path id="SVGID_5_" d="M720.7,2422.3v-26h0.3c7.8,0,14.1-6.3,14.1-14.1v-33.5c0-7.8-6.3-14.1-14.1-14.1H597.3
										c-7.8,0-14.1,6.3-14.1,14.1v33.5c0,7.4,5.7,13.5,13,14.1v26H720.7z"/>
								</defs>
								<clipPath id="SVGID_6_">
									<use xlink:href="#SVGID_5_"  style="overflow:visible;"/>
								</clipPath>
								<g class="st9">
									<g>
										<path class="st0" d="M720.7,2439.3v-43h0.3c7.8,0,14.1-6.3,14.1-14.1v-33.5c0-7.8-6.3-14.1-14.1-14.1H597.3
											c-7.8,0-14.1,6.3-14.1,14.1v33.5c0,7.4,5.7,13.5,13,14.1v43H720.7z"/>
									</g>
									<g>
										<path class="st0" d="M720.7,2439.3v-43h0.3c7.8,0,14.1-6.3,14.1-14.1v-33.5c0-7.8-6.3-14.1-14.1-14.1H597.3
											c-7.8,0-14.1,6.3-14.1,14.1v33.5c0,7.4,5.7,13.5,13,14.1v43H720.7z"/>
									</g>
									<g>
										<g>
											<line class="st5" x1="693" y1="2342.3" x2="693" y2="2438.3"/>
											<rect x="669.5" y="2342.3" class="st6" width="47" height="96"/>
										</g>
										<g>
											<rect x="652" y="2342.3" class="st6" width="6" height="96"/>
										</g>
										<g>
											<rect x="598" y="2342.3" class="st6" width="10" height="96"/>
										</g>
										<g>
											<g>
												<rect x="575.6" y="2342.3" class="st6" width="27.3" height="3"/>
											</g>
										</g>
										<g>
											<g>
												<rect x="651.6" y="2342.3" class="st6" width="83.5" height="3"/>
											</g>
										</g>
									</g>
									<g>
										<path class="st5" d="M721.6,2396.3H596.7c-7.5,0-13.5-6.1-13.5-13.5v-34.7c0-7.5,6.1-13.5,13.5-13.5h124.9
											c7.5,0,13.5,6.1,13.5,13.5v34.7C735.1,2390.2,729.1,2396.3,721.6,2396.3z"/>
									</g>
									<g>
										<g>
											<defs>
												<path id="SVGID_7_" d="M720.7,2439.3v-43h0.3c7.8,0,14.1-6.3,14.1-14.1v-33.5c0-7.8-6.3-14.1-14.1-14.1H597.3
													c-7.8,0-14.1,6.3-14.1,14.1v33.5c0,7.4,5.7,13.5,13,14.1v43H720.7z"/>
											</defs>
											<clipPath id="SVGID_8_">
												<use xlink:href="#SVGID_7_"  style="overflow:visible;"/>
											</clipPath>
											<g class="st10">
												<g>
													<line class="st5" x1="693" y1="2342.3" x2="693" y2="2448.3"/>
													<rect x="669.5" y="2342.3" class="st6" width="47" height="106"/>
												</g>
												<g>
													<rect x="652" y="2342.3" class="st6" width="6" height="106"/>
												</g>
												<g>
													<rect x="598" y="2342.3" class="st6" width="10" height="106"/>
												</g>
												<g>
													<g>
														<rect x="575.6" y="2342.3" class="st6" width="27.3" height="3"/>
													</g>
												</g>
												<g>
													<g>
														<rect x="651.6" y="2342.3" class="st6" width="83.5" height="3"/>
													</g>
												</g>
											</g>
										</g>
										<g>
											<rect x="608.1" y="2342.6" class="st8" width="3" height="104.8"/>
										</g>
									</g>
								</g>
								<g class="st9">
									<path class="st1" d="M721.4,2398.3H596.9c-8.7,0-15.7-7-15.7-15.7v-34.3c0-8.7,7-15.7,15.7-15.7h124.6
										c8.7,0,15.7,7,15.7,15.7v34.3C737.1,2391.2,730.1,2398.3,721.4,2398.3z M596.9,2336.6c-6.4,0-11.7,5.2-11.7,11.7v34.3
										c0,6.4,5.2,11.7,11.7,11.7h124.6c6.4,0,11.7-5.2,11.7-11.7v-34.3c0-6.4-5.2-11.7-11.7-11.7H596.9z"/>
								</g>
							</g>
						</g>
					</g>
				</g>
				<g>
					<g>
						<path class="st0" d="M293.7,797.4v-43h0.3c7.8,0,14.1-6.3,14.1-14.1v-33.5c0-7.8-6.3-14.1-14.1-14.1H170.3
							c-7.8,0-14.1,6.3-14.1,14.1v33.5c0,7.4,5.7,13.5,13,14.1v43H293.7z"/>
					</g>
					<g>
						<g>
							<g>
								<defs>
									<path id="SVGID_9_" d="M293.7,780.4v-26h0.3c7.8,0,14.1-6.3,14.1-14.1v-33.5c0-7.8-6.3-14.1-14.1-14.1H170.3
										c-7.8,0-14.1,6.3-14.1,14.1v33.5c0,7.4,5.7,13.5,13,14.1v26H293.7z"/>
								</defs>
								<clipPath id="SVGID_10_">
									<use xlink:href="#SVGID_9_"  style="overflow:visible;"/>
								</clipPath>
								<g class="st11">
									<g>
										<path class="st0" d="M293.7,797.4v-43h0.3c7.8,0,14.1-6.3,14.1-14.1v-33.5c0-7.8-6.3-14.1-14.1-14.1H170.3
											c-7.8,0-14.1,6.3-14.1,14.1v33.5c0,7.4,5.7,13.5,13,14.1v43H293.7z"/>
									</g>
									<g>
										<path class="st0" d="M293.7,797.4v-43h0.3c7.8,0,14.1-6.3,14.1-14.1v-33.5c0-7.8-6.3-14.1-14.1-14.1H170.3
											c-7.8,0-14.1,6.3-14.1,14.1v33.5c0,7.4,5.7,13.5,13,14.1v43H293.7z"/>
									</g>
									<g>
										<g>
											<line class="st5" x1="266" y1="700.4" x2="266" y2="796.4"/>
											<rect x="242.5" y="700.4" class="st6" width="47" height="96"/>
										</g>
										<g>
											<rect x="225" y="700.4" class="st6" width="6" height="96"/>
										</g>
										<g>
											<rect x="171" y="700.4" class="st6" width="10" height="96"/>
										</g>
										<g>
											<g>
												<rect x="148.6" y="700.4" class="st6" width="27.3" height="3"/>
											</g>
										</g>
										<g>
											<g>
												<rect x="224.6" y="700.4" class="st6" width="83.5" height="3"/>
											</g>
										</g>
									</g>
									<g>
										<path class="st5" d="M294.6,754.4H169.7c-7.5,0-13.5-6.1-13.5-13.5v-34.7c0-7.5,6.1-13.5,13.5-13.5h124.9
											c7.5,0,13.5,6.1,13.5,13.5v34.7C308.1,748.3,302.1,754.4,294.6,754.4z"/>
									</g>
									<g>
										<g>
											<defs>
												<path id="SVGID_11_" d="M293.7,797.4v-43h0.3c7.8,0,14.1-6.3,14.1-14.1v-33.5c0-7.8-6.3-14.1-14.1-14.1H170.3
													c-7.8,0-14.1,6.3-14.1,14.1v33.5c0,7.4,5.7,13.5,13,14.1v43H293.7z"/>
											</defs>
											<clipPath id="SVGID_12_">
												<use xlink:href="#SVGID_11_"  style="overflow:visible;"/>
											</clipPath>
											<g class="st12">
												<g>
													<line class="st5" x1="266" y1="700.4" x2="266" y2="806.4"/>
													<rect x="242.5" y="700.4" class="st6" width="47" height="106"/>
												</g>
												<g>
													<rect x="225" y="700.4" class="st6" width="6" height="106"/>
												</g>
												<g>
													<rect x="171" y="700.4" class="st6" width="10" height="106"/>
												</g>
												<g>
													<g>
														<rect x="148.6" y="700.4" class="st6" width="27.3" height="3"/>
													</g>
												</g>
												<g>
													<g>
														<rect x="224.6" y="700.4" class="st6" width="83.5" height="3"/>
													</g>
												</g>
											</g>
										</g>
										<g>
											<rect x="181.1" y="700.7" class="st8" width="3" height="104.8"/>
										</g>
									</g>
								</g>
								<g class="st11">
									<path class="st1" d="M294.4,756.4H169.9c-8.7,0-15.7-7-15.7-15.7v-34.3c0-8.7,7-15.7,15.7-15.7h124.6
										c8.7,0,15.7,7,15.7,15.7v34.3C310.1,749.3,303.1,756.4,294.4,756.4z M169.9,694.7c-6.4,0-11.7,5.2-11.7,11.7v34.3
										c0,6.4,5.2,11.7,11.7,11.7h124.6c6.4,0,11.7-5.2,11.7-11.7v-34.3c0-6.4-5.2-11.7-11.7-11.7H169.9z"/>
								</g>
							</g>
						</g>
						<g>
							<g>
								<g>
									<path class="st0" d="M542.3,945.5h43v0.3c0,7.8,6.3,14.1,14.1,14.1h33.5c7.8,0,14.1-6.3,14.1-14.1V822.1
										c0-7.8-6.3-14.1-14.1-14.1h-33.5c-7.4,0-13.5,5.7-14.1,13h-43V945.5z"/>
								</g>
								<g>
									<g>
										<g>
											<defs>
												<path id="SVGID_13_" d="M559.3,945.5h26v0.3c0,7.8,6.3,14.1,14.1,14.1h33.5c7.8,0,14.1-6.3,14.1-14.1V822.1
													c0-7.8-6.3-14.1-14.1-14.1h-33.5c-7.4,0-13.5,5.7-14.1,13h-26V945.5z"/>
											</defs>
											<clipPath id="SVGID_14_">
												<use xlink:href="#SVGID_13_"  style="overflow:visible;"/>
											</clipPath>
											<g class="st13">
												<g>
													<path class="st0" d="M542.3,945.5h43v0.3c0,7.8,6.3,14.1,14.1,14.1h33.5c7.8,0,14.1-6.3,14.1-14.1V822.1
														c0-7.8-6.3-14.1-14.1-14.1h-33.5c-7.4,0-13.5,5.7-14.1,13h-43V945.5z"/>
												</g>
												<g>
													<path class="st0" d="M542.3,945.5h43v0.3c0,7.8,6.3,14.1,14.1,14.1h33.5c7.8,0,14.1-6.3,14.1-14.1V822.1
														c0-7.8-6.3-14.1-14.1-14.1h-33.5c-7.4,0-13.5,5.7-14.1,13h-43V945.5z"/>
												</g>
												<g>
													<g>
														<line class="st5" x1="639.3" y1="917.8" x2="543.3" y2="917.8"/>
														<rect x="543.3" y="894.3" class="st6" width="96" height="47"/>
													</g>
													<g>
														<rect x="543.3" y="876.8" class="st6" width="96" height="6"/>
													</g>
													<g>
														<rect x="543.3" y="822.8" class="st6" width="96" height="10"/>
													</g>
													<g>
														<g>
															<rect x="636.3" y="800.4" class="st6" width="3" height="27.3"/>
														</g>
													</g>
													<g>
														<g>
															<rect x="636.3" y="876.4" class="st6" width="3" height="83.5"/>
														</g>
													</g>
												</g>
												<g>
													<path class="st5" d="M585.3,946.4V821.5c0-7.5,6.1-13.5,13.5-13.5h34.7c7.5,0,13.5,6.1,13.5,13.5v124.9
														c0,7.5-6.1,13.5-13.5,13.5h-34.7C591.4,959.9,585.3,953.9,585.3,946.4z"/>
												</g>
												<g>
													<g>
														<defs>
															<path id="SVGID_15_" d="M542.3,945.5h43v0.3c0,7.8,6.3,14.1,14.1,14.1h33.5c7.8,0,14.1-6.3,14.1-14.1V822.1
																c0-7.8-6.3-14.1-14.1-14.1h-33.5c-7.4,0-13.5,5.7-14.1,13h-43V945.5z"/>
														</defs>
														<clipPath id="SVGID_16_">
															<use xlink:href="#SVGID_15_"  style="overflow:visible;"/>
														</clipPath>
														<g class="st14">
															<g>
																<line class="st5" x1="639.3" y1="917.8" x2="533.3" y2="917.8"/>
																<rect x="533.3" y="894.3" class="st6" width="106" height="47"/>
															</g>
															<g>
																<rect x="533.3" y="876.8" class="st6" width="106" height="6"/>
															</g>
															<g>
																<rect x="533.3" y="822.8" class="st6" width="106" height="10"/>
															</g>
															<g>
																<g>
																	<rect x="636.3" y="800.4" class="st6" width="3" height="27.3"/>
																</g>
															</g>
															<g>
																<g>
																	<rect x="636.3" y="876.4" class="st6" width="3" height="83.5"/>
																</g>
															</g>
														</g>
													</g>
													<g>
														<rect x="534.3" y="832.9" class="st8" width="104.8" height="3"/>
													</g>
												</g>
											</g>
											<g class="st13">
												<path class="st1" d="M583.3,946.2V821.7c0-8.7,7-15.7,15.7-15.7h34.3c8.7,0,15.7,7,15.7,15.7v124.6
													c0,8.7-7,15.7-15.7,15.7H599C590.3,961.9,583.3,954.9,583.3,946.2z M645,821.7c0-6.4-5.2-11.7-11.7-11.7H599
													c-6.4,0-11.7,5.2-11.7,11.7v124.6c0,6.4,5.2,11.7,11.7,11.7h34.3c6.4,0,11.7-5.2,11.7-11.7V821.7z"/>
											</g>
										</g>
									</g>
								</g>
								<g>
									<g>
										<g>
											<path class="st0" d="M360.9,2720.4h-43v-0.3c0-7.8-6.3-14.1-14.1-14.1h-33.5c-7.8,0-14.1,6.3-14.1,14.1v123.7
												c0,7.8,6.3,14.1,14.1,14.1h33.5c7.4,0,13.5-5.7,14.1-13h43V2720.4z"/>
										</g>
										<g>
											<g>
												<g>
													<defs>
														<path id="SVGID_17_" d="M343.9,2720.4h-26v-0.3c0-7.8-6.3-14.1-14.1-14.1h-33.5c-7.8,0-14.1,6.3-14.1,14.1v123.7
															c0,7.8,6.3,14.1,14.1,14.1h33.5c7.4,0,13.5-5.7,14.1-13h26V2720.4z"/>
													</defs>
													<clipPath id="SVGID_18_">
														<use xlink:href="#SVGID_17_"  style="overflow:visible;"/>
													</clipPath>
													<g class="st15">
														<g>
															<path class="st0" d="M360.9,2720.4h-43v-0.3c0-7.8-6.3-14.1-14.1-14.1h-33.5c-7.8,0-14.1,6.3-14.1,14.1v123.7
																c0,7.8,6.3,14.1,14.1,14.1h33.5c7.4,0,13.5-5.7,14.1-13h43V2720.4z"/>
														</g>
														<g>
															<path class="st0" d="M360.9,2720.4h-43v-0.3c0-7.8-6.3-14.1-14.1-14.1h-33.5c-7.8,0-14.1,6.3-14.1,14.1v123.7
																c0,7.8,6.3,14.1,14.1,14.1h33.5c7.4,0,13.5-5.7,14.1-13h43V2720.4z"/>
														</g>
														<g>
															<g>
																<line class="st5" x1="263.9" y1="2748.1" x2="359.9" y2="2748.1"/>
																<rect x="263.9" y="2724.6" class="st6" width="96" height="47"/>
															</g>
															<g>
																<rect x="263.9" y="2783.1" class="st6" width="96" height="6"/>
															</g>
															<g>
																<rect x="263.9" y="2833.1" class="st6" width="96" height="10"/>
															</g>
															<g>
																<g>
																	<rect x="263.9" y="2838.1" class="st6" width="3" height="27.3"/>
																</g>
															</g>
															<g>
																<g>
																	<rect x="263.9" y="2705.9" class="st6" width="3" height="83.5"/>
																</g>
															</g>
														</g>
														<g>
															<path class="st5" d="M317.9,2719.5v124.9c0,7.5-6.1,13.5-13.5,13.5h-34.7c-7.5,0-13.5-6.1-13.5-13.5v-124.9
																c0-7.5,6.1-13.5,13.5-13.5h34.7C311.8,2705.9,317.9,2712,317.9,2719.5z"/>
														</g>
														<g>
															<g>
																<defs>
																	<path id="SVGID_19_" d="M360.9,2720.4h-43v-0.3c0-7.8-6.3-14.1-14.1-14.1h-33.5c-7.8,0-14.1,6.3-14.1,14.1v123.7
																		c0,7.8,6.3,14.1,14.1,14.1h33.5c7.4,0,13.5-5.7,14.1-13h43V2720.4z"/>
																</defs>
																<clipPath id="SVGID_20_">
																	<use xlink:href="#SVGID_19_"  style="overflow:visible;"/>
																</clipPath>
																<g class="st16">
																	<g>
																		<line class="st5" x1="263.9" y1="2748.1" x2="369.9" y2="2748.1"/>
																		<rect x="263.9" y="2724.6" class="st6" width="106" height="47"/>
																	</g>
																	<g>
																		<rect x="263.9" y="2783.1" class="st6" width="106" height="6"/>
																	</g>
																	<g>
																		<rect x="263.9" y="2833.1" class="st6" width="106" height="10"/>
																	</g>
																	<g>
																		<g>
																			<rect x="263.9" y="2838.1" class="st6" width="3" height="27.3"/>
																		</g>
																	</g>
																	<g>
																		<g>
																			<rect x="263.9" y="2705.9" class="st6" width="3" height="83.5"/>
																		</g>
																	</g>
																</g>
															</g>
															<g>
																<rect x="264.2" y="2829.9" class="st8" width="104.8" height="3"/>
															</g>
														</g>
													</g>
													<g class="st15">
														<path class="st1" d="M319.9,2719.6v124.6c0,8.7-7,15.7-15.7,15.7h-34.3c-8.7,0-15.7-7-15.7-15.7v-124.6
															c0-8.7,7-15.7,15.7-15.7h34.3C312.8,2703.9,319.9,2711,319.9,2719.6z M258.2,2844.2c0,6.4,5.2,11.7,11.7,11.7h34.3
															c6.4,0,11.7-5.2,11.7-11.7v-124.6c0-6.4-5.2-11.7-11.7-11.7h-34.3c-6.4,0-11.7,5.2-11.7,11.7V2844.2z"/>
													</g>
												</g>
											</g>
										</g>
										<g>
											<g>
												<g>
													<g>
														<path class="st0" d="M498.4,3555.6h43v0.3c0,7.8,6.3,14.1,14.1,14.1H589c7.8,0,14.1-6.3,14.1-14.1v-123.7
															c0-7.8-6.3-14.1-14.1-14.1h-33.5c-7.4,0-13.5,5.7-14.1,13h-43L498.4,3555.6L498.4,3555.6z"/>
													</g>
													<g>
														<g>
															<g>
																<defs>
																	<path id="SVGID_21_" d="M515.4,3555.6h26v0.3c0,7.8,6.3,14.1,14.1,14.1H589c7.8,0,14.1-6.3,14.1-14.1v-123.7
																		c0-7.8-6.3-14.1-14.1-14.1h-33.5c-7.4,0-13.5,5.7-14.1,13h-26V3555.6z"/>
																</defs>
																<clipPath id="SVGID_22_">
																	<use xlink:href="#SVGID_21_"  style="overflow:visible;"/>
																</clipPath>
																<g class="st17">
																	<g>
																		<path class="st0" d="M498.4,3555.6h43v0.3c0,7.8,6.3,14.1,14.1,14.1H589c7.8,0,14.1-6.3,14.1-14.1v-123.7
																			c0-7.8-6.3-14.1-14.1-14.1h-33.5c-7.4,0-13.5,5.7-14.1,13h-43L498.4,3555.6L498.4,3555.6z"/>
																	</g>
																	<g>
																		<path class="st0" d="M498.4,3555.6h43v0.3c0,7.8,6.3,14.1,14.1,14.1H589c7.8,0,14.1-6.3,14.1-14.1v-123.7
																			c0-7.8-6.3-14.1-14.1-14.1h-33.5c-7.4,0-13.5,5.7-14.1,13h-43L498.4,3555.6L498.4,3555.6z"/>
																	</g>
																	<g>
																		<g>
																			<line class="st5" x1="595.4" y1="3527.9" x2="499.4" y2="3527.9"/>
																			<rect x="499.4" y="3504.4" class="st6" width="96" height="47"/>
																		</g>
																		<g>
																			<rect x="499.4" y="3486.9" class="st6" width="96" height="6"/>
																		</g>
																		<g>
																			<rect x="499.4" y="3432.9" class="st6" width="96" height="10"/>
																		</g>
																		<g>
																			<g>
																				<rect x="592.4" y="3410.5" class="st6" width="3" height="27.3"/>
																			</g>
																		</g>
																		<g>
																			<g>
																				<rect x="592.4" y="3486.5" class="st6" width="3" height="83.5"/>
																			</g>
																		</g>
																	</g>
																	<g>
																		<path class="st5" d="M541.4,3556.5v-124.9c0-7.5,6.1-13.5,13.5-13.5h34.7c7.5,0,13.5,6.1,13.5,13.5v124.9
																			c0,7.5-6.1,13.5-13.5,13.5h-34.7C547.5,3570,541.4,3564,541.4,3556.5z"/>
																	</g>
																	<g>
																		<g>
																			<defs>
																				<path id="SVGID_23_" d="M498.4,3555.6h43v0.3c0,7.8,6.3,14.1,14.1,14.1H589c7.8,0,14.1-6.3,14.1-14.1v-123.7
																					c0-7.8-6.3-14.1-14.1-14.1h-33.5c-7.4,0-13.5,5.7-14.1,13h-43L498.4,3555.6L498.4,3555.6z"/>
																			</defs>
																			<clipPath id="SVGID_24_">
																				<use xlink:href="#SVGID_23_"  style="overflow:visible;"/>
																			</clipPath>
																			<g class="st18">
																				<g>
																					<line class="st5" x1="595.4" y1="3527.9" x2="489.4" y2="3527.9"/>
																					<rect x="489.4" y="3504.4" class="st6" width="106" height="47"/>
																				</g>
																				<g>
																					<rect x="489.4" y="3486.9" class="st6" width="106" height="6"/>
																				</g>
																				<g>
																					<rect x="489.4" y="3432.9" class="st6" width="106" height="10"/>
																				</g>
																				<g>
																					<g>
																						<rect x="592.4" y="3410.5" class="st6" width="3" height="27.3"/>
																					</g>
																				</g>
																				<g>
																					<g>
																						<rect x="592.4" y="3486.5" class="st6" width="3" height="83.5"/>
																					</g>
																				</g>
																			</g>
																		</g>
																		<g>
																			<rect x="490.4" y="3443" class="st8" width="104.8" height="3"/>
																		</g>
																	</g>
																</g>
																<g class="st17">
																	<path class="st1" d="M539.4,3556.3v-124.6c0-8.7,7-15.7,15.7-15.7h34.3c8.7,0,15.7,7,15.7,15.7v124.6
																		c0,8.7-7,15.7-15.7,15.7h-34.3C546.5,3572,539.4,3565,539.4,3556.3z M601.1,3431.8c0-6.4-5.2-11.7-11.7-11.7h-34.3
																		c-6.4,0-11.7,5.2-11.7,11.7v124.6c0,6.4,5.2,11.7,11.7,11.7h34.3c6.4,0,11.7-5.2,11.7-11.7V3431.8z"/>
																</g>
															</g>
														</g>
													</g>
												</g>
												<g>
													<g>
														<g>
															<path class="st0" d="M96.6,2074.2v43h-0.3c-7.8,0-14.1,6.3-14.1,14.1v33.5c0,7.8,6.3,14.1,14.1,14.1H220
																c7.8,0,14.1-6.3,14.1-14.1v-33.5c0-7.4-5.7-13.5-13-14.1v-43H96.6z"/>
														</g>
														<g>
															<g>
																<g>
																	<defs>
																		<path id="SVGID_25_" d="M219.6,2091.2v26h0.3c7.8,0,14.1,6.3,14.1,14.1v33.5c0,7.8-6.3,14.1-14.1,14.1H96.3
																			c-7.8,0-14.1-6.3-14.1-14.1v-33.5c0-7.4,5.7-13.5,13-14.1v-26H219.6z"/>
																	</defs>
																	<clipPath id="SVGID_26_">
																		<use xlink:href="#SVGID_25_"  style="overflow:visible;"/>
																	</clipPath>
																	<g class="st19">
																		<g>
																			<path class="st0" d="M219.6,2074.2v43h0.3c7.8,0,14.1,6.3,14.1,14.1v33.5c0,7.8-6.3,14.1-14.1,14.1H96.3
																				c-7.8,0-14.1-6.3-14.1-14.1v-33.5c0-7.4,5.7-13.5,13-14.1v-43H219.6z"/>
																		</g>
																		<g>
																			<path class="st0" d="M219.6,2074.2v43h0.3c7.8,0,14.1,6.3,14.1,14.1v33.5c0,7.8-6.3,14.1-14.1,14.1H96.3
																				c-7.8,0-14.1-6.3-14.1-14.1v-33.5c0-7.4,5.7-13.5,13-14.1v-43H219.6z"/>
																		</g>
																		<g>
																			<g>
																				<line class="st5" x1="192" y1="2171.2" x2="192" y2="2075.2"/>
																				<rect x="168.5" y="2075.2" class="st6" width="47" height="96"/>
																			</g>
																			<g>
																				<rect x="151" y="2075.2" class="st6" width="6" height="96"/>
																			</g>
																			<g>
																				<rect x="97" y="2075.2" class="st6" width="10" height="96"/>
																			</g>
																			<g>
																				<g>
																					<rect x="74.6" y="2168.2" class="st6" width="27.3" height="3"/>
																				</g>
																			</g>
																			<g>
																				<g>
																					<rect x="150.6" y="2168.2" class="st6" width="83.5" height="3"/>
																				</g>
																			</g>
																		</g>
																		<g>
																			<path class="st5" d="M220.6,2117.2H95.7c-7.5,0-13.5,6.1-13.5,13.5v34.7c0,7.5,6.1,13.5,13.5,13.5h124.9
																				c7.5,0,13.5-6.1,13.5-13.5v-34.7C234.1,2123.3,228.1,2117.2,220.6,2117.2z"/>
																		</g>
																		<g>
																			<g>
																				<defs>
																					<path id="SVGID_27_" d="M219.6,2074.2v43h0.3c7.8,0,14.1,6.3,14.1,14.1v33.5c0,7.8-6.3,14.1-14.1,14.1H96.3
																						c-7.8,0-14.1-6.3-14.1-14.1v-33.5c0-7.4,5.7-13.5,13-14.1v-43H219.6z"/>
																				</defs>
																				<clipPath id="SVGID_28_">
																					<use xlink:href="#SVGID_27_"  style="overflow:visible;"/>
																				</clipPath>
																				<g class="st20">
																					<g>
																						<line class="st5" x1="192" y1="2171.2" x2="192" y2="2065.2"/>
																						<rect x="168.5" y="2065.2" class="st6" width="47" height="106"/>
																					</g>
																					<g>
																						<rect x="151" y="2065.2" class="st6" width="6" height="106"/>
																					</g>
																					<g>
																						<rect x="97" y="2065.2" class="st6" width="10" height="106"/>
																					</g>
																					<g>
																						<g>
																							<rect x="74.6" y="2168.2" class="st6" width="27.3" height="3"/>
																						</g>
																					</g>
																					<g>
																						<g>
																							<rect x="150.6" y="2168.2" class="st6" width="83.5" height="3"/>
																						</g>
																					</g>
																				</g>
																			</g>
																			<g>
																				<rect x="107.1" y="2066.2" class="st8" width="3" height="104.8"/>
																			</g>
																		</g>
																	</g>
																	<g class="st19">
																		<path class="st1" d="M236.1,2130.9v34.3c0,8.7-7,15.7-15.7,15.7H95.8c-8.7,0-15.7-7-15.7-15.7v-34.3
																			c0-8.7,7-15.7,15.7-15.7h124.6C229.1,2115.2,236.1,2122.3,236.1,2130.9z M220.4,2176.9c6.4,0,11.7-5.2,11.7-11.7
																			v-34.3c0-6.4-5.2-11.7-11.7-11.7H95.8c-6.4,0-11.7,5.2-11.7,11.7v34.3c0,6.4,5.2,11.7,11.7,11.7H220.4z"/>
																	</g>
																</g>
															</g>
														</g>
														<g>
															<g>
																<g>
																	<g>
																		<path class="st0" d="M219,3741.6v43h-0.3c-7.8,0-14.1,6.3-14.1,14.1v33.5c0,7.8,6.3,14.1,14.1,14.1h123.7
																			c7.8,0,14.1-6.3,14.1-14.1v-33.5c0-7.4-5.7-13.5-13-14.1v-43H219z"/>
																	</g>
																	<g>
																		<g>
																			<g>
																				<defs>
																					<path id="SVGID_29_" d="M342.1,3758.6v26h0.3c7.8,0,14.1,6.3,14.1,14.1v33.5c0,7.8-6.3,14.1-14.1,14.1H218.7
																						c-7.8,0-14.1-6.3-14.1-14.1v-33.5c0-7.4,5.7-13.5,13-14.1v-26H342.1z"/>
																				</defs>
																				<clipPath id="SVGID_30_">
																					<use xlink:href="#SVGID_29_"  style="overflow:visible;"/>
																				</clipPath>
																				<g class="st21">
																					<g>
																						<path class="st0" d="M342.1,3741.6v43h0.3c7.8,0,14.1,6.3,14.1,14.1v33.5c0,7.8-6.3,14.1-14.1,14.1H218.7
																							c-7.8,0-14.1-6.3-14.1-14.1v-33.5c0-7.4,5.7-13.5,13-14.1v-43H342.1z"/>
																					</g>
																					<g>
																						<path class="st0" d="M342.1,3741.6v43h0.3c7.8,0,14.1,6.3,14.1,14.1v33.5c0,7.8-6.3,14.1-14.1,14.1H218.7
																							c-7.8,0-14.1-6.3-14.1-14.1v-33.5c0-7.4,5.7-13.5,13-14.1v-43H342.1z"/>
																					</g>
																					<g>
																						<g>
																							<line class="st5" x1="314.4" y1="3838.6" x2="314.4" y2="3742.6"/>
																							<rect x="290.9" y="3742.6" class="st6" width="47" height="96"/>
																						</g>
																						<g>
																							<rect x="273.4" y="3742.6" class="st6" width="6" height="96"/>
																						</g>
																						<g>
																							<rect x="219.4" y="3742.6" class="st6" width="10" height="96"/>
																						</g>
																						<g>
																							<g>
																								<rect x="197" y="3835.6" class="st6" width="27.3" height="3"/>
																							</g>
																						</g>
																						<g>
																							<g>
																								<rect x="273" y="3835.6" class="st6" width="83.5" height="3"/>
																							</g>
																						</g>
																					</g>
																					<g>
																						<path class="st5" d="M343,3784.6H218.1c-7.5,0-13.5,6.1-13.5,13.5v34.7c0,7.5,6.1,13.5,13.5,13.5H343
																							c7.5,0,13.5-6.1,13.5-13.5v-34.7C356.5,3790.7,350.5,3784.6,343,3784.6z"/>
																					</g>
																					<g>
																						<g>
																							<defs>
																								<path id="SVGID_31_" d="M342.1,3741.6v43h0.3c7.8,0,14.1,6.3,14.1,14.1v33.5c0,7.8-6.3,14.1-14.1,14.1
																									H218.7c-7.8,0-14.1-6.3-14.1-14.1v-33.5c0-7.4,5.7-13.5,13-14.1v-43H342.1z"/>
																							</defs>
																							<clipPath id="SVGID_32_">
																								<use xlink:href="#SVGID_31_"  style="overflow:visible;"/>
																							</clipPath>
																							<g class="st22">
																								<g>
																									<line class="st5" x1="314.4" y1="3838.6" x2="314.4" y2="3732.6"/>
																									<rect x="290.9" y="3732.6" class="st6" width="47" height="106"/>
																								</g>
																								<g>
																									<rect x="273.4" y="3732.6" class="st6" width="6" height="106"/>
																								</g>
																								<g>
																									<rect x="219.4" y="3732.6" class="st6" width="10" height="106"/>
																								</g>
																								<g>
																									<g>
																										<rect x="197" y="3835.6" class="st6" width="27.3" height="3"/>
																									</g>
																								</g>
																								<g>
																									<g>
																										<rect x="273" y="3835.6" class="st6" width="83.5" height="3"/>
																									</g>
																								</g>
																							</g>
																						</g>
																						<g>
																							<rect x="229.5" y="3733.6" class="st8" width="3" height="104.8"/>
																						</g>
																					</g>
																				</g>
																				<g class="st21">
																					<path class="st1" d="M358.5,3798.3v34.3c0,8.7-7,15.7-15.7,15.7H218.3c-8.7,0-15.7-7-15.7-15.7v-34.3
																						c0-8.7,7-15.7,15.7-15.7h124.6C351.5,3782.6,358.5,3789.7,358.5,3798.3z M342.8,3844.4
																						c6.4,0,11.7-5.2,11.7-11.7v-34.3c0-6.4-5.2-11.7-11.7-11.7H218.3c-6.4,0-11.7,5.2-11.7,11.7v34.3
																						c0,6.4,5.2,11.7,11.7,11.7H342.8z"/>
																				</g>
																			</g>
																		</g>
																	</g>
																</g>
																<g>
																	<g>
																		<g>
																			<g>
																				<path class="st0" d="M454.5,4943.6v43h-0.3c-7.8,0-14.1,6.3-14.1,14.1v33.5c0,7.8,6.3,14.1,14.1,14.1h123.7
																					c7.8,0,14.1-6.3,14.1-14.1v-33.5c0-7.4-5.7-13.5-13-14.1v-43H454.5z"/>
																			</g>
																			<g>
																				<g>
																					<g>
																						<defs>
																							<path id="SVGID_33_" d="M577.6,4960.6v26h0.3c7.8,0,14.1,6.3,14.1,14.1v33.5c0,7.8-6.3,14.1-14.1,14.1H454.2
																								c-7.8,0-14.1-6.3-14.1-14.1v-33.5c0-7.4,5.7-13.5,13-14.1v-26H577.6z"/>
																						</defs>
																						<clipPath id="SVGID_34_">
																							<use xlink:href="#SVGID_33_"  style="overflow:visible;"/>
																						</clipPath>
																						<g class="st23">
																							<g>
																								<path class="st0" d="M577.6,4943.6v43h0.3c7.8,0,14.1,6.3,14.1,14.1v33.5c0,7.8-6.3,14.1-14.1,14.1H454.2
																									c-7.8,0-14.1-6.3-14.1-14.1v-33.5c0-7.4,5.7-13.5,13-14.1v-43H577.6z"/>
																							</g>
																							<g>
																								<path class="st0" d="M577.6,4943.6v43h0.3c7.8,0,14.1,6.3,14.1,14.1v33.5c0,7.8-6.3,14.1-14.1,14.1H454.2
																									c-7.8,0-14.1-6.3-14.1-14.1v-33.5c0-7.4,5.7-13.5,13-14.1v-43H577.6z"/>
																							</g>
																							<g>
																								<g>
																									<line class="st5" x1="549.9" y1="5040.6" x2="549.9" y2="4944.6"/>
																									<rect x="526.4" y="4944.6" class="st6" width="47" height="96"/>
																								</g>
																								<g>
																									<rect x="508.9" y="4944.6" class="st6" width="6" height="96"/>
																								</g>
																								<g>
																									<rect x="454.9" y="4944.6" class="st6" width="10" height="96"/>
																								</g>
																								<g>
																									<g>
																										<rect x="432.5" y="5037.6" class="st6" width="27.3" height="3"/>
																									</g>
																								</g>
																								<g>
																									<g>
																										<rect x="508.5" y="5037.6" class="st6" width="83.5" height="3"/>
																									</g>
																								</g>
																							</g>
																							<g>
																								<path class="st5" d="M578.5,4986.6H453.6c-7.5,0-13.5,6.1-13.5,13.5v34.7c0,7.5,6.1,13.5,13.5,13.5h124.9
																									c7.5,0,13.5-6.1,13.5-13.5v-34.7C592,4992.7,586,4986.6,578.5,4986.6z"/>
																							</g>
																							<g>
																								<g>
																									<defs>
																										<path id="SVGID_35_" d="M577.6,4943.6v43h0.3c7.8,0,14.1,6.3,14.1,14.1v33.5c0,7.8-6.3,14.1-14.1,14.1
																											H454.2c-7.8,0-14.1-6.3-14.1-14.1v-33.5c0-7.4,5.7-13.5,13-14.1v-43H577.6z"/>
																									</defs>
																									<clipPath id="SVGID_36_">
																										<use xlink:href="#SVGID_35_"  style="overflow:visible;"/>
																									</clipPath>
																									<g class="st24">
																										<g>
																											<line class="st5" x1="549.9" y1="5040.6" x2="549.9" y2="4934.6"/>
																											<rect x="526.4" y="4934.6" class="st6" width="47" height="106"/>
																										</g>
																										<g>
																											<rect x="508.9" y="4934.6" class="st6" width="6" height="106"/>
																										</g>
																										<g>
																											<rect x="454.9" y="4934.6" class="st6" width="10" height="106"/>
																										</g>
																										<g>
																											<g>
																												<rect x="432.5" y="5037.6" class="st6" width="27.3" height="3"/>
																											</g>
																										</g>
																										<g>
																											<g>
																												<rect x="508.5" y="5037.6" class="st6" width="83.5" height="3"/>
																											</g>
																										</g>
																									</g>
																								</g>
																								<g>
																									<rect x="465" y="4935.6" class="st8" width="3" height="104.8"/>
																								</g>
																							</g>
																						</g>
																						<g class="st23">
																							<path class="st1" d="M594,5000.3v34.3c0,8.7-7,15.7-15.7,15.7H453.8c-8.7,0-15.7-7-15.7-15.7v-34.3
																								c0-8.7,7-15.7,15.7-15.7h124.6C587,4984.6,594,4991.7,594,5000.3z M578.3,5046.3c6.4,0,11.7-5.2,11.7-11.7
																								v-34.3c0-6.4-5.2-11.7-11.7-11.7H453.8c-6.4,0-11.7,5.2-11.7,11.7v34.3c0,6.4,5.2,11.7,11.7,11.7H578.3z"/>
																						</g>
																					</g>
																				</g>
																			</g>
																		</g>
																		<g>
																			<g>
																				<g>
																					<path class="st0" d="M578.7,4411.4v-43h0.3c7.8,0,14.1-6.3,14.1-14.1v-33.5c0-7.8-6.3-14.1-14.1-14.1H455.3
																						c-7.8,0-14.1,6.3-14.1,14.1v33.5c0,7.4,5.7,13.5,13,14.1v43H578.7z"/>
																				</g>
																				<g>
																					<g>
																						<g>
																							<defs>
																								<path id="SVGID_37_" d="M578.7,4394.4v-26h0.3c7.8,0,14.1-6.3,14.1-14.1v-33.5c0-7.8-6.3-14.1-14.1-14.1
																									H455.3c-7.8,0-14.1,6.3-14.1,14.1v33.5c0,7.4,5.7,13.5,13,14.1v26H578.7z"/>
																							</defs>
																							<clipPath id="SVGID_38_">
																								<use xlink:href="#SVGID_37_"  style="overflow:visible;"/>
																							</clipPath>
																							<g class="st25">
																								<g>
																									<path class="st0" d="M578.7,4411.4v-43h0.3c7.8,0,14.1-6.3,14.1-14.1v-33.5c0-7.8-6.3-14.1-14.1-14.1
																										H455.3c-7.8,0-14.1,6.3-14.1,14.1v33.5c0,7.4,5.7,13.5,13,14.1v43H578.7z"/>
																								</g>
																								<g>
																									<path class="st0" d="M578.7,4411.4v-43h0.3c7.8,0,14.1-6.3,14.1-14.1v-33.5c0-7.8-6.3-14.1-14.1-14.1
																										H455.3c-7.8,0-14.1,6.3-14.1,14.1v33.5c0,7.4,5.7,13.5,13,14.1v43H578.7z"/>
																								</g>
																								<g>
																									<g>
																										<line class="st5" x1="551" y1="4314.4" x2="551" y2="4410.4"/>
																										<rect x="527.5" y="4314.4" class="st6" width="47" height="96"/>
																									</g>
																									<g>
																										<rect x="510" y="4314.4" class="st6" width="6" height="96"/>
																									</g>
																									<g>
																										<rect x="456" y="4314.4" class="st6" width="10" height="96"/>
																									</g>
																									<g>
																										<g>
																											<rect x="433.7" y="4314.4" class="st6" width="27.3" height="3"/>
																										</g>
																									</g>
																									<g>
																										<g>
																											<rect x="509.7" y="4314.4" class="st6" width="83.5" height="3"/>
																										</g>
																									</g>
																								</g>
																								<g>
																									<path class="st5" d="M579.7,4368.4h-125c-7.5,0-13.5-6.1-13.5-13.5v-34.7c0-7.5,6.1-13.5,13.5-13.5h124.9
																										c7.5,0,13.5,6.1,13.5,13.5v34.7C593.2,4362.3,587.1,4368.4,579.7,4368.4z"/>
																								</g>
																								<g>
																									<g>
																										<defs>
																											<path id="SVGID_39_" d="M578.7,4411.4v-43h0.3c7.8,0,14.1-6.3,14.1-14.1v-33.5c0-7.8-6.3-14.1-14.1-14.1
																												H455.3c-7.8,0-14.1,6.3-14.1,14.1v33.5c0,7.4,5.7,13.5,13,14.1v43H578.7z"/>
																										</defs>
																										<clipPath id="SVGID_40_">
																											<use xlink:href="#SVGID_39_"  style="overflow:visible;"/>
																										</clipPath>
																										<g class="st26">
																											<g>
																												<line class="st5" x1="551" y1="4314.4" x2="551" y2="4420.4"/>
																												<rect x="527.5" y="4314.4" class="st6" width="47" height="106"/>
																											</g>
																											<g>
																												<rect x="510" y="4314.4" class="st6" width="6" height="106"/>
																											</g>
																											<g>
																												<rect x="456" y="4314.4" class="st6" width="10" height="106"/>
																											</g>
																											<g>
																												<g>
																													<rect x="433.7" y="4314.4" class="st6" width="27.3" height="3"/>
																												</g>
																											</g>
																											<g>
																												<g>
																													<rect x="509.7" y="4314.4" class="st6" width="83.5" height="3"/>
																												</g>
																											</g>
																										</g>
																									</g>
																									<g>
																										<rect x="466.2" y="4314.7" class="st8" width="3" height="104.8"/>
																									</g>
																								</g>
																							</g>
																							<g class="st25">
																								<path class="st1" d="M579.5,4370.4H454.9c-8.7,0-15.7-7-15.7-15.7v-34.3c0-8.7,7-15.7,15.7-15.7h124.6
																									c8.7,0,15.7,7,15.7,15.7v34.3C595.2,4363.3,588.1,4370.4,579.5,4370.4z M454.9,4308.7
																									c-6.4,0-11.7,5.2-11.7,11.7v34.3c0,6.4,5.2,11.7,11.7,11.7h124.6c6.4,0,11.7-5.2,11.7-11.7v-34.3
																									c0-6.4-5.2-11.7-11.7-11.7H454.9z"/>
																							</g>
																						</g>
																					</g>
																				</g>
																			</g>
																		</g>
																	</g>
																</g>
															</g>
														</g>
													</g>
												</g>
											</g>
										</g>
									</g>
								</g>
							</g>
						</g>
					</g>
				</g>
			</g>
		</g>
	</g>
</g>
</svg>
