<?xml version="1.0" encoding="utf-8"?>
<!-- Generator: Adobe Illustrator 21.0.0, SVG Export Plug-In . SVG Version: 6.00 Build 0)  -->
<svg version="1.1" id="Layer_1" xmlns="http://www.w3.org/2000/svg" xmlns:xlink="http://www.w3.org/1999/xlink" x="0px" y="0px"
	 viewBox="0 0 162.9 198" style="enable-background:new 0 0 162.9 198;" xml:space="preserve">
<style type="text/css">
	.st0{clip-path:url(#SVGID_2_);}
	.st1{fill:#FDE036;}
	.st2{opacity:0.2;fill:#FDBA01;enable-background:new    ;}
	.st3{fill:#414042;}
	.st4{fill:#E6401F;}
	.st5{opacity:0.3;fill:#231F20;enable-background:new    ;}
	.st6{clip-path:url(#SVGID_4_);}
</style>
<title>pacMan</title>
<g>
	<g id="Layer_3">
		<g>
			<g>
				<defs>
					<rect id="SVGID_1_" x="1" y="-6" width="161" height="119"/>
				</defs>
				<clipPath id="SVGID_2_">
					<use xlink:href="#SVGID_1_"  style="overflow:visible;"/>
				</clipPath>
				<g class="st0">
					<circle class="st1" cx="90.1" cy="98.1" r="71"/>
					<path class="st2" d="M154.8,128.2c-16.4,35.6-58.5,51.2-94.2,34.8S9.4,104.5,25.7,68.9c0.5-1.2,1.1-2.3,1.7-3.5
						c4.9-9.1,16.4-12.5,25.5-7.6c2.6,1.4,4.8,3.4,6.5,5.8l24,34.4c4,5.7,10.8,8.8,17.7,7.9l34.2-4
						C149.8,100.3,160.8,115,154.8,128.2z"/>
					<circle class="st3" cx="104" cy="77.2" r="7.4"/>
					<circle class="st3" cx="125.1" cy="77.2" r="7.4"/>
					<path class="st3" d="M80.6,49h31l0,0v15.7c0,8.4-6.9,15.3-15.3,15.3l0,0h-0.4c-8.4,0-15.3-6.9-15.3-15.3l0,0L80.6,49L80.6,49z"
						/>
					<path class="st3" d="M117.5,49h31l0,0v15.7c0,8.4-6.9,15.3-15.3,15.3l0,0h-0.4c-8.4,0-15.3-6.9-15.3-15.3l0,0V49z"/>
					<rect x="106.8" y="54.4" class="st3" width="15.4" height="11"/>
					<g>
						
							<ellipse transform="matrix(0.5964 -0.8027 0.8027 0.5964 -45.5142 48.6709)" class="st4" cx="25.6" cy="69.6" rx="19.5" ry="11"/>
						
							<ellipse transform="matrix(0.5964 -0.8027 0.8027 0.5964 -45.5142 48.6709)" class="st5" cx="25.6" cy="69.6" rx="19.5" ry="11"/>
						
							<ellipse transform="matrix(0.9893 -0.1458 0.1458 0.9893 -8.6752 3.7005)" class="st4" cx="20.9" cy="61" rx="19.5" ry="10.9"/>
						
							<ellipse transform="matrix(0.5964 -0.8027 0.8027 0.5964 -10.0167 55.2886)" class="st4" cx="50" cy="37.6" rx="19.5" ry="11"/>
						
							<ellipse transform="matrix(0.5964 -0.8027 0.8027 0.5964 -10.0167 55.2886)" class="st5" cx="50" cy="37.6" rx="19.5" ry="11"/>
						
							<ellipse transform="matrix(0.9893 -0.1458 0.1458 0.9893 -4.6496 6.2854)" class="st4" cx="40.5" cy="34.9" rx="10.9" ry="19.5"/>
						
							<ellipse transform="matrix(0.9582 -0.2861 0.2861 0.9582 -14.2181 13.6671)" class="st4" cx="39.7" cy="55.5" rx="9.7" ry="9.7"/>
					</g>
				</g>
			</g>
		</g>
		<g>
			<g>
				<defs>
					<rect id="SVGID_3_" x="7" y="133" width="155" height="57"/>
				</defs>
				<clipPath id="SVGID_4_">
					<use xlink:href="#SVGID_3_"  style="overflow:visible;"/>
				</clipPath>
				<g class="st6">
					<circle class="st1" cx="90.1" cy="118.1" r="71"/>
					<path class="st2" d="M154.8,148.2c-16.4,35.6-58.5,51.2-94.2,34.8S9.4,124.5,25.7,88.9c0.5-1.2,1.1-2.3,1.7-3.5
						c4.9-9.1,16.4-12.5,25.5-7.6c2.6,1.4,4.8,3.4,6.5,5.8l24,34.4c4,5.7,10.8,8.8,17.7,7.9l34.2-4
						C149.8,120.3,160.8,135,154.8,148.2z"/>
					<circle class="st3" cx="104" cy="97.2" r="7.4"/>
					<circle class="st3" cx="125.1" cy="97.2" r="7.4"/>
					<path class="st3" d="M80.6,82h31l0,0v15.7c0,8.4-6.9,15.3-15.3,15.3l0,0h-0.4c-8.4,0-15.3-6.9-15.3-15.3l0,0L80.6,82L80.6,82z"
						/>
					<path class="st3" d="M117.5,82h31l0,0v15.7c0,8.4-6.9,15.3-15.3,15.3l0,0h-0.4c-8.4,0-15.3-6.9-15.3-15.3l0,0V82z"/>
					<rect x="106.8" y="87.4" class="st3" width="15.4" height="11"/>
					
						<ellipse transform="matrix(0.8011 -0.5985 0.5985 0.8011 -39.8515 28.6795)" class="st4" cx="23.2" cy="74.3" rx="19.5" ry="10.9"/>
					
						<ellipse transform="matrix(0.8011 -0.5985 0.5985 0.8011 -39.8515 28.6795)" class="st5" cx="23.2" cy="74.3" rx="19.5" ry="10.9"/>
					
						<ellipse transform="matrix(0.1433 -0.9897 0.9897 0.1433 -45.9502 76.3771)" class="st4" cx="21.1" cy="64.7" rx="10.9" ry="19.5"/>
					
						<ellipse transform="matrix(0.8011 -0.5985 0.5985 0.8011 -19.2117 43.4009)" class="st4" cx="55.7" cy="50.6" rx="19.5" ry="10.9"/>
					
						<ellipse transform="matrix(0.8011 -0.5985 0.5985 0.8011 -19.2117 43.4009)" class="st5" cx="55.7" cy="50.6" rx="19.5" ry="10.9"/>
					<ellipse transform="matrix(0.1433 -0.9897 0.9897 0.1433 -4.1595 85.75)" class="st4" cx="47.5" cy="45.3" rx="19.5" ry="11"/>
					<circle class="st4" cx="40.7" cy="64.8" r="9.7"/>
				</g>
			</g>
		</g>
	</g>
</g>
</svg>
