<svg xmlns="http://www.w3.org/2000/svg" xmlns:xlink="http://www.w3.org/1999/xlink" viewBox="0 0 162.86 198"><defs><style>.cls-1{fill:none;}.cls-2{isolation:isolate;}.cls-3{clip-path:url(#clip-path);}.cls-4{fill:#fde036;}.cls-5{fill:#fdba01;opacity:0.2;}.cls-5,.cls-8{mix-blend-mode:multiply;}.cls-6{fill:#414042;}.cls-7{fill:#e6401f;}.cls-8{fill:#231f20;opacity:0.3;}.cls-9{clip-path:url(#clip-path-2);}</style><clipPath id="clip-path"><rect class="cls-1" x="1.02" y="2" width="161" height="108"/></clipPath><clipPath id="clip-path-2"><rect class="cls-1" x="7.02" y="140" width="154" height="58"/></clipPath></defs><title>pacMan</title><g class="cls-2"><g id="Layer_3" data-name="Layer 3"><g class="cls-3"><circle class="cls-4" cx="90.05" cy="95.06" r="71"/><path class="cls-5" d="M154.75,125.22A71,71,0,1,1,27.44,62.44a18.82,18.82,0,0,1,32-1.8l24,34.43A18.83,18.83,0,0,0,101.11,103l34.2-4C149.75,97.27,160.76,112,154.75,125.22Z"/><circle class="cls-6" cx="104.02" cy="74.17" r="7.4"/><circle class="cls-6" cx="125.1" cy="74.17" r="7.4"/><path class="cls-6" d="M80.62,59h31a0,0,0,0,1,0,0V74.7A15.3,15.3,0,0,1,96.31,90h-.4a15.3,15.3,0,0,1-15.3-15.3V59A0,0,0,0,1,80.62,59Z"/><path class="cls-6" d="M117.48,59h31a0,0,0,0,1,0,0V74.7A15.3,15.3,0,0,1,133.18,90h-.4a15.3,15.3,0,0,1-15.3-15.3V59a0,0,0,0,1,0,0Z"/><rect class="cls-6" x="106.85" y="64.39" width="15.4" height="11"/><ellipse class="cls-7" cx="23.22" cy="51.26" rx="19.46" ry="10.95" transform="translate(-26.06 24.09) rotate(-36.76)"/><ellipse class="cls-8" cx="23.22" cy="51.26" rx="19.46" ry="10.95" transform="translate(-26.06 24.09) rotate(-36.76)"/><ellipse class="cls-7" cx="21.13" cy="41.69" rx="10.95" ry="19.46" transform="translate(-23.15 56.63) rotate(-81.76)"/><ellipse class="cls-7" cx="55.72" cy="27.61" rx="19.46" ry="10.95" transform="translate(-5.45 38.84) rotate(-36.76)"/><ellipse class="cls-8" cx="55.72" cy="27.61" rx="19.46" ry="10.95" transform="translate(-5.45 38.84) rotate(-36.76)"/><ellipse class="cls-7" cx="47.47" cy="22.32" rx="19.46" ry="10.95" transform="translate(18.57 66.1) rotate(-81.76)"/><circle class="cls-7" cx="40.73" cy="41.78" r="9.73"/></g><g class="cls-9"><circle class="cls-4" cx="90.05" cy="125.06" r="71"/><path class="cls-5" d="M154.75,155.22A71,71,0,1,1,27.44,92.44a18.82,18.82,0,0,1,32-1.8l24,34.43A18.83,18.83,0,0,0,101.11,133l34.2-4C149.75,127.27,160.76,142,154.75,155.22Z"/><circle class="cls-6" cx="104.02" cy="104.17" r="7.4"/><circle class="cls-6" cx="125.1" cy="104.17" r="7.4"/><path class="cls-6" d="M80.62,89h31a0,0,0,0,1,0,0v15.7A15.3,15.3,0,0,1,96.31,120h-.4a15.3,15.3,0,0,1-15.3-15.3V89A0,0,0,0,1,80.62,89Z"/><path class="cls-6" d="M117.48,89h31a0,0,0,0,1,0,0v15.7a15.3,15.3,0,0,1-15.3,15.3h-.4a15.3,15.3,0,0,1-15.3-15.3V89A0,0,0,0,1,117.48,89Z"/><rect class="cls-6" x="106.85" y="94.39" width="15.4" height="11"/><ellipse class="cls-7" cx="23.22" cy="81.26" rx="19.46" ry="10.95" transform="translate(-44.01 30.06) rotate(-36.76)"/><ellipse class="cls-8" cx="23.22" cy="81.26" rx="19.46" ry="10.95" transform="translate(-44.01 30.06) rotate(-36.76)"/><ellipse class="cls-7" cx="21.13" cy="71.69" rx="10.95" ry="19.46" transform="translate(-52.84 82.33) rotate(-81.76)"/><ellipse class="cls-7" cx="55.72" cy="57.61" rx="19.46" ry="10.95" transform="translate(-23.4 44.8) rotate(-36.76)"/><ellipse class="cls-8" cx="55.72" cy="57.61" rx="19.46" ry="10.95" transform="translate(-23.4 44.8) rotate(-36.76)"/><ellipse class="cls-7" cx="47.47" cy="52.32" rx="19.46" ry="10.95" transform="translate(-11.12 91.8) rotate(-81.76)"/><circle class="cls-7" cx="40.73" cy="71.78" r="9.73"/></g></g></g></svg>