<?xml version="1.0" encoding="utf-8"?>
<!-- Generator: Adobe Illustrator 21.0.0, SVG Export Plug-In . SVG Version: 6.00 Build 0)  -->
<svg version="1.1" id="Layer_1" xmlns="http://www.w3.org/2000/svg" xmlns:xlink="http://www.w3.org/1999/xlink" x="0px" y="0px"
	 viewBox="0 0 162.9 198" style="enable-background:new 0 0 162.9 198;" xml:space="preserve">
<style type="text/css">
	.st0{fill:#FDE036;}
	.st1{opacity:0.2;fill:#FDBA01;enable-background:new    ;}
	.st2{fill:#414042;}
	.st3{fill:#E6401F;}
	.st4{opacity:0.3;fill:#231F20;enable-background:new    ;}
</style>
<title>pacMan</title>
<g>
	<g id="Layer_3">
		<circle class="st0" cx="90.1" cy="110.1" r="71"/>
		<path class="st1" d="M154.8,140.2c-16.4,35.6-58.5,51.2-94.2,34.8S9.4,116.5,25.7,80.9c0.5-1.2,1.1-2.3,1.7-3.5
			c4.9-9.1,16.4-12.5,25.5-7.6c2.6,1.4,4.8,3.4,6.5,5.8l24,34.4c4,5.7,10.8,8.8,17.7,7.9l34.2-4C149.8,112.3,160.8,127,154.8,140.2z
			"/>
		<circle class="st2" cx="104" cy="89.2" r="7.4"/>
		<circle class="st2" cx="125.1" cy="89.2" r="7.4"/>
		<path class="st2" d="M80.6,74h31l0,0v15.7c0,8.4-6.9,15.3-15.3,15.3c0,0,0,0,0,0h-0.4c-8.4,0-15.3-6.9-15.3-15.3c0,0,0,0,0,0
			L80.6,74L80.6,74L80.6,74z"/>
		<path class="st2" d="M117.5,74h31l0,0v15.7c0,8.4-6.9,15.3-15.3,15.3l0,0h-0.4c-8.4,0-15.3-6.9-15.3-15.3c0,0,0,0,0,0L117.5,74
			C117.5,74,117.5,74,117.5,74z"/>
		<rect x="106.8" y="79.4" class="st2" width="15.4" height="11"/>
		
			<ellipse transform="matrix(0.8011 -0.5985 0.5985 0.8011 -35.0392 27.0755)" class="st3" cx="23.2" cy="66.3" rx="19.5" ry="10.9"/>
		
			<ellipse transform="matrix(0.8011 -0.5985 0.5985 0.8011 -35.0392 27.0755)" class="st4" cx="23.2" cy="66.3" rx="19.5" ry="10.9"/>
		
			<ellipse transform="matrix(0.1433 -0.9897 0.9897 0.1433 -37.9987 69.4876)" class="st3" cx="21.1" cy="56.7" rx="10.9" ry="19.5"/>
		
			<ellipse transform="matrix(0.8011 -0.5985 0.5985 0.8011 -14.4198 41.8176)" class="st3" cx="55.7" cy="42.6" rx="19.5" ry="10.9"/>
		
			<ellipse transform="matrix(0.8011 -0.5985 0.5985 0.8011 -14.4198 41.8176)" class="st4" cx="55.7" cy="42.6" rx="19.5" ry="10.9"/>
		<ellipse transform="matrix(0.1433 -0.9897 0.9897 0.1433 3.7275 78.9433)" class="st3" cx="47.5" cy="37.3" rx="19.5" ry="11"/>
		<circle class="st3" cx="40.7" cy="56.8" r="9.7"/>
	</g>
</g>
</svg>
