<svg xmlns="http://www.w3.org/2000/svg" viewBox="0 0 174 168"><defs><style>.cls-1{isolation:isolate;}.cls-2{fill:#fde036;}.cls-3{fill:#fdba01;opacity:0.2;}.cls-3,.cls-7{mix-blend-mode:multiply;}.cls-4{fill:#414042;}.cls-5{fill:none;stroke:#414042;stroke-miterlimit:10;stroke-width:11px;}.cls-6{fill:#e6401f;}.cls-7{fill:#231f20;opacity:0.3;}</style></defs><title>pacMan</title><g class="cls-1"><g id="Layer_3" data-name="Layer 3"><circle class="cls-2" cx="93" cy="93.09" r="71"/><path class="cls-3" d="M157.7,123.25A71,71,0,1,1,30.39,60.47a18.82,18.82,0,0,1,32-1.8l24,34.43A18.83,18.83,0,0,0,104.06,101l34.2-4C152.7,95.3,163.71,110,157.7,123.25Z"/><circle class="cls-4" cx="106.97" cy="72.2" r="7.4"/><circle class="cls-4" cx="128.05" cy="72.2" r="7.4"/><path class="cls-4" d="M83.57,57h31a0,0,0,0,1,0,0v15.7A15.3,15.3,0,0,1,99.27,88h-.4a15.3,15.3,0,0,1-15.3-15.3V57a0,0,0,0,1,0,0Z"/><path class="cls-4" d="M120.43,57h31a0,0,0,0,1,0,0v15.7A15.3,15.3,0,0,1,136.13,88h-.4a15.3,15.3,0,0,1-15.3-15.3V57a0,0,0,0,1,0,0Z"/><line class="cls-5" x1="125.2" y1="67.92" x2="109.8" y2="67.92"/><ellipse class="cls-6" cx="26.17" cy="49.29" rx="19.46" ry="10.95" transform="translate(-24.29 25.46) rotate(-36.76)"/><ellipse class="cls-7" cx="26.17" cy="49.29" rx="19.46" ry="10.95" transform="translate(-24.29 25.46) rotate(-36.76)"/><ellipse class="cls-6" cx="24.08" cy="39.72" rx="10.95" ry="19.46" transform="translate(-18.68 57.86) rotate(-81.76)"/><ellipse class="cls-6" cx="58.67" cy="25.65" rx="19.46" ry="10.95" transform="matrix(0.8, -0.6, 0.6, 0.8, -3.68, 40.21)"/><ellipse class="cls-7" cx="58.67" cy="25.65" rx="19.46" ry="10.95" transform="matrix(0.8, -0.6, 0.6, 0.8, -3.68, 40.21)"/><ellipse class="cls-6" cx="50.42" cy="20.36" rx="19.46" ry="10.95" transform="translate(23.05 67.34) rotate(-81.76)"/><circle class="cls-6" cx="43.68" cy="39.81" r="9.73"/></g></g></svg>