<?xml version="1.0" encoding="utf-8"?>
<!-- Generator: Adobe Illustrator 21.0.0, SVG Export Plug-In . SVG Version: 6.00 Build 0)  -->
<svg version="1.1" id="Layer_1" xmlns="http://www.w3.org/2000/svg" xmlns:xlink="http://www.w3.org/1999/xlink" x="0px" y="0px"
	 viewBox="0 0 340 200" style="enable-background:new 0 0 340 200;" xml:space="preserve">
<style type="text/css">
	.st0{fill:#FDE036;}
	.st1{opacity:0.2;fill:#FDBA01;enable-background:new    ;}
	.st2{fill:#414042;}
	.st3{fill:#E6401F;}
	.st4{opacity:0.3;fill:#231F20;enable-background:new    ;}
	.st5{clip-path:url(#SVGID_2_);}
	.st6{clip-path:url(#SVGID_4_);}
</style>
<title>min-sheet</title>
<g>
</g>
<g id="Layer_3">
	<g>
		<circle class="st0" cx="93.6" cy="110.3" r="71"/>
		<path class="st1" d="M158.3,140.4c-16.4,35.6-58.5,51.2-94.2,34.8s-51.2-58.5-34.8-94.2c0.5-1.2,1.1-2.3,1.7-3.5
			c4.9-9.1,16.4-12.5,25.5-7.6c2.6,1.4,4.8,3.4,6.5,5.8l24,34.4c4,5.7,10.8,8.8,17.7,7.9l34.2-4
			C153.3,112.5,164.3,127.2,158.3,140.4z"/>
		<circle class="st2" cx="107.6" cy="89.4" r="7.4"/>
		<circle class="st2" cx="128.7" cy="89.4" r="7.4"/>
		<path class="st2" d="M84.2,74.2h31l0,0v15.7c0,8.4-6.9,15.3-15.3,15.3c0,0,0,0,0,0h-0.4c-8.4,0-15.3-6.9-15.3-15.3c0,0,0,0,0,0
			L84.2,74.2L84.2,74.2z"/>
		<path class="st2" d="M121,74.2h31l0,0v15.7c0,8.4-6.9,15.3-15.3,15.3l0,0h-0.4c-8.4,0-15.3-6.9-15.3-15.3c0,0,0,0,0,0L121,74.2
			C121,74.2,121,74.2,121,74.2z"/>
		<rect x="110.4" y="79.6" class="st2" width="15.4" height="11"/>
		
			<ellipse transform="matrix(0.8011 -0.5985 0.5985 0.8011 -34.4587 29.2536)" class="st3" cx="26.8" cy="66.5" rx="19.5" ry="10.9"/>
		
			<ellipse transform="matrix(0.8011 -0.5985 0.5985 0.8011 -34.4587 29.2536)" class="st4" cx="26.8" cy="66.5" rx="19.5" ry="10.9"/>
		
			<ellipse transform="matrix(0.1433 -0.9897 0.9897 0.1433 -35.1555 73.2032)" class="st3" cx="24.7" cy="56.9" rx="10.9" ry="19.5"/>
		
			<ellipse transform="matrix(0.8011 -0.5985 0.5985 0.8011 -13.8392 43.9957)" class="st3" cx="59.3" cy="42.8" rx="19.5" ry="10.9"/>
		
			<ellipse transform="matrix(0.8011 -0.5985 0.5985 0.8011 -13.8392 43.9957)" class="st4" cx="59.3" cy="42.8" rx="19.5" ry="10.9"/>
		<ellipse transform="matrix(0.1433 -0.9897 0.9897 0.1433 6.5708 82.659)" class="st3" cx="51" cy="37.5" rx="19.5" ry="11"/>
		<circle class="st3" cx="44.3" cy="57" r="9.7"/>
	</g>
	<g>
		<g>
			<g>
				<defs>
					<rect id="SVGID_1_" x="174.5" y="2" width="161" height="108"/>
				</defs>
				<clipPath id="SVGID_2_">
					<use xlink:href="#SVGID_1_"  style="overflow:visible;"/>
				</clipPath>
				<g class="st5">
					<circle class="st0" cx="263.5" cy="95.1" r="71"/>
					<path class="st1" d="M328.2,125.2c-16.5,35.6-58.7,51.1-94.3,34.6s-51.1-58.7-34.6-94.3c0.5-1.1,1-2.1,1.6-3.1
						c4.9-9.1,16.4-12.5,25.5-7.6c2.6,1.4,4.8,3.4,6.5,5.8l24,34.4c4,5.7,10.8,8.8,17.7,7.9l34.2-4
						C323.2,97.3,334.2,112,328.2,125.2z"/>
					<circle class="st2" cx="277.5" cy="74.2" r="7.4"/>
					<circle class="st2" cx="298.6" cy="74.2" r="7.4"/>
					<path class="st2" d="M254.1,59h31l0,0v15.7c0,8.4-6.9,15.3-15.3,15.3h-0.4c-8.4,0-15.3-6.9-15.3-15.3c0,0,0,0,0,0L254.1,59
						L254.1,59L254.1,59z"/>
					<path class="st2" d="M291,59h31l0,0v15.7c0,8.4-6.8,15.3-15.3,15.3c0,0,0,0,0,0h-0.4c-8.4,0-15.3-6.9-15.3-15.3L291,59L291,59
						L291,59z"/>
					<rect x="280.3" y="64.4" class="st2" width="15.4" height="11"/>
					
						<ellipse transform="matrix(0.8011 -0.5985 0.5985 0.8011 8.4349 127.915)" class="st3" cx="196.7" cy="51.3" rx="19.5" ry="11"/>
					
						<ellipse transform="matrix(0.8011 -0.5985 0.5985 0.8011 8.4349 127.915)" class="st4" cx="196.7" cy="51.3" rx="19.5" ry="11"/>
					
						<ellipse transform="matrix(0.1433 -0.9897 0.9897 0.1433 125.4636 228.3102)" class="st3" cx="194.6" cy="41.7" rx="10.9" ry="19.5"/>
					
						<ellipse transform="matrix(0.8011 -0.5985 0.5985 0.8011 29.0491 142.6535)" class="st3" cx="229.2" cy="27.6" rx="19.5" ry="11"/>
					
						<ellipse transform="matrix(0.8011 -0.5985 0.5985 0.8011 29.0491 142.6535)" class="st4" cx="229.2" cy="27.6" rx="19.5" ry="11"/>
					
						<ellipse transform="matrix(0.1433 -0.9897 0.9897 0.1433 167.1885 237.7844)" class="st3" cx="220.9" cy="22.3" rx="19.5" ry="10.9"/>
					<circle class="st3" cx="214.2" cy="41.8" r="9.7"/>
				</g>
			</g>
			<g>
				<defs>
					<rect id="SVGID_3_" x="180.5" y="140" width="154" height="58"/>
				</defs>
				<clipPath id="SVGID_4_">
					<use xlink:href="#SVGID_3_"  style="overflow:visible;"/>
				</clipPath>
				<g class="st6">
					<circle class="st0" cx="263.5" cy="125.1" r="71"/>
					<path class="st1" d="M328.2,155.2c-16.5,35.6-58.7,51.1-94.3,34.6s-51.1-58.7-34.6-94.3c0.5-1.1,1-2.1,1.6-3.1
						c4.9-9.1,16.4-12.5,25.5-7.6c2.6,1.4,4.8,3.4,6.5,5.8l24,34.4c4,5.7,10.8,8.8,17.7,7.9l34.2-4
						C323.2,127.3,334.2,142,328.2,155.2z"/>
					<circle class="st2" cx="277.5" cy="104.2" r="7.4"/>
					<circle class="st2" cx="298.6" cy="104.2" r="7.4"/>
					<path class="st2" d="M254.1,89h31l0,0v15.7c0,8.4-6.9,15.3-15.3,15.3h-0.4c-8.4,0-15.3-6.9-15.3-15.3c0,0,0,0,0,0L254.1,89
						L254.1,89z"/>
					<path class="st2" d="M291,89h31l0,0v15.7c0,8.4-6.8,15.3-15.3,15.3c0,0,0,0,0,0h-0.4c-8.4,0-15.3-6.9-15.3-15.3L291,89L291,89z
						"/>
					<rect x="280.3" y="94.4" class="st2" width="15.4" height="11"/>
					
						<ellipse transform="matrix(0.8011 -0.5985 0.5985 0.8011 -9.517 133.8758)" class="st3" cx="196.7" cy="81.3" rx="19.5" ry="10.9"/>
					
						<ellipse transform="matrix(0.8011 -0.5985 0.5985 0.8011 -9.517 133.8758)" class="st4" cx="196.7" cy="81.3" rx="19.5" ry="10.9"/>
					
						<ellipse transform="matrix(0.1433 -0.9897 0.9897 0.1433 95.7739 254.0105)" class="st3" cx="194.6" cy="71.7" rx="10.9" ry="19.5"/>
					
						<ellipse transform="matrix(0.8011 -0.5985 0.5985 0.8011 11.0913 148.6163)" class="st3" cx="229.2" cy="57.6" rx="19.5" ry="10.9"/>
					
						<ellipse transform="matrix(0.8011 -0.5985 0.5985 0.8011 11.0913 148.6163)" class="st4" cx="229.2" cy="57.6" rx="19.5" ry="10.9"/>
					
						<ellipse transform="matrix(0.1433 -0.9897 0.9897 0.1433 137.4989 263.4848)" class="st3" cx="220.9" cy="52.3" rx="19.5" ry="11"/>
					<circle class="st3" cx="214.2" cy="71.8" r="9.7"/>
				</g>
			</g>
		</g>
	</g>
</g>
</svg>
