<svg xmlns="http://www.w3.org/2000/svg" xmlns:xlink="http://www.w3.org/1999/xlink" viewBox="0 0 651.6 198"><defs><style>.cls-1{fill:none;}.cls-2{isolation:isolate;}.cls-3{fill:#fde036;}.cls-4{fill:#fdba01;opacity:0.2;}.cls-4,.cls-7{mix-blend-mode:multiply;}.cls-5{fill:#414042;}.cls-6{fill:#e6401f;}.cls-7{fill:#231f20;opacity:0.3;}.cls-8{clip-path:url(#clip-path);}.cls-9{clip-path:url(#clip-path-2);}.cls-10{clip-path:url(#clip-path-3);}.cls-11{clip-path:url(#clip-path-4);}.cls-12{clip-path:url(#clip-path-5);}.cls-13{clip-path:url(#clip-path-6);}</style><clipPath id="clip-path"><rect class="cls-1" x="163.88" y="2" width="161" height="108"/></clipPath><clipPath id="clip-path-2"><rect class="cls-1" x="169.88" y="140" width="154" height="58"/></clipPath><clipPath id="clip-path-3"><rect class="cls-1" x="326.74" y="1" width="161" height="119"/></clipPath><clipPath id="clip-path-4"><rect class="cls-1" x="332.74" y="140" width="155" height="57"/></clipPath><clipPath id="clip-path-5"><rect class="cls-1" x="489.6" y="11" width="162" height="119"/></clipPath><clipPath id="clip-path-6"><rect class="cls-1" x="505.6" y="140" width="144" height="57"/></clipPath></defs><title>min-sheet</title><g class="cls-2"><g id="Layer_3" data-name="Layer 3"><circle class="cls-3" cx="90.05" cy="125.06" r="71"/><path class="cls-4" d="M154.75,155.22A71,71,0,1,1,27.44,92.44a18.82,18.82,0,0,1,32-1.8l24,34.43A18.83,18.83,0,0,0,101.11,133l34.2-4C149.75,127.27,160.76,142,154.75,155.22Z"/><circle class="cls-5" cx="104.02" cy="104.17" r="7.4"/><circle class="cls-5" cx="125.1" cy="104.17" r="7.4"/><path class="cls-5" d="M80.62,89h31a0,0,0,0,1,0,0v15.7A15.3,15.3,0,0,1,96.31,120h-.4a15.3,15.3,0,0,1-15.3-15.3V89A0,0,0,0,1,80.62,89Z"/><path class="cls-5" d="M117.48,89h31a0,0,0,0,1,0,0v15.7a15.3,15.3,0,0,1-15.3,15.3h-.4a15.3,15.3,0,0,1-15.3-15.3V89a0,0,0,0,1,0,0Z"/><rect class="cls-5" x="106.85" y="94.39" width="15.4" height="11"/><ellipse class="cls-6" cx="23.22" cy="81.26" rx="19.46" ry="10.95" transform="translate(-44.01 30.06) rotate(-36.76)"/><ellipse class="cls-7" cx="23.22" cy="81.26" rx="19.46" ry="10.95" transform="translate(-44.01 30.06) rotate(-36.76)"/><ellipse class="cls-6" cx="21.13" cy="71.69" rx="10.95" ry="19.46" transform="translate(-52.84 82.33) rotate(-81.76)"/><ellipse class="cls-6" cx="55.72" cy="57.61" rx="19.46" ry="10.95" transform="translate(-23.4 44.8) rotate(-36.76)"/><ellipse class="cls-7" cx="55.72" cy="57.61" rx="19.46" ry="10.95" transform="translate(-23.4 44.8) rotate(-36.76)"/><ellipse class="cls-6" cx="47.47" cy="52.32" rx="19.46" ry="10.95" transform="translate(-11.12 91.8) rotate(-81.76)"/><circle class="cls-6" cx="40.73" cy="71.78" r="9.73"/><g class="cls-8"><circle class="cls-3" cx="252.91" cy="95.06" r="71"/><path class="cls-4" d="M317.61,125.22A71,71,0,1,1,190.29,62.44a18.82,18.82,0,0,1,32-1.8l24,34.43A18.83,18.83,0,0,0,264,103l34.2-4C312.61,97.27,323.61,112,317.61,125.22Z"/><circle class="cls-5" cx="266.88" cy="74.17" r="7.4"/><circle class="cls-5" cx="287.95" cy="74.17" r="7.4"/><path class="cls-5" d="M243.47,59h31a0,0,0,0,1,0,0V74.7A15.3,15.3,0,0,1,259.17,90h-.4a15.3,15.3,0,0,1-15.3-15.3V59a0,0,0,0,1,0,0Z"/><path class="cls-5" d="M280.34,59h31a0,0,0,0,1,0,0V74.7A15.3,15.3,0,0,1,296,90h-.4a15.3,15.3,0,0,1-15.3-15.3V59a0,0,0,0,1,0,0Z"/><rect class="cls-5" x="269.71" y="64.39" width="15.4" height="11"/><ellipse class="cls-6" cx="186.08" cy="51.26" rx="19.46" ry="10.95" transform="translate(6.33 121.56) rotate(-36.76)"/><ellipse class="cls-7" cx="186.08" cy="51.26" rx="19.46" ry="10.95" transform="translate(6.33 121.56) rotate(-36.76)"/><ellipse class="cls-6" cx="183.99" cy="41.69" rx="10.95" ry="19.46" transform="translate(116.36 217.8) rotate(-81.76)"/><ellipse class="cls-6" cx="218.57" cy="27.61" rx="19.46" ry="10.95" transform="translate(26.94 136.3) rotate(-36.76)"/><ellipse class="cls-7" cx="218.57" cy="27.61" rx="19.46" ry="10.95" transform="translate(26.94 136.3) rotate(-36.76)"/><ellipse class="cls-6" cx="210.33" cy="22.32" rx="19.46" ry="10.95" transform="translate(158.09 227.28) rotate(-81.76)"/><circle class="cls-6" cx="203.59" cy="41.78" r="9.73"/></g><g class="cls-9"><circle class="cls-3" cx="252.91" cy="125.06" r="71"/><path class="cls-4" d="M317.61,155.22A71,71,0,1,1,190.29,92.44a18.82,18.82,0,0,1,32-1.8l24,34.43A18.83,18.83,0,0,0,264,133l34.2-4C312.61,127.27,323.61,142,317.61,155.22Z"/><circle class="cls-5" cx="266.88" cy="104.17" r="7.4"/><circle class="cls-5" cx="287.95" cy="104.17" r="7.4"/><path class="cls-5" d="M243.47,89h31a0,0,0,0,1,0,0v15.7a15.3,15.3,0,0,1-15.3,15.3h-.4a15.3,15.3,0,0,1-15.3-15.3V89A0,0,0,0,1,243.47,89Z"/><path class="cls-5" d="M280.34,89h31a0,0,0,0,1,0,0v15.7A15.3,15.3,0,0,1,296,120h-.4a15.3,15.3,0,0,1-15.3-15.3V89A0,0,0,0,1,280.34,89Z"/><rect class="cls-5" x="269.71" y="94.39" width="15.4" height="11"/><ellipse class="cls-6" cx="186.08" cy="81.26" rx="19.46" ry="10.95" transform="translate(-11.63 127.52) rotate(-36.76)"/><ellipse class="cls-7" cx="186.08" cy="81.26" rx="19.46" ry="10.95" transform="translate(-11.63 127.52) rotate(-36.76)"/><ellipse class="cls-6" cx="183.99" cy="71.69" rx="10.95" ry="19.46" transform="translate(86.67 243.5) rotate(-81.76)"/><ellipse class="cls-6" cx="218.57" cy="57.61" rx="19.46" ry="10.95" transform="translate(8.98 142.27) rotate(-36.76)"/><ellipse class="cls-7" cx="218.57" cy="57.61" rx="19.46" ry="10.95" transform="translate(8.98 142.27) rotate(-36.76)"/><ellipse class="cls-6" cx="210.33" cy="52.32" rx="19.46" ry="10.95" transform="translate(128.4 252.98) rotate(-81.76)"/><circle class="cls-6" cx="203.59" cy="71.78" r="9.73"/></g><g class="cls-10"><circle class="cls-3" cx="415.76" cy="105.06" r="71"/><path class="cls-4" d="M480.46,135.22A71,71,0,1,1,353.15,72.44a18.82,18.82,0,0,1,32-1.8l24,34.43A18.83,18.83,0,0,0,426.82,113l34.2-4C475.46,107.27,486.47,122,480.46,135.22Z"/><circle class="cls-5" cx="429.74" cy="84.17" r="7.4"/><circle class="cls-5" cx="450.81" cy="84.17" r="7.4"/><path class="cls-5" d="M406.33,56h31a0,0,0,0,1,0,0V71.7A15.3,15.3,0,0,1,422,87h-.4a15.3,15.3,0,0,1-15.3-15.3V56A0,0,0,0,1,406.33,56Z"/><path class="cls-5" d="M443.2,56h31a0,0,0,0,1,0,0V71.7A15.3,15.3,0,0,1,458.89,87h-.4a15.3,15.3,0,0,1-15.3-15.3V56A0,0,0,0,1,443.2,56Z"/><rect class="cls-5" x="432.57" y="61.39" width="15.4" height="11"/><ellipse class="cls-6" cx="348.94" cy="51.26" rx="19.46" ry="10.95" transform="translate(38.71 219.02) rotate(-36.76)"/><ellipse class="cls-7" cx="348.94" cy="51.26" rx="19.46" ry="10.95" transform="translate(38.71 219.02) rotate(-36.76)"/><ellipse class="cls-6" cx="346.85" cy="41.69" rx="10.95" ry="19.46" transform="translate(255.88 378.98) rotate(-81.76)"/><ellipse class="cls-6" cx="381.43" cy="27.61" rx="19.46" ry="10.95" transform="translate(59.32 233.77) rotate(-36.76)"/><ellipse class="cls-7" cx="381.43" cy="27.61" rx="19.46" ry="10.95" transform="translate(59.32 233.77) rotate(-36.76)"/><ellipse class="cls-6" cx="373.18" cy="22.32" rx="19.46" ry="10.95" transform="translate(297.61 388.46) rotate(-81.76)"/><circle class="cls-6" cx="366.44" cy="41.78" r="9.73"/></g><g class="cls-11"><circle class="cls-3" cx="415.76" cy="125.06" r="71"/><path class="cls-4" d="M480.46,155.22A71,71,0,1,1,353.15,92.44a18.82,18.82,0,0,1,32-1.8l24,34.43A18.83,18.83,0,0,0,426.82,133l34.2-4C475.46,127.27,486.47,142,480.46,155.22Z"/><circle class="cls-5" cx="429.74" cy="104.17" r="7.4"/><circle class="cls-5" cx="450.81" cy="104.17" r="7.4"/><path class="cls-5" d="M406.33,89h31a0,0,0,0,1,0,0v15.7A15.3,15.3,0,0,1,422,120h-.4a15.3,15.3,0,0,1-15.3-15.3V89A0,0,0,0,1,406.33,89Z"/><path class="cls-5" d="M443.2,89h31a0,0,0,0,1,0,0v15.7a15.3,15.3,0,0,1-15.3,15.3h-.4a15.3,15.3,0,0,1-15.3-15.3V89A0,0,0,0,1,443.2,89Z"/><rect class="cls-5" x="432.57" y="94.39" width="15.4" height="11"/><ellipse class="cls-6" cx="348.94" cy="81.26" rx="19.46" ry="10.95" transform="translate(20.76 224.99) rotate(-36.76)"/><ellipse class="cls-7" cx="348.94" cy="81.26" rx="19.46" ry="10.95" transform="translate(20.76 224.99) rotate(-36.76)"/><ellipse class="cls-6" cx="346.85" cy="71.69" rx="10.95" ry="19.46" transform="translate(226.19 404.68) rotate(-81.76)"/><ellipse class="cls-6" cx="381.43" cy="57.61" rx="19.46" ry="10.95" transform="translate(41.37 239.73) rotate(-36.76)"/><ellipse class="cls-7" cx="381.43" cy="57.61" rx="19.46" ry="10.95" transform="translate(41.37 239.73) rotate(-36.76)"/><ellipse class="cls-6" cx="373.18" cy="52.32" rx="19.46" ry="10.95" transform="translate(267.92 414.16) rotate(-81.76)"/><circle class="cls-6" cx="366.44" cy="71.78" r="9.73"/></g><g class="cls-12"><circle class="cls-3" cx="578.62" cy="115.06" r="71"/><path class="cls-4" d="M643.32,145.22A71,71,0,1,1,516,82.44a18.82,18.82,0,0,1,32-1.8l24,34.43A18.83,18.83,0,0,0,589.68,123l34.2-4C638.32,117.27,649.33,132,643.32,145.22Z"/><circle class="cls-5" cx="592.6" cy="94.17" r="7.4"/><circle class="cls-5" cx="613.67" cy="94.17" r="7.4"/><path class="cls-5" d="M569.19,76h31a0,0,0,0,1,0,0V91.7a15.3,15.3,0,0,1-15.3,15.3h-.4a15.3,15.3,0,0,1-15.3-15.3V76A0,0,0,0,1,569.19,76Z"/><path class="cls-5" d="M606.05,76h31a0,0,0,0,1,0,0V91.7a15.3,15.3,0,0,1-15.3,15.3h-.4a15.3,15.3,0,0,1-15.3-15.3V76a0,0,0,0,1,0,0Z"/><rect class="cls-5" x="595.42" y="81.39" width="15.4" height="11"/><ellipse class="cls-6" cx="511.79" cy="68.26" rx="19.46" ry="10.95" transform="translate(60.92 319.87) rotate(-36.76)"/><ellipse class="cls-7" cx="511.79" cy="68.26" rx="19.46" ry="10.95" transform="translate(60.92 319.87) rotate(-36.76)"/><ellipse class="cls-6" cx="509.7" cy="58.69" rx="10.95" ry="19.46" transform="translate(378.57 554.72) rotate(-81.76)"/><ellipse class="cls-6" cx="544.29" cy="44.61" rx="19.46" ry="10.95" transform="translate(81.53 334.61) rotate(-36.76)"/><ellipse class="cls-7" cx="544.29" cy="44.61" rx="19.46" ry="10.95" transform="translate(81.53 334.61) rotate(-36.76)"/><ellipse class="cls-6" cx="536.04" cy="39.32" rx="19.46" ry="10.95" transform="translate(420.3 564.2) rotate(-81.76)"/><circle class="cls-6" cx="529.3" cy="58.78" r="9.73"/></g><g class="cls-13"><circle class="cls-3" cx="578.62" cy="125.06" r="71"/><path class="cls-4" d="M643.32,155.22A71,71,0,1,1,516,92.44a18.82,18.82,0,0,1,32-1.8l24,34.43A18.83,18.83,0,0,0,589.68,133l34.2-4C638.32,127.27,649.33,142,643.32,155.22Z"/><circle class="cls-5" cx="592.6" cy="104.17" r="7.4"/><circle class="cls-5" cx="613.67" cy="104.17" r="7.4"/><path class="cls-5" d="M569.19,89h31a0,0,0,0,1,0,0v15.7a15.3,15.3,0,0,1-15.3,15.3h-.4a15.3,15.3,0,0,1-15.3-15.3V89A0,0,0,0,1,569.19,89Z"/><path class="cls-5" d="M606.05,89h31a0,0,0,0,1,0,0v15.7a15.3,15.3,0,0,1-15.3,15.3h-.4a15.3,15.3,0,0,1-15.3-15.3V89a0,0,0,0,1,0,0Z"/><rect class="cls-5" x="595.42" y="94.39" width="15.4" height="11"/><ellipse class="cls-6" cx="511.79" cy="81.26" rx="19.46" ry="10.95" transform="translate(53.14 322.45) rotate(-36.76)"/><ellipse class="cls-7" cx="511.79" cy="81.26" rx="19.46" ry="10.95" transform="translate(53.14 322.45) rotate(-36.76)"/><ellipse class="cls-6" cx="509.7" cy="71.69" rx="10.95" ry="19.46" transform="translate(365.71 565.85) rotate(-81.76)"/><ellipse class="cls-6" cx="544.29" cy="57.61" rx="19.46" ry="10.95" transform="translate(73.75 337.2) rotate(-36.76)"/><ellipse class="cls-7" cx="544.29" cy="57.61" rx="19.46" ry="10.95" transform="translate(73.75 337.2) rotate(-36.76)"/><ellipse class="cls-6" cx="536.04" cy="52.32" rx="19.46" ry="10.95" transform="translate(407.43 575.33) rotate(-81.76)"/><circle class="cls-6" cx="529.3" cy="71.78" r="9.73"/></g></g></g></svg>