<svg xmlns="http://www.w3.org/2000/svg" viewBox="0 0 65.59 87.68"><defs><style>.cls-1{isolation:isolate;}.cls-2{fill:#4691db;}.cls-3{fill:#231f20;opacity:0.3;mix-blend-mode:multiply;}.cls-4{fill:#fff;}</style></defs><g class="cls-1"><g id="Layer_3" data-name="Layer 3"><path class="cls-2" d="M32.8,0a32.8,32.8,0,0,1,32.8,32.8V81a4.64,4.64,0,0,1-7.68,3.5h0a13.3,13.3,0,0,0-17.43,0l-.68.59a10.68,10.68,0,0,1-14,0l-.68-.59a13.3,13.3,0,0,0-17.43,0h0A4.64,4.64,0,0,1,0,81V32.8A32.8,32.8,0,0,1,32.8,0Z"/><path class="cls-3" d="M65.59,32.8V81a4.64,4.64,0,0,1-7.68,3.5,13.3,13.3,0,0,0-17.43,0l-.68.59A10.64,10.64,0,0,1,37,86.81V.28A32.79,32.79,0,0,1,65.59,32.8Z"/><circle class="cls-4" cx="48.66" cy="34.16" r="5.85"/><circle class="cls-4" cx="24.09" cy="34.16" r="5.85"/><path class="cls-4" d="M26.86,59.41a2.78,2.78,0,0,0,2-.82L36.38,51l7.54,7.54a2.8,2.8,0,0,0,4,0l9.52-9.52a2.8,2.8,0,0,0-4-4L45.9,52.65l-7.54-7.54a2.8,2.8,0,0,0-4,0l-7.54,7.54-7.54-7.54a2.8,2.8,0,0,0-4,4l9.52,9.52A2.78,2.78,0,0,0,26.86,59.41Z"/></g></g></svg>