<svg xmlns="http://www.w3.org/2000/svg" viewBox="0 0 179.57 89.79"><defs><style>.cls-1{isolation:isolate;}.cls-2{fill:none;}.cls-3{fill:#ea5256;}.cls-4{fill:#231f20;opacity:0.3;mix-blend-mode:multiply;}.cls-5{fill:#414042;}</style></defs><g class="cls-1"><g id="Layer_3" data-name="Layer 3"><rect id="_Rectangle_" data-name="&lt;Rectangle&gt;" class="cls-2" x="-648.43" y="-686.6" width="800" height="800"/><path class="cls-3" d="M134.68,1.05a32.8,32.8,0,0,0-32.8,32.8V82a4.64,4.64,0,0,0,7.68,3.5h0a13.3,13.3,0,0,1,17.43,0l.68.59a10.68,10.68,0,0,0,14,0l.68-.59a13.3,13.3,0,0,1,17.43,0h0a4.64,4.64,0,0,0,7.68-3.5V33.85a32.8,32.8,0,0,0-32.8-32.8Z"/><path class="cls-4" d="M101.88,33.85V82a4.64,4.64,0,0,0,7.68,3.5,13.3,13.3,0,0,1,17.43,0l.68.59a10.64,10.64,0,0,0,2.79,1.74V1.33A32.79,32.79,0,0,0,101.88,33.85Z"/><circle class="cls-5" cx="118.39" cy="35.21" r="5.85"/><circle class="cls-5" cx="142.97" cy="35.21" r="5.85"/><path class="cls-5" d="M140.2,60.46a2.78,2.78,0,0,1-2-.82l-7.54-7.54-7.54,7.54a2.8,2.8,0,0,1-4,0l-9.52-9.52a2.8,2.8,0,0,1,4-4l7.54,7.54,7.54-7.54a2.8,2.8,0,0,1,4,0l7.54,7.54,7.54-7.54a2.8,2.8,0,0,1,4,4l-9.52,9.52A2.78,2.78,0,0,1,140.2,60.46Z"/><path class="cls-3" d="M44.89,1.05a32.8,32.8,0,0,0-32.8,32.8V82a4.64,4.64,0,0,0,7.68,3.5h0a13.3,13.3,0,0,1,17.43,0l.68.59a10.68,10.68,0,0,0,14,0l.68-.59a13.3,13.3,0,0,1,17.43,0h0A4.64,4.64,0,0,0,77.69,82V33.85a32.8,32.8,0,0,0-32.8-32.8Z"/><path class="cls-4" d="M12.1,33.85V82a4.64,4.64,0,0,0,7.68,3.5,13.3,13.3,0,0,1,17.43,0l.68.59a10.65,10.65,0,0,0,6.79,2.6V1.06A32.79,32.79,0,0,0,12.1,33.85Z"/><circle class="cls-5" cx="32.61" cy="35.21" r="5.85"/><circle class="cls-5" cx="57.18" cy="35.21" r="5.85"/><path class="cls-5" d="M54.41,60.46a2.78,2.78,0,0,1-2-.82L44.89,52.1l-7.54,7.54a2.8,2.8,0,0,1-4,0l-9.52-9.52a2.8,2.8,0,0,1,4-4l7.54,7.54,7.54-7.54a2.8,2.8,0,0,1,4,0l7.54,7.54L62,46.16a2.8,2.8,0,0,1,4,4l-9.52,9.52A2.78,2.78,0,0,1,54.41,60.46Z"/></g></g></svg>