<svg xmlns="http://www.w3.org/2000/svg" viewBox="0 0 65.59 87.68"><defs><style>.cls-1{isolation:isolate;}.cls-2{fill:#ac70e0;}.cls-3{fill:#231f20;opacity:0.3;mix-blend-mode:multiply;}.cls-4{fill:#414042;}</style></defs><g class="cls-1"><g id="Layer_3" data-name="Layer 3"><path class="cls-2" d="M32.8,0A32.8,32.8,0,0,0,0,32.8V81a4.64,4.64,0,0,0,7.68,3.5h0a13.3,13.3,0,0,1,17.43,0l.68.59a10.68,10.68,0,0,0,14,0l.68-.59a13.3,13.3,0,0,1,17.43,0h0A4.64,4.64,0,0,0,65.59,81V32.8A32.8,32.8,0,0,0,32.8,0Z"/><path class="cls-3" d="M0,32.8V81a4.64,4.64,0,0,0,7.68,3.5,13.3,13.3,0,0,1,17.43,0l.68.59a10.65,10.65,0,0,0,6.79,2.6V0A32.79,32.79,0,0,0,0,32.8Z"/><circle class="cls-4" cx="20.51" cy="34.16" r="5.85"/><circle class="cls-4" cx="45.08" cy="34.16" r="5.85"/><path class="cls-4" d="M42.32,59.41a2.78,2.78,0,0,1-2-.82L32.8,51l-7.54,7.54a2.8,2.8,0,0,1-4,0l-9.52-9.52a2.8,2.8,0,0,1,4-4l7.54,7.54,7.54-7.54a2.8,2.8,0,0,1,4,0l7.54,7.54,7.54-7.54a2.8,2.8,0,0,1,4,4l-9.52,9.52A2.78,2.78,0,0,1,42.32,59.41Z"/></g></g></svg>